<svg width="1303" height="336" viewBox="0 0 1303 336" fill="none" xmlns="http://www.w3.org/2000/svg">
<mask id="path-1-outside-1_187_386" maskUnits="userSpaceOnUse" x="381" y="106" width="856" height="147" fill="black">
<rect fill="white" x="381" y="106" width="856" height="147"/>
<path d="M468.21 124.66C469.343 122.62 470.987 121.26 473.14 120.58C475.293 119.9 477.957 119.56 481.13 119.56C484.417 119.56 487.023 119.843 488.95 120.41C490.99 120.977 492.463 121.657 493.37 122.45C494.39 123.243 495.127 124.433 495.58 126.02C496.26 127.833 496.6 130.723 496.6 134.69V229.04C496.6 231.76 496.487 233.743 496.26 234.99C496.147 236.237 495.637 237.71 494.73 239.41C493.143 242.47 488.723 244 481.47 244C477.05 244 473.99 243.66 472.29 242.98C470.59 242.3 469.173 241.223 468.04 239.75C442.54 205.75 425.767 183.537 417.72 173.11V229.04C417.72 231.76 417.607 233.743 417.38 234.99C417.267 236.237 416.757 237.71 415.85 239.41C414.263 242.47 409.843 244 402.59 244C395.563 244 391.257 242.47 389.67 239.41C388.763 237.71 388.197 236.18 387.97 234.82C387.857 233.46 387.8 231.477 387.8 228.87V134.01C387.8 129.703 388.31 126.587 389.33 124.66C390.463 122.62 392.107 121.26 394.26 120.58C396.413 119.9 399.19 119.56 402.59 119.56C405.99 119.56 408.653 119.9 410.58 120.58C412.62 121.147 414.037 121.827 414.83 122.62C415.283 122.96 416.587 124.433 418.74 127.04C442.653 159.567 458.633 181.043 466.68 191.47V134.01C466.68 129.703 467.19 126.587 468.21 124.66ZM513.554 169.37C513.554 166.763 513.61 164.837 513.724 163.59C513.95 162.23 514.46 160.7 515.254 159C516.84 156.053 521.26 154.58 528.514 154.58C533.954 154.58 537.807 155.543 540.074 157.47C542 159.057 543.02 161.493 543.134 164.78C543.247 165.913 543.304 167.557 543.304 169.71V229.21C543.304 231.817 543.19 233.8 542.964 235.16C542.85 236.407 542.34 237.88 541.434 239.58C539.96 242.527 535.597 244 528.344 244C521.204 244 516.84 242.47 515.254 239.41C514.46 237.71 513.95 236.237 513.724 234.99C513.61 233.743 513.554 231.76 513.554 229.04V169.37ZM541.434 137.92C540.64 139.507 539.167 140.64 537.014 141.32C534.86 142 531.97 142.34 528.344 142.34C524.83 142.34 521.997 142 519.844 141.32C517.69 140.64 516.16 139.45 515.254 137.75C514.46 136.05 513.95 134.577 513.724 133.33C513.61 131.97 513.554 129.987 513.554 127.38C513.554 124.773 513.61 122.847 513.724 121.6C513.95 120.24 514.46 118.767 515.254 117.18C516.84 114.12 521.26 112.59 528.514 112.59C535.654 112.59 539.96 114.12 541.434 117.18C542.34 118.88 542.85 120.41 542.964 121.77C543.19 123.017 543.304 124.943 543.304 127.55C543.304 130.157 543.19 132.14 542.964 133.5C542.85 134.747 542.34 136.22 541.434 137.92ZM610.094 154.41C621.427 154.41 630.834 158.773 638.314 167.5C645.907 176.113 649.704 186.653 649.704 199.12V229.04C649.704 231.647 649.59 233.63 649.364 234.99C649.25 236.237 648.797 237.653 648.004 239.24C646.417 242.3 641.997 243.83 634.744 243.83C626.697 243.83 622.05 241.733 620.804 237.54C620.124 235.613 619.784 232.723 619.784 228.87V198.95C619.784 194.303 618.424 190.677 615.704 188.07C613.097 185.463 609.527 184.16 604.994 184.16C600.574 184.16 596.947 185.52 594.114 188.24C591.394 190.96 590.034 194.53 590.034 198.95V229.04C590.034 231.647 589.92 233.63 589.694 234.99C589.58 236.237 589.07 237.653 588.164 239.24C586.69 242.3 582.327 243.83 575.074 243.83C567.934 243.83 563.57 242.3 561.984 239.24C561.19 237.54 560.68 236.067 560.454 234.82C560.34 233.46 560.284 231.477 560.284 228.87V168.69C560.284 166.197 560.34 164.327 560.454 163.08C560.68 161.72 561.247 160.247 562.154 158.66C563.74 155.827 568.104 154.41 575.244 154.41C582.157 154.41 586.407 155.713 587.994 158.32C589.127 160.247 589.694 162.57 589.694 165.29C590.147 164.497 591.167 163.363 592.754 161.89C594.34 160.417 595.87 159.227 597.344 158.32C601.197 155.713 605.447 154.41 610.094 154.41ZM710.469 112.42L714.379 113.27C724.919 116.67 732.513 119.163 737.159 120.75C741.919 122.337 744.299 125.113 744.299 129.08C744.299 131.233 743.676 133.5 742.429 135.88C739.369 141.887 735.969 144.89 732.229 144.89C731.209 144.89 729.396 144.493 726.789 143.7L710.469 136.56L694.659 143.36C693.073 144.153 691.146 144.55 688.879 144.55C684.573 144.55 681.059 141.66 678.339 135.88C676.979 132.933 676.299 130.553 676.299 128.74C676.299 125.113 678.453 122.563 682.759 121.09L706.389 113.27L710.469 112.42ZM753.139 188.58C753.139 195.493 751.383 200.65 747.869 204.05C744.469 207.337 740.673 208.98 736.479 208.98H696.189C696.189 212.153 698.059 214.817 701.799 216.97C705.539 219.123 709.279 220.2 713.019 220.2C719.593 220.2 724.749 219.52 728.489 218.16L730.359 217.48C733.079 216.233 735.346 215.61 737.159 215.61C740.786 215.61 743.903 218.16 746.509 223.26C747.983 226.32 748.719 228.927 748.719 231.08C748.719 241.167 736.649 246.21 712.509 246.21C704.123 246.21 696.643 244.793 690.069 241.96C683.609 239.013 678.566 235.16 674.939 230.4C667.799 221.22 664.229 210.963 664.229 199.63C664.229 185.35 668.819 173.96 677.999 165.46C687.293 156.847 698.853 152.54 712.679 152.54C728.433 152.54 739.993 158.093 747.359 169.2C751.213 175.093 753.139 181.553 753.139 188.58ZM717.269 193.51C721.576 193.51 723.729 191.697 723.729 188.07C723.729 185.463 722.709 183.367 720.669 181.78C718.743 180.193 715.909 179.4 712.169 179.4C708.543 179.4 704.916 180.93 701.289 183.99C697.663 186.937 695.849 190.11 695.849 193.51H717.269ZM917.049 244.17C907.189 244.17 897.442 241.62 887.809 236.52C877.042 242.413 866.162 245.36 855.169 245.36C826.042 245.36 811.479 233.233 811.479 208.98C811.479 196.4 817.995 184.727 831.029 173.96C826.495 163.873 824.229 154.75 824.229 146.59C824.229 135.257 827.629 126.87 834.429 121.43C841.229 115.99 850.352 113.27 861.799 113.27C873.245 113.27 881.915 115.99 887.809 121.43C893.702 126.87 896.649 134.293 896.649 143.7C896.649 151.633 893.419 158.773 886.959 165.12C882.199 169.88 875.512 175.15 866.899 180.93C873.585 189.77 880.839 197.25 888.659 203.37C891.832 198.497 894.042 193.51 895.289 188.41C896.422 183.423 901.522 180.93 910.589 180.93C914.442 180.93 917.332 181.44 919.259 182.46C921.299 183.48 922.432 184.557 922.659 185.69C922.999 186.71 923.112 188.07 922.999 189.77C922.545 198.383 919.032 206.94 912.459 215.44C914.159 215.78 915.745 215.95 917.219 215.95C926.059 215.95 930.479 220.427 930.479 229.38C930.479 235.613 929.459 239.637 927.419 241.45C925.379 243.263 921.922 244.17 917.049 244.17ZM851.089 144.55C851.089 148.63 852.052 153.22 853.979 158.32C859.305 154.92 863.272 152.087 865.879 149.82C868.599 147.553 869.959 145.4 869.959 143.36C869.959 138.373 867.182 135.88 861.629 135.88C854.602 135.88 851.089 138.77 851.089 144.55ZM856.359 220.2C859.192 220.2 861.742 219.973 864.009 219.52C857.435 213.627 851.202 206.6 845.309 198.44C842.702 201.727 841.399 205.127 841.399 208.64C841.399 216.347 846.385 220.2 856.359 220.2ZM1068.85 211.36L1071.91 209.15C1075.77 206.883 1078.49 205.75 1080.07 205.75C1083.59 205.75 1087.38 208.923 1091.46 215.27C1093.96 219.237 1095.2 222.41 1095.2 224.79C1095.2 227.17 1094.41 229.153 1092.82 230.74C1091.35 232.327 1089.59 233.743 1087.55 234.99C1085.51 236.237 1083.53 237.427 1081.6 238.56C1079.79 239.693 1075.99 241.167 1070.21 242.98C1064.43 244.793 1058.82 245.7 1053.38 245.7C1048.06 245.7 1042.62 245.02 1037.06 243.66C1031.62 242.187 1025.96 239.807 1020.06 236.52C1014.28 233.12 1009.07 229.04 1004.42 224.28C999.778 219.407 995.925 213.23 992.865 205.75C989.918 198.157 988.445 189.94 988.445 181.1C988.445 172.26 989.918 164.27 992.865 157.13C995.811 149.877 999.551 143.927 1004.08 139.28C1008.73 134.52 1014 130.553 1019.89 127.38C1031 121.26 1042.16 118.2 1053.38 118.2C1058.71 118.2 1064.09 119.05 1069.53 120.75C1075.09 122.337 1079.28 123.98 1082.11 125.68L1086.19 128.06C1088.23 129.307 1089.82 130.327 1090.95 131.12C1093.9 133.5 1095.37 136.22 1095.37 139.28C1095.37 142.227 1094.18 145.343 1091.8 148.63C1087.38 154.75 1083.42 157.81 1079.9 157.81C1077.86 157.81 1074.97 156.563 1071.23 154.07C1066.47 150.217 1060.13 148.29 1052.19 148.29C1044.83 148.29 1037.57 150.84 1030.43 155.94C1027.03 158.433 1024.2 161.947 1021.93 166.48C1019.67 171.013 1018.53 176.17 1018.53 181.95C1018.53 187.617 1019.67 192.717 1021.93 197.25C1024.2 201.783 1027.09 205.353 1030.6 207.96C1037.52 212.947 1044.71 215.44 1052.19 215.44C1055.71 215.44 1058.99 214.987 1062.05 214.08C1065.23 213.173 1067.49 212.267 1068.85 211.36ZM1168.26 117.86C1185.03 117.86 1199.59 123.923 1211.95 136.05C1224.3 148.177 1230.48 163.25 1230.48 181.27C1230.48 199.177 1224.58 214.477 1212.8 227.17C1201.01 239.75 1186.5 246.04 1169.28 246.04C1152.05 246.04 1137.37 239.807 1125.25 227.34C1113.23 214.873 1107.23 200.027 1107.23 182.8C1107.23 173.393 1108.93 164.61 1112.33 156.45C1115.73 148.177 1120.26 141.263 1125.93 135.71C1131.59 130.157 1138.11 125.793 1145.48 122.62C1152.84 119.447 1160.44 117.86 1168.26 117.86ZM1137.32 181.95C1137.32 192.037 1140.55 200.253 1147.01 206.6C1153.58 212.833 1160.89 215.95 1168.94 215.95C1176.98 215.95 1184.24 212.89 1190.7 206.77C1197.16 200.65 1200.39 192.433 1200.39 182.12C1200.39 171.807 1197.1 163.533 1190.53 157.3C1184.07 151.067 1176.81 147.95 1168.77 147.95C1160.72 147.95 1153.47 151.123 1147.01 157.47C1140.55 163.703 1137.32 171.863 1137.32 181.95Z"/>
</mask>
<path d="M468.21 124.66C469.343 122.62 470.987 121.26 473.14 120.58C475.293 119.9 477.957 119.56 481.13 119.56C484.417 119.56 487.023 119.843 488.95 120.41C490.99 120.977 492.463 121.657 493.37 122.45C494.39 123.243 495.127 124.433 495.58 126.02C496.26 127.833 496.6 130.723 496.6 134.69V229.04C496.6 231.76 496.487 233.743 496.26 234.99C496.147 236.237 495.637 237.71 494.73 239.41C493.143 242.47 488.723 244 481.47 244C477.05 244 473.99 243.66 472.29 242.98C470.59 242.3 469.173 241.223 468.04 239.75C442.54 205.75 425.767 183.537 417.72 173.11V229.04C417.72 231.76 417.607 233.743 417.38 234.99C417.267 236.237 416.757 237.71 415.85 239.41C414.263 242.47 409.843 244 402.59 244C395.563 244 391.257 242.47 389.67 239.41C388.763 237.71 388.197 236.18 387.97 234.82C387.857 233.46 387.8 231.477 387.8 228.87V134.01C387.8 129.703 388.31 126.587 389.33 124.66C390.463 122.62 392.107 121.26 394.26 120.58C396.413 119.9 399.19 119.56 402.59 119.56C405.99 119.56 408.653 119.9 410.58 120.58C412.62 121.147 414.037 121.827 414.83 122.62C415.283 122.96 416.587 124.433 418.74 127.04C442.653 159.567 458.633 181.043 466.68 191.47V134.01C466.68 129.703 467.19 126.587 468.21 124.66ZM513.554 169.37C513.554 166.763 513.61 164.837 513.724 163.59C513.95 162.23 514.46 160.7 515.254 159C516.84 156.053 521.26 154.58 528.514 154.58C533.954 154.58 537.807 155.543 540.074 157.47C542 159.057 543.02 161.493 543.134 164.78C543.247 165.913 543.304 167.557 543.304 169.71V229.21C543.304 231.817 543.19 233.8 542.964 235.16C542.85 236.407 542.34 237.88 541.434 239.58C539.96 242.527 535.597 244 528.344 244C521.204 244 516.84 242.47 515.254 239.41C514.46 237.71 513.95 236.237 513.724 234.99C513.61 233.743 513.554 231.76 513.554 229.04V169.37ZM541.434 137.92C540.64 139.507 539.167 140.64 537.014 141.32C534.86 142 531.97 142.34 528.344 142.34C524.83 142.34 521.997 142 519.844 141.32C517.69 140.64 516.16 139.45 515.254 137.75C514.46 136.05 513.95 134.577 513.724 133.33C513.61 131.97 513.554 129.987 513.554 127.38C513.554 124.773 513.61 122.847 513.724 121.6C513.95 120.24 514.46 118.767 515.254 117.18C516.84 114.12 521.26 112.59 528.514 112.59C535.654 112.59 539.96 114.12 541.434 117.18C542.34 118.88 542.85 120.41 542.964 121.77C543.19 123.017 543.304 124.943 543.304 127.55C543.304 130.157 543.19 132.14 542.964 133.5C542.85 134.747 542.34 136.22 541.434 137.92ZM610.094 154.41C621.427 154.41 630.834 158.773 638.314 167.5C645.907 176.113 649.704 186.653 649.704 199.12V229.04C649.704 231.647 649.59 233.63 649.364 234.99C649.25 236.237 648.797 237.653 648.004 239.24C646.417 242.3 641.997 243.83 634.744 243.83C626.697 243.83 622.05 241.733 620.804 237.54C620.124 235.613 619.784 232.723 619.784 228.87V198.95C619.784 194.303 618.424 190.677 615.704 188.07C613.097 185.463 609.527 184.16 604.994 184.16C600.574 184.16 596.947 185.52 594.114 188.24C591.394 190.96 590.034 194.53 590.034 198.95V229.04C590.034 231.647 589.92 233.63 589.694 234.99C589.58 236.237 589.07 237.653 588.164 239.24C586.69 242.3 582.327 243.83 575.074 243.83C567.934 243.83 563.57 242.3 561.984 239.24C561.19 237.54 560.68 236.067 560.454 234.82C560.34 233.46 560.284 231.477 560.284 228.87V168.69C560.284 166.197 560.34 164.327 560.454 163.08C560.68 161.72 561.247 160.247 562.154 158.66C563.74 155.827 568.104 154.41 575.244 154.41C582.157 154.41 586.407 155.713 587.994 158.32C589.127 160.247 589.694 162.57 589.694 165.29C590.147 164.497 591.167 163.363 592.754 161.89C594.34 160.417 595.87 159.227 597.344 158.32C601.197 155.713 605.447 154.41 610.094 154.41ZM710.469 112.42L714.379 113.27C724.919 116.67 732.513 119.163 737.159 120.75C741.919 122.337 744.299 125.113 744.299 129.08C744.299 131.233 743.676 133.5 742.429 135.88C739.369 141.887 735.969 144.89 732.229 144.89C731.209 144.89 729.396 144.493 726.789 143.7L710.469 136.56L694.659 143.36C693.073 144.153 691.146 144.55 688.879 144.55C684.573 144.55 681.059 141.66 678.339 135.88C676.979 132.933 676.299 130.553 676.299 128.74C676.299 125.113 678.453 122.563 682.759 121.09L706.389 113.27L710.469 112.42ZM753.139 188.58C753.139 195.493 751.383 200.65 747.869 204.05C744.469 207.337 740.673 208.98 736.479 208.98H696.189C696.189 212.153 698.059 214.817 701.799 216.97C705.539 219.123 709.279 220.2 713.019 220.2C719.593 220.2 724.749 219.52 728.489 218.16L730.359 217.48C733.079 216.233 735.346 215.61 737.159 215.61C740.786 215.61 743.903 218.16 746.509 223.26C747.983 226.32 748.719 228.927 748.719 231.08C748.719 241.167 736.649 246.21 712.509 246.21C704.123 246.21 696.643 244.793 690.069 241.96C683.609 239.013 678.566 235.16 674.939 230.4C667.799 221.22 664.229 210.963 664.229 199.63C664.229 185.35 668.819 173.96 677.999 165.46C687.293 156.847 698.853 152.54 712.679 152.54C728.433 152.54 739.993 158.093 747.359 169.2C751.213 175.093 753.139 181.553 753.139 188.58ZM717.269 193.51C721.576 193.51 723.729 191.697 723.729 188.07C723.729 185.463 722.709 183.367 720.669 181.78C718.743 180.193 715.909 179.4 712.169 179.4C708.543 179.4 704.916 180.93 701.289 183.99C697.663 186.937 695.849 190.11 695.849 193.51H717.269ZM917.049 244.17C907.189 244.17 897.442 241.62 887.809 236.52C877.042 242.413 866.162 245.36 855.169 245.36C826.042 245.36 811.479 233.233 811.479 208.98C811.479 196.4 817.995 184.727 831.029 173.96C826.495 163.873 824.229 154.75 824.229 146.59C824.229 135.257 827.629 126.87 834.429 121.43C841.229 115.99 850.352 113.27 861.799 113.27C873.245 113.27 881.915 115.99 887.809 121.43C893.702 126.87 896.649 134.293 896.649 143.7C896.649 151.633 893.419 158.773 886.959 165.12C882.199 169.88 875.512 175.15 866.899 180.93C873.585 189.77 880.839 197.25 888.659 203.37C891.832 198.497 894.042 193.51 895.289 188.41C896.422 183.423 901.522 180.93 910.589 180.93C914.442 180.93 917.332 181.44 919.259 182.46C921.299 183.48 922.432 184.557 922.659 185.69C922.999 186.71 923.112 188.07 922.999 189.77C922.545 198.383 919.032 206.94 912.459 215.44C914.159 215.78 915.745 215.95 917.219 215.95C926.059 215.95 930.479 220.427 930.479 229.38C930.479 235.613 929.459 239.637 927.419 241.45C925.379 243.263 921.922 244.17 917.049 244.17ZM851.089 144.55C851.089 148.63 852.052 153.22 853.979 158.32C859.305 154.92 863.272 152.087 865.879 149.82C868.599 147.553 869.959 145.4 869.959 143.36C869.959 138.373 867.182 135.88 861.629 135.88C854.602 135.88 851.089 138.77 851.089 144.55ZM856.359 220.2C859.192 220.2 861.742 219.973 864.009 219.52C857.435 213.627 851.202 206.6 845.309 198.44C842.702 201.727 841.399 205.127 841.399 208.64C841.399 216.347 846.385 220.2 856.359 220.2ZM1068.85 211.36L1071.91 209.15C1075.77 206.883 1078.49 205.75 1080.07 205.75C1083.59 205.75 1087.38 208.923 1091.46 215.27C1093.96 219.237 1095.2 222.41 1095.2 224.79C1095.2 227.17 1094.41 229.153 1092.82 230.74C1091.35 232.327 1089.59 233.743 1087.55 234.99C1085.51 236.237 1083.53 237.427 1081.6 238.56C1079.79 239.693 1075.99 241.167 1070.21 242.98C1064.43 244.793 1058.82 245.7 1053.38 245.7C1048.06 245.7 1042.62 245.02 1037.06 243.66C1031.62 242.187 1025.96 239.807 1020.06 236.52C1014.28 233.12 1009.07 229.04 1004.42 224.28C999.778 219.407 995.925 213.23 992.865 205.75C989.918 198.157 988.445 189.94 988.445 181.1C988.445 172.26 989.918 164.27 992.865 157.13C995.811 149.877 999.551 143.927 1004.08 139.28C1008.73 134.52 1014 130.553 1019.89 127.38C1031 121.26 1042.16 118.2 1053.38 118.2C1058.71 118.2 1064.09 119.05 1069.53 120.75C1075.09 122.337 1079.28 123.98 1082.11 125.68L1086.19 128.06C1088.23 129.307 1089.82 130.327 1090.95 131.12C1093.9 133.5 1095.37 136.22 1095.37 139.28C1095.37 142.227 1094.18 145.343 1091.8 148.63C1087.38 154.75 1083.42 157.81 1079.9 157.81C1077.86 157.81 1074.97 156.563 1071.23 154.07C1066.47 150.217 1060.13 148.29 1052.19 148.29C1044.83 148.29 1037.57 150.84 1030.43 155.94C1027.03 158.433 1024.2 161.947 1021.93 166.48C1019.67 171.013 1018.53 176.17 1018.53 181.95C1018.53 187.617 1019.67 192.717 1021.93 197.25C1024.2 201.783 1027.09 205.353 1030.6 207.96C1037.52 212.947 1044.71 215.44 1052.19 215.44C1055.71 215.44 1058.99 214.987 1062.05 214.08C1065.23 213.173 1067.49 212.267 1068.85 211.36ZM1168.26 117.86C1185.03 117.86 1199.59 123.923 1211.95 136.05C1224.3 148.177 1230.48 163.25 1230.48 181.27C1230.48 199.177 1224.58 214.477 1212.8 227.17C1201.01 239.75 1186.5 246.04 1169.28 246.04C1152.05 246.04 1137.37 239.807 1125.25 227.34C1113.23 214.873 1107.23 200.027 1107.23 182.8C1107.23 173.393 1108.93 164.61 1112.33 156.45C1115.73 148.177 1120.26 141.263 1125.93 135.71C1131.59 130.157 1138.11 125.793 1145.48 122.62C1152.84 119.447 1160.44 117.86 1168.26 117.86ZM1137.32 181.95C1137.32 192.037 1140.55 200.253 1147.01 206.6C1153.58 212.833 1160.89 215.95 1168.94 215.95C1176.98 215.95 1184.24 212.89 1190.7 206.77C1197.16 200.65 1200.39 192.433 1200.39 182.12C1200.39 171.807 1197.1 163.533 1190.53 157.3C1184.07 151.067 1176.81 147.95 1168.77 147.95C1160.72 147.95 1153.47 151.123 1147.01 157.47C1140.55 163.703 1137.32 171.863 1137.32 181.95Z" fill="#709CB2"/>
<path d="M468.21 124.66L462.965 121.746L462.936 121.799L462.907 121.853L468.21 124.66ZM473.14 120.58L474.947 126.301L474.947 126.301L473.14 120.58ZM488.95 120.41L487.257 126.166L487.3 126.179L487.344 126.191L488.95 120.41ZM493.37 122.45L489.419 126.965L489.549 127.08L489.686 127.186L493.37 122.45ZM495.58 126.02L489.811 127.668L489.877 127.901L489.962 128.127L495.58 126.02ZM496.26 234.99L490.357 233.917L490.309 234.18L490.285 234.447L496.26 234.99ZM494.73 239.41L489.436 236.586L489.42 236.617L489.403 236.648L494.73 239.41ZM472.29 242.98L470.062 248.551H470.062L472.29 242.98ZM468.04 239.75L463.24 243.35L463.262 243.379L463.284 243.408L468.04 239.75ZM417.72 173.11L422.47 169.444L411.72 155.515V173.11H417.72ZM417.38 234.99L411.477 233.917L411.429 234.18L411.405 234.447L417.38 234.99ZM415.85 239.41L410.556 236.586L410.54 236.617L410.523 236.648L415.85 239.41ZM389.67 239.41L394.997 236.648L394.981 236.617L394.964 236.586L389.67 239.41ZM387.97 234.82L381.991 235.318L382.011 235.564L382.052 235.806L387.97 234.82ZM389.33 124.66L384.085 121.746L384.056 121.799L384.027 121.853L389.33 124.66ZM394.26 120.58L396.067 126.301L396.067 126.301L394.26 120.58ZM410.58 120.58L408.583 126.238L408.776 126.306L408.974 126.361L410.58 120.58ZM414.83 122.62L410.587 126.863L410.889 127.164L411.23 127.42L414.83 122.62ZM418.74 127.04L423.574 123.486L423.474 123.349L423.366 123.219L418.74 127.04ZM466.68 191.47L461.93 195.136L472.68 209.065V191.47H466.68ZM468.21 124.66L473.455 127.574C473.871 126.825 474.31 126.503 474.947 126.301L473.14 120.58L471.333 114.859C467.664 116.017 464.816 118.415 462.965 121.746L468.21 124.66ZM473.14 120.58L474.947 126.301C476.332 125.864 478.342 125.56 481.13 125.56V119.56V113.56C477.572 113.56 474.255 113.936 471.333 114.859L473.14 120.58ZM481.13 119.56V125.56C484.158 125.56 486.117 125.831 487.257 126.166L488.95 120.41L490.643 114.654C487.93 113.856 484.675 113.56 481.13 113.56V119.56ZM488.95 120.41L487.344 126.191C488.141 126.412 488.7 126.622 489.071 126.793C489.454 126.97 489.518 127.052 489.419 126.965L493.37 122.45L497.321 117.935C495.405 116.258 492.901 115.28 490.556 114.629L488.95 120.41ZM493.37 122.45L489.686 127.186C489.589 127.11 489.561 127.056 489.586 127.096C489.617 127.145 489.71 127.314 489.811 127.668L495.58 126.02L501.349 124.372C500.643 121.901 499.327 119.482 497.054 117.714L493.37 122.45ZM495.58 126.02L489.962 128.127C490.242 128.874 490.6 130.85 490.6 134.69H496.6H502.6C502.6 130.597 502.278 126.793 501.198 123.913L495.58 126.02ZM496.6 134.69H490.6V229.04H496.6H502.6V134.69H496.6ZM496.6 229.04H490.6C490.6 231.712 490.48 233.236 490.357 233.917L496.26 234.99L502.163 236.063C502.493 234.25 502.6 231.808 502.6 229.04H496.6ZM496.26 234.99L490.285 234.447C490.272 234.584 490.148 235.252 489.436 236.586L494.73 239.41L500.024 242.234C501.125 240.168 502.021 237.89 502.235 235.533L496.26 234.99ZM494.73 239.41L489.403 236.648C489.539 236.387 489.548 236.738 488.262 237.183C486.932 237.643 484.755 238 481.47 238V244V250C485.439 250 489.098 249.592 492.188 248.522C495.322 247.437 498.335 245.493 500.057 242.172L494.73 239.41ZM481.47 244V238C477.032 238 475.033 237.615 474.518 237.409L472.29 242.98L470.062 248.551C472.947 249.705 477.068 250 481.47 250V244ZM472.29 242.98L474.518 237.409C473.833 237.135 473.284 236.726 472.796 236.092L468.04 239.75L463.284 243.408C465.063 245.721 467.347 247.465 470.062 248.551L472.29 242.98ZM468.04 239.75L472.84 236.15C447.345 202.157 430.547 179.91 422.47 169.444L417.72 173.11L412.97 176.776C420.987 187.164 437.735 209.343 463.24 243.35L468.04 239.75ZM417.72 173.11H411.72V229.04H417.72H423.72V173.11H417.72ZM417.72 229.04H411.72C411.72 231.712 411.6 233.236 411.477 233.917L417.38 234.99L423.283 236.063C423.613 234.25 423.72 231.808 423.72 229.04H417.72ZM417.38 234.99L411.405 234.447C411.392 234.584 411.268 235.252 410.556 236.586L415.85 239.41L421.144 242.234C422.245 240.168 423.141 237.89 423.355 235.533L417.38 234.99ZM415.85 239.41L410.523 236.648C410.659 236.387 410.668 236.738 409.382 237.183C408.052 237.643 405.875 238 402.59 238V244V250C406.559 250 410.218 249.592 413.308 248.522C416.442 247.437 419.455 245.493 421.177 242.172L415.85 239.41ZM402.59 244V238C399.434 238 397.358 237.646 396.099 237.199C394.899 236.773 394.887 236.437 394.997 236.648L389.67 239.41L384.343 242.172C386.04 245.443 388.974 247.402 392.081 248.506C395.129 249.589 398.72 250 402.59 250V244ZM389.67 239.41L394.964 236.586C394.252 235.251 393.975 234.352 393.888 233.834L387.97 234.82L382.052 235.806C382.419 238.008 383.275 240.169 384.376 242.234L389.67 239.41ZM387.97 234.82L393.949 234.322C393.857 233.215 393.8 231.431 393.8 228.87H387.8H381.8C381.8 231.523 381.856 233.705 381.991 235.318L387.97 234.82ZM387.8 228.87H393.8V134.01H387.8H381.8V228.87H387.8ZM387.8 134.01H393.8C393.8 129.903 394.332 128.035 394.633 127.467L389.33 124.66L384.027 121.853C382.288 125.139 381.8 129.503 381.8 134.01H387.8ZM389.33 124.66L394.575 127.574C394.991 126.825 395.43 126.503 396.067 126.301L394.26 120.58L392.453 114.859C388.784 116.017 385.936 118.415 384.085 121.746L389.33 124.66ZM394.26 120.58L396.067 126.301C397.42 125.874 399.526 125.56 402.59 125.56V119.56V113.56C398.854 113.56 395.407 113.926 392.453 114.859L394.26 120.58ZM402.59 119.56V125.56C405.699 125.56 407.584 125.885 408.583 126.238L410.58 120.58L412.577 114.922C409.723 113.915 406.281 113.56 402.59 113.56V119.56ZM410.58 120.58L408.974 126.361C409.763 126.58 410.274 126.779 410.576 126.924C410.899 127.079 410.819 127.095 410.587 126.863L414.83 122.62L419.073 118.377C417.149 116.453 414.482 115.437 412.186 114.799L410.58 120.58ZM414.83 122.62L411.23 127.42C410.935 127.198 410.82 127.056 411.02 127.262C411.152 127.399 411.359 127.622 411.654 127.955C412.24 128.618 413.055 129.579 414.114 130.861L418.74 127.04L423.366 123.219C422.272 121.894 421.359 120.815 420.641 120.005C420.103 119.396 419.244 118.43 418.43 117.82L414.83 122.62ZM418.74 127.04L413.906 130.594C437.812 163.11 453.833 184.644 461.93 195.136L466.68 191.47L471.43 187.804C463.433 177.442 447.495 156.023 423.574 123.486L418.74 127.04ZM466.68 191.47H472.68V134.01H466.68H460.68V191.47H466.68ZM466.68 134.01H472.68C472.68 129.903 473.212 128.035 473.513 127.467L468.21 124.66L462.907 121.853C461.168 125.139 460.68 129.503 460.68 134.01H466.68ZM513.724 163.59L507.805 162.604L507.768 162.824L507.748 163.047L513.724 163.59ZM515.254 159L509.971 156.155L509.889 156.307L509.816 156.463L515.254 159ZM540.074 157.47L536.188 162.042L536.223 162.072L536.259 162.102L540.074 157.47ZM543.134 164.78L537.137 164.987L537.144 165.182L537.163 165.377L543.134 164.78ZM542.964 235.16L537.045 234.174L537.008 234.394L536.988 234.617L542.964 235.16ZM541.434 239.58L536.139 236.756L536.102 236.826L536.067 236.897L541.434 239.58ZM515.254 239.41L509.816 241.947L509.869 242.061L509.927 242.172L515.254 239.41ZM513.724 234.99L507.748 235.533L507.772 235.8L507.82 236.063L513.724 234.99ZM541.434 137.92L536.139 135.096L536.102 135.166L536.067 135.237L541.434 137.92ZM537.014 141.32L535.207 135.598H535.207L537.014 141.32ZM519.844 141.32L521.65 135.598V135.598L519.844 141.32ZM515.254 137.75L509.816 140.287L509.884 140.432L509.959 140.574L515.254 137.75ZM513.724 133.33L507.744 133.828L507.768 134.118L507.82 134.403L513.724 133.33ZM513.724 121.6L507.805 120.614L507.768 120.834L507.748 121.057L513.724 121.6ZM515.254 117.18L509.927 114.418L509.907 114.457L509.887 114.497L515.254 117.18ZM541.434 117.18L536.028 119.783L536.081 119.894L536.139 120.004L541.434 117.18ZM542.964 121.77L536.984 122.268L537.008 122.558L537.06 122.843L542.964 121.77ZM542.964 133.5L537.045 132.514L537.008 132.734L536.988 132.957L542.964 133.5ZM513.554 169.37H519.554C519.554 166.795 519.611 165.095 519.699 164.133L513.724 163.59L507.748 163.047C507.609 164.579 507.554 166.732 507.554 169.37H513.554ZM513.724 163.59L519.642 164.576C519.754 163.906 520.051 162.909 520.691 161.537L515.254 159L509.816 156.463C508.87 158.491 508.147 160.554 507.805 162.604L513.724 163.59ZM515.254 159L520.536 161.845C520.362 162.168 520.323 161.821 521.656 161.377C523.012 160.925 525.214 160.58 528.514 160.58V154.58V148.58C524.559 148.58 520.925 148.972 517.861 149.993C514.774 151.022 511.732 152.885 509.971 156.155L515.254 159ZM528.514 154.58V160.58C533.576 160.58 535.6 161.542 536.188 162.042L540.074 157.47L543.959 152.898C540.014 149.545 534.331 148.58 528.514 148.58V154.58ZM540.074 157.47L536.259 162.102C536.468 162.274 537.063 162.842 537.137 164.987L543.134 164.78L549.13 164.573C548.977 160.145 547.532 155.84 543.888 152.838L540.074 157.47ZM543.134 164.78L537.163 165.377C537.246 166.208 537.304 167.614 537.304 169.71H543.304H549.304C549.304 167.499 549.247 165.618 549.104 164.183L543.134 164.78ZM543.304 169.71H537.304V229.21H543.304H549.304V169.71H543.304ZM543.304 229.21H537.304C537.304 231.722 537.189 233.31 537.045 234.174L542.964 235.16L548.882 236.146C549.191 234.29 549.304 231.911 549.304 229.21H543.304ZM542.964 235.16L536.988 234.617C536.976 234.754 536.851 235.422 536.139 236.756L541.434 239.58L546.728 242.404C547.829 240.338 548.725 238.06 548.939 235.703L542.964 235.16ZM541.434 239.58L536.067 236.897C536.28 236.47 536.424 236.776 535.137 237.21C533.823 237.654 531.648 238 528.344 238V244V250C532.293 250 535.925 249.61 538.976 248.58C542.052 247.541 545.113 245.637 546.8 242.263L541.434 239.58ZM528.344 244V238C525.123 238 522.996 237.645 521.701 237.19C520.459 236.755 520.458 236.412 520.58 236.648L515.254 239.41L509.927 242.172C511.636 245.468 514.61 247.42 517.731 248.514C520.799 249.59 524.424 250 528.344 250V244ZM515.254 239.41L520.691 236.873C520.021 235.438 519.729 234.478 519.627 233.917L513.724 234.99L507.82 236.063C508.172 237.995 508.899 239.982 509.816 241.947L515.254 239.41ZM513.724 234.99L519.699 234.447C519.612 233.49 519.554 231.738 519.554 229.04H513.554H507.554C507.554 231.782 507.608 233.997 507.748 235.533L513.724 234.99ZM513.554 229.04H519.554V169.37H513.554H507.554V229.04H513.554ZM541.434 137.92L536.067 135.237C536.095 135.18 536.129 135.163 536.075 135.204C536 135.262 535.754 135.426 535.207 135.598L537.014 141.32L538.82 147.041C542.076 146.013 545.095 144.014 546.8 140.603L541.434 137.92ZM537.014 141.32L535.207 135.598C533.882 136.017 531.681 136.34 528.344 136.34V142.34V148.34C532.259 148.34 535.838 147.983 538.82 147.041L537.014 141.32ZM528.344 142.34V136.34C525.142 136.34 522.989 136.021 521.65 135.598L519.844 141.32L518.037 147.041C521.005 147.979 524.518 148.34 528.344 148.34V142.34ZM519.844 141.32L521.65 135.598C520.717 135.304 520.589 135.005 520.548 134.926L515.254 137.75L509.959 140.574C511.731 143.895 514.663 145.976 518.037 147.041L519.844 141.32ZM515.254 137.75L520.691 135.213C520.021 133.778 519.729 132.818 519.627 132.257L513.724 133.33L507.82 134.403C508.172 136.335 508.899 138.322 509.816 140.287L515.254 137.75ZM513.724 133.33L519.703 132.832C519.611 131.725 519.554 129.941 519.554 127.38H513.554H507.554C507.554 130.033 507.61 132.215 507.744 133.828L513.724 133.33ZM513.554 127.38H519.554C519.554 124.805 519.611 123.105 519.699 122.143L513.724 121.6L507.748 121.057C507.609 122.589 507.554 124.742 507.554 127.38H513.554ZM513.724 121.6L519.642 122.586C519.747 121.957 520.022 121.06 520.62 119.863L515.254 117.18L509.887 114.497C508.899 116.473 508.154 118.523 507.805 120.614L513.724 121.6ZM515.254 117.18L520.58 119.942C520.445 120.203 520.436 119.852 521.721 119.407C523.052 118.947 525.229 118.59 528.514 118.59V112.59V106.59C524.545 106.59 520.885 106.998 517.796 108.068C514.662 109.153 511.649 111.097 509.927 114.418L515.254 117.18ZM528.514 112.59V118.59C531.74 118.59 533.839 118.947 535.09 119.391C536.283 119.815 536.187 120.115 536.028 119.783L541.434 117.18L546.84 114.577C545.206 111.185 542.221 109.19 539.107 108.084C536.051 106.998 532.427 106.59 528.514 106.59V112.59ZM541.434 117.18L536.139 120.004C536.809 121.258 536.961 121.984 536.984 122.268L542.964 121.77L548.943 121.272C548.74 118.836 547.872 116.502 546.728 114.356L541.434 117.18ZM542.964 121.77L537.06 122.843C537.186 123.532 537.304 125.01 537.304 127.55H543.304H549.304C549.304 124.877 549.195 122.501 548.867 120.697L542.964 121.77ZM543.304 127.55H537.304C537.304 130.062 537.189 131.65 537.045 132.514L542.964 133.5L548.882 134.486C549.191 132.63 549.304 130.251 549.304 127.55H543.304ZM542.964 133.5L536.988 132.957C536.976 133.094 536.851 133.762 536.139 135.096L541.434 137.92L546.728 140.744C547.829 138.678 548.725 136.4 548.939 134.043L542.964 133.5ZM638.314 167.5L633.758 171.405L633.785 171.436L633.813 171.468L638.314 167.5ZM649.364 234.99L643.445 234.004L643.408 234.224L643.388 234.447L649.364 234.99ZM648.004 239.24L653.33 242.002L653.35 241.963L653.37 241.923L648.004 239.24ZM620.804 237.54L626.555 235.83L626.512 235.685L626.462 235.543L620.804 237.54ZM615.704 188.07L611.461 192.313L611.506 192.358L611.552 192.402L615.704 188.07ZM594.114 188.24L589.958 183.912L589.914 183.954L589.871 183.997L594.114 188.24ZM589.694 234.99L583.775 234.004L583.738 234.224L583.718 234.447L589.694 234.99ZM588.164 239.24L582.954 236.263L582.849 236.447L582.758 236.637L588.164 239.24ZM561.984 239.24L556.546 241.777L556.599 241.891L556.657 242.002L561.984 239.24ZM560.454 234.82L554.474 235.318L554.498 235.608L554.55 235.893L560.454 234.82ZM560.454 163.08L554.535 162.094L554.498 162.314L554.478 162.537L560.454 163.08ZM562.154 158.66L567.363 161.637L567.376 161.614L567.389 161.592L562.154 158.66ZM587.994 158.32L593.165 155.278L593.142 155.239L593.119 155.2L587.994 158.32ZM589.694 165.29H583.694V187.883L594.903 168.267L589.694 165.29ZM592.754 161.89L596.836 166.287V166.287L592.754 161.89ZM597.344 158.32L600.488 163.43L600.598 163.362L600.705 163.29L597.344 158.32ZM610.094 154.41V160.41C619.647 160.41 627.399 163.986 633.758 171.405L638.314 167.5L642.869 163.595C634.268 153.56 623.207 148.41 610.094 148.41V154.41ZM638.314 167.5L633.813 171.468C640.354 178.888 643.704 187.979 643.704 199.12H649.704H655.704C655.704 185.328 651.46 173.339 642.814 163.532L638.314 167.5ZM649.704 199.12H643.704V229.04H649.704H655.704V199.12H649.704ZM649.704 229.04H643.704C643.704 231.552 643.589 233.14 643.445 234.004L649.364 234.99L655.282 235.976C655.591 234.12 655.704 231.741 655.704 229.04H649.704ZM649.364 234.99L643.388 234.447C643.365 234.707 643.224 235.382 642.637 236.557L648.004 239.24L653.37 241.923C654.369 239.925 655.136 237.766 655.339 235.533L649.364 234.99ZM648.004 239.24L642.677 236.478C642.812 236.217 642.822 236.568 641.536 237.013C640.205 237.473 638.028 237.83 634.744 237.83V243.83V249.83C638.712 249.83 642.372 249.422 645.461 248.352C648.596 247.267 651.608 245.323 653.33 242.002L648.004 239.24ZM634.744 243.83V237.83C631.132 237.83 628.92 237.343 627.691 236.788C626.666 236.326 626.597 235.973 626.555 235.83L620.804 237.54L615.052 239.25C616.256 243.3 619.135 246.092 622.756 247.727C626.174 249.269 630.308 249.83 634.744 249.83V243.83ZM620.804 237.54L626.462 235.543C626.128 234.598 625.784 232.535 625.784 228.87H619.784H613.784C613.784 232.912 614.119 236.629 615.146 239.537L620.804 237.54ZM619.784 228.87H625.784V198.95H619.784H613.784V228.87H619.784ZM619.784 198.95H625.784C625.784 193.075 624.021 187.731 619.855 183.738L615.704 188.07L611.552 192.402C612.826 193.623 613.784 195.531 613.784 198.95H619.784ZM615.704 188.07L619.946 183.827C615.967 179.848 610.73 178.16 604.994 178.16V184.16V190.16C608.324 190.16 610.227 191.079 611.461 192.313L615.704 188.07ZM604.994 184.16V178.16C599.235 178.16 594.052 179.982 589.958 183.912L594.114 188.24L598.269 192.568C599.842 191.058 601.912 190.16 604.994 190.16V184.16ZM594.114 188.24L589.871 183.997C585.856 188.012 584.034 193.196 584.034 198.95H590.034H596.034C596.034 195.864 596.931 193.908 598.356 192.483L594.114 188.24ZM590.034 198.95H584.034V229.04H590.034H596.034V198.95H590.034ZM590.034 229.04H584.034C584.034 231.552 583.919 233.14 583.775 234.004L589.694 234.99L595.612 235.976C595.921 234.12 596.034 231.741 596.034 229.04H590.034ZM589.694 234.99L583.718 234.447C583.71 234.536 583.615 235.108 582.954 236.263L588.164 239.24L593.373 242.217C594.526 240.199 595.45 237.937 595.669 235.533L589.694 234.99ZM588.164 239.24L582.758 236.637C582.93 236.279 583.038 236.587 581.801 237.02C580.514 237.472 578.364 237.83 575.074 237.83V243.83V249.83C579.037 249.83 582.695 249.423 585.771 248.344C588.898 247.248 591.924 245.261 593.57 241.843L588.164 239.24ZM575.074 243.83V237.83C571.853 237.83 569.726 237.475 568.431 237.02C567.189 236.585 567.188 236.242 567.31 236.478L561.984 239.24L556.657 242.002C558.366 245.298 561.34 247.25 564.461 248.344C567.529 249.42 571.154 249.83 575.074 249.83V243.83ZM561.984 239.24L567.421 236.703C566.751 235.268 566.459 234.308 566.357 233.747L560.454 234.82L554.55 235.893C554.902 237.825 555.629 239.812 556.546 241.777L561.984 239.24ZM560.454 234.82L566.433 234.322C566.341 233.215 566.284 231.431 566.284 228.87H560.284H554.284C554.284 231.523 554.34 233.705 554.474 235.318L560.454 234.82ZM560.284 228.87H566.284V168.69H560.284H554.284V228.87H560.284ZM560.284 168.69H566.284C566.284 166.238 566.341 164.589 566.429 163.623L560.454 163.08L554.478 162.537C554.339 164.064 554.284 166.156 554.284 168.69H560.284ZM560.454 163.08L566.372 164.066C566.451 163.593 566.701 162.796 567.363 161.637L562.154 158.66L556.944 155.683C555.793 157.697 554.91 159.847 554.535 162.094L560.454 163.08ZM562.154 158.66L567.389 161.592C567.187 161.951 567.131 161.614 568.469 161.179C569.816 160.742 571.994 160.41 575.244 160.41V154.41V148.41C571.354 148.41 567.78 148.786 564.763 149.766C561.738 150.748 558.706 152.536 556.919 155.728L562.154 158.66ZM575.244 154.41V160.41C578.396 160.41 580.526 160.716 581.857 161.124C583.208 161.538 583.123 161.859 582.868 161.44L587.994 158.32L593.119 155.2C591.277 152.175 588.274 150.54 585.375 149.651C582.456 148.756 579.005 148.41 575.244 148.41V154.41ZM587.994 158.32L582.822 161.362C583.306 162.186 583.694 163.408 583.694 165.29H589.694H595.694C595.694 161.732 594.947 158.308 593.165 155.278L587.994 158.32ZM589.694 165.29L594.903 168.267C594.824 168.406 594.872 168.288 595.258 167.859C595.61 167.468 596.125 166.948 596.836 166.287L592.754 161.89L588.671 157.493C587.081 158.969 585.437 160.645 584.484 162.313L589.694 165.29ZM592.754 161.89L596.836 166.287C598.203 165.018 599.421 164.086 600.488 163.43L597.344 158.32L594.199 153.21C592.319 154.367 590.478 155.816 588.671 157.493L592.754 161.89ZM597.344 158.32L600.705 163.29C603.567 161.354 606.647 160.41 610.094 160.41V154.41V148.41C604.247 148.41 598.826 150.073 593.982 153.35L597.344 158.32ZM710.469 112.42L711.744 106.557L710.496 106.286L709.246 106.546L710.469 112.42ZM714.379 113.27L716.221 107.56L715.941 107.469L715.654 107.407L714.379 113.27ZM737.159 120.75L735.22 126.428L735.241 126.435L735.262 126.442L737.159 120.75ZM742.429 135.88L737.114 133.096L737.099 133.126L737.083 133.156L742.429 135.88ZM726.789 143.7L724.384 149.197L724.706 149.338L725.042 149.44L726.789 143.7ZM710.469 136.56L712.874 131.063L710.49 130.02L708.099 131.048L710.469 136.56ZM694.659 143.36L692.289 137.848L692.13 137.916L691.976 137.993L694.659 143.36ZM678.339 135.88L672.892 138.394L672.901 138.415L672.91 138.435L678.339 135.88ZM682.759 121.09L680.874 115.394L680.846 115.403L680.817 115.413L682.759 121.09ZM706.389 113.27L705.166 107.396L704.83 107.466L704.504 107.574L706.389 113.27ZM747.869 204.05L752.039 208.364L752.042 208.362L747.869 204.05ZM696.189 208.98V202.98H690.189V208.98H696.189ZM701.799 216.97L704.793 211.77V211.77L701.799 216.97ZM728.489 218.16L726.439 212.521V212.521L728.489 218.16ZM730.359 217.48L732.41 223.119L732.638 223.036L732.859 222.934L730.359 217.48ZM746.509 223.26L751.915 220.657L751.884 220.593L751.852 220.529L746.509 223.26ZM690.069 241.96L687.579 247.419L687.637 247.445L687.694 247.47L690.069 241.96ZM674.939 230.4L679.712 226.764L679.694 226.74L679.675 226.716L674.939 230.4ZM677.999 165.46L682.076 169.863L682.078 169.861L677.999 165.46ZM747.359 169.2L752.381 165.916L752.37 165.9L752.359 165.884L747.359 169.2ZM720.669 181.78L716.855 186.412L716.92 186.465L716.986 186.516L720.669 181.78ZM701.289 183.99L705.073 188.647L705.116 188.612L705.159 188.576L701.289 183.99ZM695.849 193.51H689.849V199.51H695.849V193.51ZM710.469 112.42L709.195 118.283L713.105 119.133L714.379 113.27L715.654 107.407L711.744 106.557L710.469 112.42ZM714.379 113.27L712.537 118.98C723.075 122.379 730.626 124.859 735.22 126.428L737.159 120.75L739.098 115.072C734.399 113.467 726.764 110.961 716.221 107.56L714.379 113.27ZM737.159 120.75L735.262 126.442C736.979 127.014 737.693 127.617 737.959 127.927C738.135 128.133 738.299 128.398 738.299 129.08H744.299H750.299C750.299 125.795 749.274 122.689 747.07 120.118C744.956 117.652 742.1 116.072 739.057 115.058L737.159 120.75ZM744.299 129.08H738.299C738.299 130.053 738.02 131.366 737.114 133.096L742.429 135.88L747.744 138.664C749.332 135.634 750.299 132.414 750.299 129.08H744.299ZM742.429 135.88L737.083 133.156C734.207 138.803 732.322 138.89 732.229 138.89V144.89V150.89C739.617 150.89 744.532 144.97 747.776 138.604L742.429 135.88ZM732.229 144.89V138.89C732.366 138.89 732.155 138.899 731.387 138.731C730.69 138.579 729.75 138.329 728.536 137.96L726.789 143.7L725.042 149.44C727.573 150.21 730.195 150.89 732.229 150.89V144.89ZM726.789 143.7L729.194 138.203L712.874 131.063L710.469 136.56L708.064 142.057L724.384 149.197L726.789 143.7ZM710.469 136.56L708.099 131.048L692.289 137.848L694.659 143.36L697.03 148.872L712.84 142.072L710.469 136.56ZM694.659 143.36L691.976 137.993C691.421 138.271 690.465 138.55 688.879 138.55V144.55V150.55C691.827 150.55 694.724 150.036 697.343 148.727L694.659 143.36ZM688.879 144.55V138.55C687.946 138.55 686.041 138.155 683.768 133.325L678.339 135.88L672.91 138.435C676.078 145.165 681.2 150.55 688.879 150.55V144.55ZM678.339 135.88L683.787 133.366C682.548 130.681 682.299 129.249 682.299 128.74H676.299H670.299C670.299 131.858 671.411 135.186 672.892 138.394L678.339 135.88ZM676.299 128.74H682.299C682.299 128.433 682.344 128.269 682.369 128.197C682.391 128.132 682.424 128.067 682.498 127.979C682.664 127.783 683.216 127.275 684.701 126.767L682.759 121.09L680.817 115.413C677.996 116.378 675.318 117.882 673.33 120.236C671.258 122.691 670.299 125.642 670.299 128.74H676.299ZM682.759 121.09L684.644 126.786L708.274 118.966L706.389 113.27L704.504 107.574L680.874 115.394L682.759 121.09ZM706.389 113.27L707.613 119.144L711.693 118.294L710.469 112.42L709.246 106.546L705.166 107.396L706.389 113.27ZM753.139 188.58H747.139C747.139 194.552 745.628 197.869 743.697 199.738L747.869 204.05L752.042 208.362C757.137 203.431 759.139 196.435 759.139 188.58H753.139ZM747.869 204.05L743.699 199.736C741.263 202.091 738.913 202.98 736.479 202.98V208.98V214.98C742.432 214.98 747.676 212.582 752.039 208.364L747.869 204.05ZM736.479 208.98V202.98H696.189V208.98V214.98H736.479V208.98ZM696.189 208.98H690.189C690.189 215.049 693.963 219.381 698.806 222.17L701.799 216.97L704.793 211.77C702.156 210.252 702.189 209.257 702.189 208.98H696.189ZM701.799 216.97L698.806 222.17C703.314 224.766 708.076 226.2 713.019 226.2V220.2V214.2C710.483 214.2 707.764 213.481 704.793 211.77L701.799 216.97ZM713.019 220.2V226.2C719.897 226.2 725.853 225.503 730.54 223.799L728.489 218.16L726.439 212.521C723.646 213.537 719.288 214.2 713.019 214.2V220.2ZM728.489 218.16L730.54 223.799L732.41 223.119L730.359 217.48L728.309 211.841L726.439 212.521L728.489 218.16ZM730.359 217.48L732.859 222.934C735.242 221.842 736.593 221.61 737.159 221.61V215.61V209.61C734.099 209.61 730.917 210.624 727.859 212.026L730.359 217.48ZM737.159 215.61V221.61C737.398 221.61 738.94 221.633 741.167 225.991L746.509 223.26L751.852 220.529C748.866 214.687 744.174 209.61 737.159 209.61V215.61ZM746.509 223.26L741.103 225.863C742.388 228.53 742.719 230.2 742.719 231.08H748.719H754.719C754.719 227.653 753.578 224.11 751.915 220.657L746.509 223.26ZM748.719 231.08H742.719C742.719 232.304 742.389 233.177 741.766 233.958C741.069 234.832 739.754 235.888 737.354 236.891C732.433 238.948 724.342 240.21 712.509 240.21V246.21V252.21C724.816 252.21 734.831 250.951 741.98 247.964C745.615 246.445 748.826 244.35 751.147 241.441C753.541 238.439 754.719 234.899 754.719 231.08H748.719ZM712.509 246.21V240.21C704.801 240.21 698.15 238.909 692.444 236.45L690.069 241.96L687.694 247.47C695.135 250.677 703.444 252.21 712.509 252.21V246.21ZM690.069 241.96L692.559 236.501C686.831 233.888 682.637 230.603 679.712 226.764L674.939 230.4L670.167 234.036C674.495 239.717 680.387 244.138 687.579 247.419L690.069 241.96ZM674.939 230.4L679.675 226.716C673.331 218.56 670.229 209.592 670.229 199.63H664.229H658.229C658.229 212.335 662.267 223.88 670.203 234.084L674.939 230.4ZM664.229 199.63H670.229C670.229 186.761 674.301 177.062 682.076 169.863L677.999 165.46L673.923 161.057C663.338 170.858 658.229 183.939 658.229 199.63H664.229ZM677.999 165.46L682.078 169.861C690.156 162.373 700.215 158.54 712.679 158.54V152.54V146.54C697.49 146.54 684.429 151.32 673.921 161.059L677.999 165.46ZM712.679 152.54V158.54C726.844 158.54 736.319 163.41 742.359 172.516L747.359 169.2L752.359 165.884C743.666 152.777 730.021 146.54 712.679 146.54V152.54ZM747.359 169.2L742.337 172.483C745.554 177.403 747.139 182.722 747.139 188.58H753.139H759.139C759.139 180.384 756.871 172.784 752.381 165.916L747.359 169.2ZM717.269 193.51V199.51C720.12 199.51 723.376 198.931 725.979 196.739C728.78 194.381 729.729 191.104 729.729 188.07H723.729H717.729C717.729 188.396 717.68 188.411 717.747 188.242C717.781 188.154 717.841 188.035 717.934 187.903C718.029 187.771 718.137 187.655 718.25 187.561C718.479 187.367 718.613 187.354 718.474 187.393C718.319 187.437 717.944 187.51 717.269 187.51V193.51ZM723.729 188.07H729.729C729.729 183.631 727.869 179.779 724.353 177.044L720.669 181.78L716.986 186.516C717.549 186.955 717.729 187.296 717.729 188.07H723.729ZM720.669 181.78L724.484 177.148C721.061 174.33 716.634 173.4 712.169 173.4V179.4V185.4C715.185 185.4 716.424 186.057 716.855 186.412L720.669 181.78ZM712.169 179.4V173.4C706.739 173.4 701.79 175.717 697.42 179.404L701.289 183.99L705.159 188.576C708.042 186.143 710.347 185.4 712.169 185.4V179.4ZM701.289 183.99L697.506 179.333C693.032 182.968 689.849 187.692 689.849 193.51H695.849H701.849C701.849 192.528 702.293 190.905 705.073 188.647L701.289 183.99ZM695.849 193.51V199.51H717.269V193.51V187.51H695.849V193.51ZM887.809 236.52L890.616 231.217L887.761 229.706L884.928 231.257L887.809 236.52ZM831.029 173.96L834.85 178.586L838.376 175.673L836.501 171.5L831.029 173.96ZM834.429 121.43L838.177 126.115V126.115L834.429 121.43ZM887.809 121.43L883.739 125.839V125.839L887.809 121.43ZM886.959 165.12L882.754 160.84L882.735 160.859L882.716 160.877L886.959 165.12ZM866.899 180.93L863.555 175.948L858.283 179.486L862.113 184.55L866.899 180.93ZM888.659 203.37L884.961 208.095L890.115 212.129L893.687 206.644L888.659 203.37ZM895.289 188.41L901.117 189.835L901.128 189.787L901.139 189.74L895.289 188.41ZM919.259 182.46L916.451 187.763L916.513 187.795L916.575 187.827L919.259 182.46ZM922.659 185.69L916.775 186.867L916.848 187.233L916.966 187.587L922.659 185.69ZM922.999 189.77L917.012 189.371L917.009 189.413L917.007 189.455L922.999 189.77ZM912.458 215.44L907.712 211.77L901.792 219.425L911.282 221.323L912.458 215.44ZM927.419 241.45L931.405 245.934L927.419 241.45ZM853.979 158.32L848.366 160.44L850.977 167.354L857.207 163.378L853.979 158.32ZM865.879 149.82L862.037 145.211L861.989 145.251L861.941 145.292L865.879 149.82ZM864.009 219.52L865.185 225.403L876.937 223.053L868.014 215.053L864.009 219.52ZM845.309 198.44L850.173 194.927L845.532 188.502L840.608 194.712L845.309 198.44ZM917.049 244.17V238.17C908.267 238.17 899.477 235.909 890.616 231.217L887.809 236.52L885.001 241.823C895.406 247.331 906.11 250.17 917.049 250.17V244.17ZM887.809 236.52L884.928 231.257C874.939 236.724 865.042 239.36 855.169 239.36V245.36V251.36C867.282 251.36 879.144 248.103 890.689 241.783L887.809 236.52ZM855.169 245.36V239.36C841.29 239.36 831.998 236.448 826.24 231.654C820.694 227.035 817.479 219.864 817.479 208.98H811.479H805.479C805.479 222.35 809.545 233.368 818.562 240.876C827.368 248.209 839.921 251.36 855.169 251.36V245.36ZM811.479 208.98H817.479C817.479 198.755 822.692 188.629 834.85 178.586L831.029 173.96L827.207 169.334C813.298 180.824 805.479 194.045 805.479 208.98H811.479ZM831.029 173.96L836.501 171.5C832.199 161.928 830.229 153.658 830.229 146.59H824.229H818.229C818.229 155.842 820.791 165.819 825.556 176.42L831.029 173.96ZM824.229 146.59H830.229C830.229 136.485 833.207 130.091 838.177 126.115L834.429 121.43L830.68 116.745C822.05 123.649 818.229 134.028 818.229 146.59H824.229ZM834.429 121.43L838.177 126.115C843.619 121.761 851.283 119.27 861.799 119.27V113.27V107.27C849.42 107.27 838.838 110.219 830.68 116.745L834.429 121.43ZM861.799 113.27V119.27C872.378 119.27 879.349 121.787 883.739 125.839L887.809 121.43L891.878 117.021C884.481 110.193 874.112 107.27 861.799 107.27V113.27ZM887.809 121.43L883.739 125.839C888.187 129.945 890.649 135.652 890.649 143.7H896.648H902.648C902.648 132.935 899.217 123.795 891.878 117.021L887.809 121.43ZM896.648 143.7H890.649C890.649 149.791 888.242 155.447 882.754 160.84L886.959 165.12L891.163 169.4C898.595 162.099 902.648 153.475 902.648 143.7H896.648ZM886.959 165.12L882.716 160.877C878.336 165.257 871.999 170.282 863.555 175.948L866.899 180.93L870.242 185.912C879.025 180.018 886.061 174.503 891.201 169.363L886.959 165.12ZM866.899 180.93L862.113 184.55C869.077 193.756 876.688 201.621 884.961 208.095L888.659 203.37L892.356 198.645C884.989 192.879 878.093 185.784 871.684 177.31L866.899 180.93ZM888.659 203.37L893.687 206.644C897.189 201.264 899.693 195.659 901.117 189.835L895.289 188.41L889.46 186.985C888.39 191.361 886.474 195.729 883.631 200.096L888.659 203.37ZM895.289 188.41L901.139 189.74C901.256 189.227 901.476 188.739 902.599 188.19C903.981 187.514 906.482 186.93 910.589 186.93V180.93V174.93C905.628 174.93 901.046 175.592 897.328 177.41C893.351 179.354 890.454 182.606 889.438 187.08L895.289 188.41ZM910.589 180.93V186.93C914.108 186.93 915.821 187.429 916.451 187.763L919.259 182.46L922.066 177.157C918.843 175.451 914.776 174.93 910.589 174.93V180.93ZM919.259 182.46L916.575 187.827C916.911 187.994 917.15 188.135 917.311 188.242C917.474 188.35 917.526 188.401 917.506 188.382C917.486 188.363 916.977 187.874 916.775 186.867L922.659 185.69L928.542 184.513C927.721 180.408 924.174 178.209 921.942 177.093L919.259 182.46ZM922.659 185.69L916.966 187.587C916.951 187.542 916.992 187.648 917.019 187.973C917.046 188.292 917.053 188.75 917.012 189.371L922.999 189.77L928.985 190.169C929.124 188.094 929.039 185.857 928.351 183.793L922.659 185.69ZM922.999 189.77L917.007 189.455C916.632 196.579 913.724 203.996 907.712 211.77L912.458 215.44L917.205 219.11C924.34 209.884 928.458 200.188 928.99 190.085L922.999 189.77ZM912.458 215.44L911.282 221.323C913.303 221.728 915.288 221.95 917.219 221.95V215.95V209.95C916.202 209.95 915.014 209.832 913.635 209.557L912.458 215.44ZM917.219 215.95V221.95C920.694 221.95 922.203 222.823 922.894 223.523C923.599 224.237 924.479 225.809 924.479 229.38H930.479H936.479C936.479 223.998 935.148 218.855 931.433 215.092C927.704 211.315 922.583 209.95 917.219 209.95V215.95ZM930.479 229.38H924.479C924.479 232.221 924.241 234.244 923.898 235.598C923.539 237.012 923.2 237.172 923.432 236.966L927.419 241.45L931.405 245.934C933.677 243.914 934.868 241.156 935.53 238.547C936.206 235.877 936.479 232.772 936.479 229.38H930.479ZM927.419 241.45L923.432 236.966C923.077 237.282 921.493 238.17 917.049 238.17V244.17V250.17C922.351 250.17 927.68 249.245 931.405 245.934L927.419 241.45ZM851.089 144.55H845.089C845.089 149.553 846.264 154.877 848.366 160.44L853.979 158.32L859.591 156.2C857.84 151.563 857.089 147.707 857.089 144.55H851.089ZM853.979 158.32L857.207 163.378C862.614 159.926 866.874 156.906 869.816 154.348L865.879 149.82L861.941 145.292C859.67 147.268 855.996 149.914 850.75 153.262L853.979 158.32ZM865.879 149.82L869.72 154.429C872.846 151.824 875.959 148.137 875.959 143.36H869.959H863.959C863.959 142.994 864.09 142.946 863.866 143.301C863.622 143.686 863.089 144.334 862.037 145.211L865.879 149.82ZM869.959 143.36H875.959C875.959 139.765 874.928 136.018 871.885 133.286C868.964 130.663 865.18 129.88 861.629 129.88V135.88V141.88C863.63 141.88 864.011 142.343 863.867 142.214C863.789 142.144 863.78 142.087 863.813 142.176C863.859 142.299 863.959 142.655 863.959 143.36H869.959ZM861.629 135.88V129.88C857.444 129.88 853.191 130.717 849.912 133.414C846.409 136.295 845.089 140.393 845.089 144.55H851.089H857.089C857.089 142.927 857.525 142.69 857.535 142.681C857.77 142.488 858.786 141.88 861.629 141.88V135.88ZM856.359 220.2V226.2C859.502 226.2 862.456 225.949 865.185 225.403L864.009 219.52L862.832 213.637C861.028 213.997 858.882 214.2 856.359 214.2V220.2ZM864.009 219.52L868.014 215.053C861.801 209.482 855.849 202.787 850.173 194.927L845.309 198.44L840.444 201.953C846.555 210.413 853.069 217.771 860.003 223.987L864.009 219.52ZM845.309 198.44L840.608 194.712C837.329 198.846 835.399 203.524 835.399 208.64H841.399H847.399C847.399 206.73 848.075 204.608 850.009 202.168L845.309 198.44ZM841.399 208.64H835.399C835.399 213.891 837.177 218.74 841.47 222.058C845.47 225.148 850.766 226.2 856.359 226.2V220.2V214.2C851.978 214.2 849.794 213.325 848.807 212.562C848.114 212.026 847.399 211.095 847.399 208.64H841.399ZM1068.85 211.36L1072.18 216.352L1072.28 216.29L1072.37 216.224L1068.85 211.36ZM1071.91 209.15L1068.87 203.978L1068.63 204.121L1068.4 204.286L1071.91 209.15ZM1091.46 215.27L1096.54 212.077L1096.53 212.051L1096.51 212.025L1091.46 215.27ZM1092.82 230.74L1088.58 226.497L1088.5 226.576L1088.43 226.657L1092.82 230.74ZM1087.55 234.99L1084.43 229.87L1087.55 234.99ZM1081.6 238.56L1078.56 233.388L1078.49 233.429L1078.42 233.472L1081.6 238.56ZM1070.21 242.98L1072.01 248.705V248.705L1070.21 242.98ZM1037.06 243.66L1035.5 249.451L1035.57 249.47L1035.64 249.488L1037.06 243.66ZM1020.06 236.52L1017.02 241.692L1017.08 241.727L1017.14 241.76L1020.06 236.52ZM1004.42 224.28L1000.08 228.42L1000.11 228.446L1000.13 228.471L1004.42 224.28ZM992.865 205.75L987.271 207.921L987.291 207.971L987.311 208.022L992.865 205.75ZM992.865 157.13L998.411 159.419L998.417 159.404L998.423 159.388L992.865 157.13ZM1004.08 139.28L999.791 135.089L999.79 135.09L1004.08 139.28ZM1019.89 127.38L1022.74 132.663L1022.76 132.649L1022.79 132.635L1019.89 127.38ZM1069.53 120.75L1067.74 126.477L1067.82 126.499L1067.89 126.519L1069.53 120.75ZM1082.11 125.68L1079.03 130.825L1079.06 130.844L1079.09 130.863L1082.11 125.68ZM1086.19 128.06L1089.32 122.94L1089.27 122.908L1089.22 122.877L1086.19 128.06ZM1090.95 131.12L1094.72 126.452L1094.56 126.323L1094.4 126.205L1090.95 131.12ZM1091.8 148.63L1086.94 145.111L1086.94 145.117L1091.8 148.63ZM1071.23 154.07L1067.46 158.733L1067.68 158.908L1067.91 159.062L1071.23 154.07ZM1030.43 155.94L1026.95 151.058L1026.92 151.079L1026.89 151.102L1030.43 155.94ZM1021.93 197.25L1027.3 194.567L1021.93 197.25ZM1030.6 207.96L1027.03 212.779L1027.06 212.803L1027.09 212.826L1030.6 207.96ZM1062.05 214.08L1060.41 208.311L1060.38 208.319L1060.35 208.327L1062.05 214.08ZM1068.85 211.36L1072.37 216.224L1075.43 214.014L1071.91 209.15L1068.4 204.286L1065.34 206.496L1068.85 211.36ZM1071.91 209.15L1074.96 214.322C1076.75 213.264 1078.14 212.561 1079.15 212.138C1080.3 211.66 1080.49 211.75 1080.07 211.75V205.75V199.75C1078.07 199.75 1076.11 200.406 1074.54 201.062C1072.83 201.773 1070.93 202.769 1068.87 203.978L1071.91 209.15ZM1080.07 205.75V211.75C1079.95 211.75 1080.46 211.686 1081.71 212.734C1082.96 213.783 1084.55 215.614 1086.42 218.515L1091.46 215.27L1096.51 212.025C1094.3 208.58 1091.95 205.65 1089.4 203.526C1086.86 201.401 1083.72 199.75 1080.07 199.75V205.75ZM1091.46 215.27L1086.38 218.463C1088.76 222.24 1089.2 224.192 1089.2 224.79H1095.2H1101.2C1101.2 220.628 1099.16 216.233 1096.54 212.077L1091.46 215.27ZM1095.2 224.79H1089.2C1089.2 225.686 1088.97 226.109 1088.58 226.497L1092.82 230.74L1097.07 234.983C1099.85 232.197 1101.2 228.654 1101.2 224.79H1095.2ZM1092.82 230.74L1088.43 226.657C1087.36 227.803 1086.05 228.88 1084.43 229.87L1087.55 234.99L1090.68 240.11C1093.14 238.606 1095.34 236.851 1097.22 234.823L1092.82 230.74ZM1087.55 234.99L1084.43 229.87C1082.41 231.101 1080.46 232.273 1078.56 233.388L1081.6 238.56L1084.65 243.732C1086.6 242.58 1088.62 241.373 1090.68 240.11L1087.55 234.99ZM1081.6 238.56L1078.42 233.472C1077.36 234.136 1074.29 235.412 1068.42 237.255L1070.21 242.98L1072.01 248.705C1077.69 246.922 1082.22 245.25 1084.78 243.648L1081.6 238.56ZM1070.21 242.98L1068.42 237.255C1063.15 238.907 1058.15 239.7 1053.38 239.7V245.7V251.7C1059.5 251.7 1065.71 250.68 1072.01 248.705L1070.21 242.98ZM1053.38 245.7V239.7C1048.57 239.7 1043.61 239.086 1038.49 237.832L1037.06 243.66L1035.64 249.488C1041.62 250.954 1047.54 251.7 1053.38 251.7V245.7ZM1037.06 243.66L1038.63 237.869C1033.75 236.545 1028.53 234.373 1022.99 231.28L1020.06 236.52L1017.14 241.76C1023.38 245.24 1029.5 247.828 1035.5 249.451L1037.06 243.66ZM1020.06 236.52L1023.11 231.348C1017.78 228.216 1012.99 224.465 1008.72 220.089L1004.42 224.28L1000.13 228.471C1005.15 233.615 1010.79 238.024 1017.02 241.692L1020.06 236.52ZM1004.42 224.28L1008.77 220.14C1004.73 215.905 1001.25 210.401 998.418 203.478L992.865 205.75L987.311 208.022C990.599 216.059 994.827 222.909 1000.08 228.42L1004.42 224.28ZM992.865 205.75L998.458 203.579C995.802 196.735 994.445 189.261 994.445 181.1H988.445H982.445C982.445 190.619 984.034 199.578 987.271 207.921L992.865 205.75ZM988.445 181.1H994.445C994.445 172.933 995.804 165.736 998.411 159.419L992.865 157.13L987.318 154.841C984.032 162.804 982.445 171.587 982.445 181.1H988.445ZM992.865 157.13L998.423 159.388C1001.14 152.71 1004.49 147.459 1008.38 143.47L1004.08 139.28L999.79 135.09C994.615 140.395 990.486 147.043 987.306 154.872L992.865 157.13ZM1004.08 139.28L1008.38 143.471C1012.6 139.149 1017.38 135.55 1022.74 132.663L1019.89 127.38L1017.05 122.097C1010.62 125.557 1004.87 129.891 999.791 135.089L1004.08 139.28ZM1019.89 127.38L1022.79 132.635C1033.13 126.939 1043.3 124.2 1053.38 124.2V118.2V112.2C1041.03 112.2 1028.88 115.581 1017 122.125L1019.89 127.38ZM1053.38 118.2V124.2C1058.06 124.2 1062.84 124.945 1067.74 126.477L1069.53 120.75L1071.32 115.023C1065.35 113.155 1059.36 112.2 1053.38 112.2V118.2ZM1069.53 120.75L1067.89 126.519C1073.25 128.052 1076.86 129.524 1079.03 130.825L1082.11 125.68L1085.2 120.535C1081.7 118.436 1076.92 116.621 1071.18 114.981L1069.53 120.75ZM1082.11 125.68L1079.09 130.863L1083.17 133.243L1086.19 128.06L1089.22 122.877L1085.14 120.497L1082.11 125.68ZM1086.19 128.06L1083.07 133.18C1085.06 134.401 1086.53 135.346 1087.51 136.035L1090.95 131.12L1094.4 126.205C1093.11 125.307 1091.41 124.213 1089.32 122.94L1086.19 128.06ZM1090.95 131.12L1087.18 135.788C1089.09 137.326 1089.37 138.459 1089.37 139.28H1095.37H1101.37C1101.37 133.981 1098.71 129.674 1094.72 126.452L1090.95 131.12ZM1095.37 139.28H1089.37C1089.37 140.565 1088.86 142.47 1086.94 145.111L1091.8 148.63L1096.66 152.149C1099.51 148.216 1101.37 143.888 1101.37 139.28H1095.37ZM1091.8 148.63L1086.94 145.117C1084.92 147.921 1083.21 149.717 1081.85 150.764C1081.19 151.276 1080.69 151.546 1080.35 151.683C1080.19 151.75 1080.07 151.781 1080 151.796C1079.94 151.81 1079.91 151.81 1079.9 151.81V157.81V163.81C1083.45 163.81 1086.58 162.27 1089.18 160.266C1091.79 158.253 1094.27 155.459 1096.67 152.143L1091.8 148.63ZM1079.9 157.81V151.81C1080.02 151.81 1079.64 151.823 1078.58 151.366C1077.58 150.932 1076.25 150.201 1074.56 149.078L1071.23 154.07L1067.91 159.062C1069.96 160.432 1071.95 161.571 1073.83 162.384C1075.66 163.174 1077.75 163.81 1079.9 163.81V157.81ZM1071.23 154.07L1075.01 149.407C1068.9 144.461 1061.09 142.29 1052.19 142.29V148.29V154.29C1059.16 154.29 1064.05 155.972 1067.46 158.733L1071.23 154.07ZM1052.19 148.29V142.29C1043.35 142.29 1034.91 145.373 1026.95 151.058L1030.43 155.94L1033.92 160.822C1040.24 156.307 1046.3 154.29 1052.19 154.29V148.29ZM1030.43 155.94L1026.89 151.102C1022.58 154.262 1019.18 158.582 1016.57 163.797L1021.93 166.48L1027.3 169.163C1029.23 165.312 1031.49 162.605 1033.98 160.778L1030.43 155.94ZM1021.93 166.48L1016.57 163.797C1013.83 169.273 1012.53 175.37 1012.53 181.95H1018.53H1024.53C1024.53 176.97 1025.51 172.753 1027.3 169.163L1021.93 166.48ZM1018.53 181.95H1012.53C1012.53 188.437 1013.84 194.473 1016.57 199.933L1021.93 197.25L1027.3 194.567C1025.5 190.961 1024.53 186.796 1024.53 181.95H1018.53ZM1021.93 197.25L1016.57 199.933C1019.19 205.175 1022.65 209.528 1027.03 212.779L1030.6 207.96L1034.18 203.141C1031.53 201.179 1029.21 198.391 1027.3 194.567L1021.93 197.25ZM1030.6 207.96L1027.09 212.826C1034.88 218.443 1043.28 221.44 1052.19 221.44V215.44V209.44C1046.15 209.44 1040.15 207.45 1034.11 203.094L1030.6 207.96ZM1052.19 215.44V221.44C1056.23 221.44 1060.09 220.919 1063.76 219.833L1062.05 214.08L1060.35 208.327C1057.9 209.054 1055.19 209.44 1052.19 209.44V215.44ZM1062.05 214.08L1063.7 219.849C1066.99 218.909 1070.01 217.8 1072.18 216.352L1068.85 211.36L1065.53 206.368C1064.98 206.734 1063.46 207.438 1060.41 208.311L1062.05 214.08ZM1211.95 136.05L1216.15 131.768V131.768L1211.95 136.05ZM1212.8 227.17L1217.17 231.272L1217.18 231.263L1217.19 231.253L1212.8 227.17ZM1125.25 227.34L1120.92 231.503L1120.93 231.513L1120.94 231.524L1125.25 227.34ZM1112.33 156.45L1117.86 158.758L1117.87 158.744L1117.88 158.731L1112.33 156.45ZM1125.93 135.71L1130.12 139.995V139.995L1125.93 135.71ZM1145.48 122.62L1143.1 117.11V117.11L1145.48 122.62ZM1147.01 206.6L1142.8 210.88L1142.84 210.917L1142.88 210.954L1147.01 206.6ZM1190.7 206.77L1194.82 211.126V211.126L1190.7 206.77ZM1190.53 157.3L1186.36 161.618L1186.38 161.636L1186.4 161.654L1190.53 157.3ZM1147.01 157.47L1151.17 161.788L1151.19 161.769L1151.21 161.75L1147.01 157.47ZM1168.26 117.86V123.86C1183.4 123.86 1196.47 129.267 1207.74 140.332L1211.95 136.05L1216.15 131.768C1202.71 118.58 1186.66 111.86 1168.26 111.86V117.86ZM1211.95 136.05L1207.74 140.332C1218.89 151.279 1224.48 164.787 1224.48 181.27H1230.48H1236.48C1236.48 161.713 1229.7 145.074 1216.15 131.768L1211.95 136.05ZM1230.48 181.27H1224.48C1224.48 197.719 1219.12 211.544 1208.4 223.087L1212.8 227.17L1217.19 231.253C1230.05 217.409 1236.48 200.635 1236.48 181.27H1230.48ZM1212.8 227.17L1208.42 223.068C1197.76 234.438 1184.84 240.04 1169.28 240.04V246.04V252.04C1188.16 252.04 1204.25 245.062 1217.17 231.272L1212.8 227.17ZM1169.28 246.04V240.04C1153.69 240.04 1140.56 234.474 1129.55 223.156L1125.25 227.34L1120.94 231.524C1134.19 245.139 1150.41 252.04 1169.28 252.04V246.04ZM1125.25 227.34L1129.57 223.177C1118.62 211.822 1113.23 198.465 1113.23 182.8H1107.23H1101.23C1101.23 201.588 1107.84 217.925 1120.92 231.503L1125.25 227.34ZM1107.23 182.8H1113.23C1113.23 174.134 1114.79 166.14 1117.86 158.758L1112.33 156.45L1106.79 154.142C1103.06 163.08 1101.23 172.653 1101.23 182.8H1107.23ZM1112.33 156.45L1117.88 158.731C1121.01 151.114 1125.11 144.911 1130.12 139.995L1125.93 135.71L1121.73 131.425C1115.41 137.616 1110.45 145.239 1106.78 154.169L1112.33 156.45ZM1125.93 135.71L1130.12 139.995C1135.26 134.965 1141.15 131.015 1147.85 128.13L1145.48 122.62L1143.1 117.11C1135.06 120.572 1127.93 125.348 1121.73 131.425L1125.93 135.71ZM1145.48 122.62L1147.85 128.13C1154.49 125.272 1161.27 123.86 1168.26 123.86V117.86V111.86C1159.6 111.86 1151.2 113.622 1143.1 117.11L1145.48 122.62ZM1137.32 181.95H1131.32C1131.32 193.445 1135.06 203.272 1142.8 210.88L1147.01 206.6L1151.21 202.32C1146.03 197.235 1143.32 190.628 1143.32 181.95H1137.32ZM1147.01 206.6L1142.88 210.954C1150.41 218.1 1159.16 221.95 1168.94 221.95V215.95V209.95C1162.62 209.95 1156.74 207.566 1151.13 202.246L1147.01 206.6ZM1168.94 215.95V221.95C1178.69 221.95 1187.38 218.18 1194.82 211.126L1190.7 206.77L1186.57 202.414C1181.1 207.6 1175.28 209.95 1168.94 209.95V215.95ZM1190.7 206.77L1194.82 211.126C1202.67 203.69 1206.39 193.795 1206.39 182.12H1200.39H1194.39C1194.39 191.072 1191.64 197.61 1186.57 202.414L1190.7 206.77ZM1200.39 182.12H1206.39C1206.39 170.41 1202.59 160.474 1194.65 152.946L1190.53 157.3L1186.4 161.654C1191.61 166.593 1194.39 173.203 1194.39 182.12H1200.39ZM1190.53 157.3L1194.69 152.982C1187.25 145.806 1178.55 141.95 1168.77 141.95V147.95V153.95C1175.07 153.95 1180.88 156.328 1186.36 161.618L1190.53 157.3ZM1168.77 147.95V141.95C1158.94 141.95 1150.23 145.891 1142.8 153.19L1147.01 157.47L1151.21 161.75C1156.7 156.355 1162.49 153.95 1168.77 153.95V147.95ZM1147.01 157.47L1142.84 153.152C1135.06 160.661 1131.32 170.456 1131.32 181.95H1137.32H1143.32C1143.32 173.271 1146.03 166.745 1151.17 161.788L1147.01 157.47Z" fill="#E4C594" mask="url(#path-1-outside-1_187_386)"/>
<path d="M236.132 67.2628C238.945 64.9753 239.88 61.4962 242.294 58.7135C250.148 49.6573 260.73 46.0755 272.605 47.3141C281.76 48.1961 289.229 53.0954 295.002 60.0085C295.829 60.9965 299.009 65.8169 299.392 66.9263C303.856 79.8088 302.291 95.8189 291.64 105.363C289.813 107.001 287.018 109.253 285.757 110.947L285.813 111.15C286.292 112.849 287.981 116.154 288.774 117.848C290.05 120.596 291.192 123.404 292.2 126.261C293.59 130.294 294.719 134.725 295.574 138.918C296.406 143.206 297.703 147.769 298.174 152.1C298.992 159.629 299.122 167.235 298.834 174.81C298.52 183.067 297.103 191.784 293.518 199.305C292.451 201.544 290.71 204.077 290.113 206.45C289.968 207.473 293.225 210.888 294.086 212.335C296.229 215.931 295.547 219.552 297.251 223.122C298.48 225.699 300.625 227.399 301.706 230.155C303.11 233.732 300.579 236.711 300.847 239.745C301.033 241.853 302.955 245.898 303.67 248.089C305.314 253.137 305.531 261.06 302.914 265.794C299.948 270.972 292.917 276.153 287.262 277.815C283.043 279.056 276.081 278.969 272.184 276.739C265.887 273.135 264.025 267.528 262.728 260.859C259.446 261.799 256.791 262.799 253.608 263.819C248.076 265.624 242.48 267.225 236.83 268.616C235.673 268.893 220.494 271.733 220.381 271.807C217.902 272.016 214.824 272.391 212.372 272.816C211.104 272.698 208.999 273.279 207.595 273.253C201.425 273.141 194.436 274.509 188.397 274.308C169.344 273.674 150.615 271.784 132.216 266.626C127.744 265.371 123.322 263.44 118.986 262.264L118.765 262.205C118.472 262.733 118.224 263.145 117.894 263.65L117.703 263.399C117.202 263.491 117.462 264.362 116.802 264.787C116.371 264.611 116.277 264.331 116.036 263.921C116.01 263.212 116.618 262.976 116.797 262.233L116.382 262.16C115.477 264.116 114.691 265.488 113.616 267.355C113.152 268.011 111.329 270.411 111.086 270.888C110.439 271.182 108.635 273.299 107.084 274.166L107.042 274.526C107.531 274.752 107.316 274.588 107.639 275.111C107.518 276.473 106.696 275.586 106.443 276.619C101.63 279.641 92.0596 278.752 87.1059 276.39C82.0904 273.999 77.3535 270.134 75.4313 264.779C73.4837 259.352 75.0119 253.463 77.0482 248.3C77.542 247.044 78.9775 243.848 79.1189 242.688C79.4611 239.882 77.8652 237.279 78.2783 234.089C78.8213 229.897 81.3929 227.235 82.5773 223.245C83.4965 220.147 82.808 216.016 84.1749 213.324C84.7505 212.394 85.0741 211.936 85.7612 211.083C83.7965 208.149 81.8784 206.194 79.7262 202.771C71.3349 188.826 72.6744 168.386 75.191 152.935C76.109 147.298 77.2108 141.019 78.8699 135.551C80.1826 131.197 81.6383 126.886 83.2343 122.627C84.2831 119.867 85.8794 116.881 86.426 114.138C86.5238 113.972 86.5817 113.725 86.6434 113.528C86.5055 113.091 86.0949 112.651 85.7505 112.345C81.9721 108.987 78.4643 106.072 75.2092 102.138C72.0422 98.184 69.2475 92.1719 68.5033 87.2026C68.1521 84.9583 68.0412 82.6829 68.1727 80.4152C68.4143 76.5629 70.113 68.8969 72.4023 65.8122C73.8461 63.3437 76.8759 59.6277 79.0685 57.9116C80.6489 55.376 89.885 50.7813 93.3001 49.8532C101.507 47.1465 108.81 48.4191 116.624 52.1514C123.798 55.5783 128.88 61.8829 131.914 69.206C131.944 69.3001 131.975 69.3943 132.005 69.4885C133.556 68.3734 136.474 67.3207 138.467 66.5521C155.796 59.8675 175.69 56.7254 194.227 58.0599C201.372 59.1083 208.609 59.8395 215.65 61.5014C216.824 61.7784 218.034 62.1821 219.174 62.4282C224.802 63.6405 230.612 66.0675 236.132 67.2628Z" fill="#71552D"/>
<path d="M95.6964 51.7365C103.965 50.4346 110.575 50.967 117.596 56.0792C121.905 59.2172 127.575 65.194 128.996 70.3198C127.384 71.8727 124.053 73.9359 122.131 75.1864C116.84 65.0628 110.522 61.9695 99.0134 63.3931C96.9591 63.6937 95.1095 64.4884 93.2753 65.382C83.3039 70.2406 82.4053 81.5952 84.2558 91.2263C85.1483 95.8717 89.9162 99.6585 93.4555 102.329C92.4048 104.495 89.603 109.143 87.8423 110.683C79.0314 104.51 73.1124 97.6241 71.0823 86.773C70.2386 82.2629 71.7255 74.3589 73.3066 69.9046C73.8779 68.2954 75.7781 65.7408 76.3232 64.3297C77.9808 61.9767 78.9231 60.8987 80.9164 58.9404C81.4223 58.6912 82.6973 57.6143 83.2198 57.2084C87.1519 54.1541 90.9628 52.9316 95.6964 51.7365Z" fill="#E4C594"/>
<path d="M81.4279 244.442C86.5781 248.832 90.6369 250.297 96.5667 253.247C98.9486 254.433 101.09 255.545 103.573 256.586C106.919 257.988 113.686 259.737 116.346 261.808L116.38 262.16C115.476 264.116 114.689 265.488 113.614 267.355C113.151 268.011 111.328 270.411 111.084 270.889C110.438 271.182 108.633 273.299 107.082 274.166C106.68 274.355 106.275 274.536 105.868 274.711C100.511 276.974 94.1166 276.682 88.8909 274.354C84.3074 272.311 79.8547 269.519 77.9817 264.636C75.355 257.788 78.8313 250.599 81.4279 244.442Z" fill="#E4C594"/>
<path d="M79.0679 57.9116C80.6483 55.376 89.8845 50.7813 93.2995 49.8532C92.0923 51.4277 88.4573 50.6509 88.7643 53.2429C90.3639 53.1207 94.7548 51.0666 95.6968 51.7365C90.9632 52.9316 87.1523 54.1541 83.2202 57.2084C82.6976 57.6143 81.4227 58.6912 80.9168 58.9404C79.0627 59.5453 80.7479 59.0146 78.666 58.9091C78.8606 58.5401 78.9345 58.2991 79.0679 57.9116Z" fill="#71552D"/>
<path d="M72.4023 65.8122C73.8461 63.3437 76.8759 59.6277 79.0686 57.9116C78.9351 58.2991 78.8612 58.5401 78.6666 58.9091C80.7485 59.0146 79.0633 59.5453 80.9174 58.9404C78.9241 60.8987 77.9818 61.9767 76.3242 64.3297C76.1798 63.3109 77.6644 62.0632 78.1658 61.0434C75.6757 59.6825 74.3103 65.0401 72.4023 65.8122Z" fill="#71552D"/>
<path d="M180.053 61.1041C180.146 61.0993 180.239 61.0946 180.332 61.0898C199.831 60.333 219.25 64.0115 237.111 71.8461C239.44 72.8538 243.777 74.6342 245.902 75.8986C252.786 79.9979 259.546 84.7903 265.368 90.2846C271.37 95.9484 274.927 100.861 279.238 107.761C289.961 124.576 295.817 144.016 296.161 163.938C296.299 169.157 296.177 176.19 295.387 181.381C294.128 189.678 290.701 201.513 284.72 207.574C280.403 211.949 272.886 216.382 267.283 218.978C265.215 219.937 262.443 220.799 260.265 221.532C257.369 222.507 254.301 223.762 251.384 224.58C247.205 225.755 242.779 226.649 238.561 227.66C229.049 229.937 219.538 231.776 209.809 232.834C207.261 233.111 204.578 233.645 202.015 233.889C199.058 234.173 196.008 234.217 193.035 234.265C186.296 234.485 179.55 234.435 172.814 234.116C159.122 233.333 144.34 231.236 130.854 228.677C123.829 227.343 116.41 224.516 109.694 222.024C102.444 219.334 95.4421 215.624 89.5019 210.625C81.1286 203.336 76.9584 190.166 76.5069 179.315C75.721 161.298 78.9435 143.2 85.4239 126.391C91.7674 109.937 102.725 93.4623 116.861 82.6842C119.157 80.9332 121.627 78.6747 124.052 77.2021C133.827 71.2666 144.373 66.9009 155.481 64.4802C163.559 62.6524 171.78 61.523 180.053 61.1041Z" fill="#E4C594"/>
<path d="M253.741 164.934C254.229 164.899 254.72 164.876 255.209 164.863C260.563 164.725 263.767 164.809 268.807 167.344C272.947 169.427 277.066 173.695 277.109 178.69C277.149 183.471 275.904 187.617 272.502 191.077C268.215 195.438 266.579 196.616 260.352 196.76C257.124 196.777 253.872 196.75 250.664 196.932C245.791 197.21 241.273 190.974 238.045 187.947L237.914 187.825C237.443 185.558 236.669 182.429 236.761 180.111C236.783 179.566 237.456 178.087 237.566 177.273C237.607 176.966 237.892 174.822 237.93 174.699C238.661 172.328 242.619 168.956 244.629 167.501C244.902 167.303 245.182 167.153 245.468 167.075C246.548 166.783 247.721 166.638 248.793 166.345C250.52 165.87 251.945 165.185 253.741 164.934Z" fill="#DC9F8A"/>
<path d="M113.943 168.387C118.074 167.884 129.943 169.928 132.797 172.892C143.572 184.086 135.971 198.268 121.219 199.845C114.686 200.63 107.085 200.33 102.069 195.348C96.1639 189.481 97.4185 185.884 97.4462 178.379C97.7322 177.941 98.0326 177.512 98.3472 177.096C102.916 171.147 106.619 169.365 113.943 168.387Z" fill="#DC9F8A"/>
<path d="M185.261 153.308C189.479 153.091 197.371 153.521 201.107 155.584C204.141 157.616 205.872 160.966 204.251 164.412C201.074 171.168 196.55 174.418 189.138 175.611C189.045 181.092 189.154 186.769 189.146 192.265C189.146 192.727 189.321 194.186 189.665 194.373C191.054 195.131 195.518 195.128 197.004 195.026C200.36 194.864 202.154 192.509 203.449 189.719C203.871 188.811 204.621 186.939 205.821 187.012C207.492 187.126 207.548 188.327 207.248 189.668C206.249 194.166 202.794 198.045 198.095 198.719C195.902 199.034 192.774 198.837 190.584 198.399C188.983 198.078 188.227 197.121 187.442 195.802L187.309 195.617C186.879 195.779 185.907 197.512 185.272 198.25L185.119 198.425C180.012 200.01 171.68 198.845 169.077 193.507C168.407 192.134 166.67 188.71 168.554 187.732C170.069 187.679 171.266 190.249 172.246 191.492C172.884 192.309 173.632 193.036 174.468 193.653C177.089 195.577 180.357 196.204 183.544 195.676L183.774 195.638C183.956 195.484 184.136 195.326 184.313 195.165C184.778 194.741 185.02 194.493 185.114 193.845C185.428 191.679 185.311 189.154 185.306 186.943C185.27 183.573 185.315 180.203 185.443 176.835C181.445 175.818 175.808 173.444 172.67 170.832C169.25 167.985 165.512 162.049 169.51 158.099C173.823 153.839 179.562 153.528 185.261 153.308Z" fill="#71552D"/>
<path d="M238.348 142.477C242.613 142.491 244.577 143.967 245.036 148.382C245.628 154.08 245.804 161.956 238.309 162.78C229.714 161.94 230.05 149.22 234.476 144.203C235.733 142.777 236.591 142.599 238.348 142.477Z" fill="#71552D"/>
<path d="M240.159 145.661C243.082 146.419 242.276 148.825 240.143 150.123C237.266 149.878 238.113 147.054 240.159 145.661Z" fill="#E4C594"/>
<path d="M134.8 143.603C138.327 143.39 141.348 145.477 142.011 149.025C142.967 154.139 143.078 162.704 136.577 164.166C132.494 164.14 130.005 161.202 129.264 157.482C128.274 152.519 128.675 144.776 134.8 143.603Z" fill="#71552D"/>
<path d="M137.522 146.652C139.897 147.343 140.2 150.482 137.773 150.849C136.625 150.756 135.418 150.829 135.632 149.026C135.752 148.019 136.682 147.176 137.522 146.652Z" fill="#E4C594"/>
<path d="M265.01 50.108C266.088 49.9772 268.954 49.9764 270.106 50.0207C278.646 50.349 284.784 52.9806 290.576 59.1844C296.733 65.7791 299.136 73.2067 298.868 82.113C298.611 89.8129 295.514 97.1478 290.168 102.713C288.486 104.477 285.898 106.66 284.025 108.409C282.674 106.106 279.937 102.499 278.307 100.227C281.4 97.1729 283.612 94.029 285.23 89.9502C286.527 86.5495 286.616 80.5426 285.865 77.006C284.883 72.3742 281.599 66.969 277.521 64.4559C273.536 62.0015 267.632 60.4992 263.001 61.634C257.056 63.0901 251.079 68.0458 247.914 73.1197C245.735 72.1841 240.822 70.079 238.969 68.9281C240.317 66.0189 242.524 63.0189 244.56 60.555C249.888 54.1108 256.549 50.7288 265.01 50.108Z" fill="#E4C594"/>
<path d="M155.332 235.761C157.267 235.994 159.464 235.958 161.39 236.158C165.531 236.59 169.369 236.796 173.513 236.931C176.683 237.033 182.141 237.023 185.155 237.512C186.054 241.423 185.861 249.759 185.685 253.898C185.447 259.491 184.422 265.616 183.988 271.24L182.374 271.182C171.05 271.236 162.86 269.834 151.805 268.198C152.233 266.344 152.669 262.198 152.966 260.11C154.066 252.364 155.218 243.597 155.332 235.761Z" fill="#95B9B5"/>
<path d="M232.634 232.37C232.932 232.326 233.118 232.316 233.37 232.504C235.399 234.02 238.179 251.386 238.622 254.668C239.094 258.159 239.287 261.68 239.787 265.169C236.345 265.35 231.187 266.485 227.716 267.235C222.439 268.377 217.783 269.195 212.455 269.978C210.947 270.208 209.371 270.391 207.853 270.59C208.056 269.115 207.945 266.67 208.01 265.097C208.294 258.249 207.774 251.465 207.159 244.648C206.927 242.084 206.716 238.647 206.303 236.138C209.247 236.061 213.606 235.443 216.571 235.011C221.944 234.237 227.298 233.356 232.634 232.37Z" fill="#95B9B5"/>
<path d="M110.644 225.886C113.02 225.784 118.065 227.753 120.45 228.5C124.316 229.709 131.106 232.255 134.965 232.565C131.572 238.877 130.252 247.629 129.268 254.641C129.047 256.211 128.538 261.071 128.036 262.311C127.239 262.725 125.947 262.259 125.065 262.029C122.344 260.8 119.388 259.457 116.603 258.367C111.2 256.254 104.914 254.184 100.119 250.829C100.605 249.511 100.979 248.099 101.35 246.742C103.283 239.667 106.524 231.956 110.644 225.886Z" fill="#959FB9"/>
<path d="M297.597 242.288C299.292 243.867 301.124 248.632 301.795 250.768C305.507 262.685 297.254 272.314 285.922 275.216C280.27 276.664 277.303 276.711 272.177 273.824C267.389 270.454 266.158 265.922 264.684 260.561C272.011 256.454 280.818 253.226 288.233 249.004C291.299 247.26 294.641 244.389 297.597 242.288Z" fill="#E4C594"/>
<path d="M267 222.649C268.394 222.528 269.912 226.058 270.478 227.161C272.097 230.212 273.934 232.887 275.208 236.122C277.033 240.757 277.279 245.692 278.766 250.369C275.499 252.564 270.065 254.344 266.404 255.81C264.179 256.7 262.038 257.657 259.832 258.581L256.781 259.642C256.55 258.577 256.17 257.396 255.865 256.341C253.26 247.306 252.034 237.671 248.322 228.985C255 226.103 260.026 224.538 267 222.649Z" fill="#95B9B5"/>
<path d="M100.92 65.3631C101.127 65.3436 101.335 65.3289 101.542 65.3185C107.478 65.0061 111.934 66.7194 115.888 71.1818C117.152 72.6081 118.517 74.6376 119.921 75.8472C118.884 76.4794 117.44 77.6713 116.395 78.4292C111.865 81.7149 107.59 85.5041 103.836 89.6529C102.304 91.3459 100.567 93.6874 98.9997 95.5367C97.2811 97.3182 95.7422 98.9303 94.1927 100.859C89.0835 95.4522 86.3592 93.9945 85.5205 85.8783C84.9889 80.7342 85.945 76.1168 89.3006 72.0169C92.5129 68.0923 95.8414 65.8852 100.92 65.3631Z" fill="#DC9F8A"/>
<path d="M265.875 64.732C272.299 64.1304 277.278 65.9272 280.797 71.6167C283.402 75.8285 284.065 83.0607 282.841 87.8279C281.727 92.1703 280.069 94.8426 276.219 97.1406C275.24 95.5731 274.08 94.3505 272.863 92.9678C269.549 88.7741 266.201 86.8255 262.335 83.5254C258.452 80.2115 254.834 77.5425 250.744 74.5093C251.467 73.0815 252.115 71.5964 253.315 70.4671C257.859 66.193 259.927 64.9758 265.875 64.732Z" fill="#DC9F8A"/>
<path d="M137.457 233.107C138.688 233.092 141.998 233.935 143.521 234.166C146.573 234.631 149.89 234.734 152.822 235.523C152.829 237.971 152.472 243.064 152.246 245.541C151.644 252.157 151.146 261.506 149.365 267.773C148.447 267.586 147.278 267.443 146.332 267.304C139.646 266.552 136.367 264.869 130.203 263.061C130.36 255.849 133.725 239.119 137.457 233.107Z" fill="#FFC973"/>
<path d="M203.373 236.657L203.638 236.652L203.89 236.895C204.048 237.574 204.328 242.063 204.436 243.147C205.379 252.505 205.947 261.274 205.271 270.683C201.326 271.12 193.11 271.302 189.074 271.335L186.623 271.318C186.813 268.5 186.708 265.225 187.044 262.48C188.066 254.131 187.5 245.524 188.153 237.234C193.535 237.22 198.011 237.013 203.373 236.657Z" fill="#E494C9"/>
<path d="M245.028 229.581C245.581 229.499 245.935 229.384 246.45 229.582C246.936 230.231 247.153 230.985 247.392 231.745C249.718 239.16 251.849 246.529 253.276 254.174C253.645 256.152 254.176 258.558 254.955 260.393C251.964 261.376 248.957 262.31 245.935 263.192C244.619 263.539 243.758 263.819 242.477 264.292C241.587 261.401 240.8 255.488 240.282 252.343L237.179 234.237C237.069 233.572 236.723 231.953 237.169 231.564C238.626 230.296 243.215 229.784 245.028 229.581Z" fill="#959FB9"/>
<path d="M280.101 215.585L280.343 215.588C283.282 218.136 290.282 235.759 293.439 240.708C289.726 243.894 286.908 246.269 282.489 248.453L280.67 249.286C279.564 244.935 278.428 240.537 277.041 236.266C275.283 230.857 272.281 226.083 269.35 221.263C273.083 219.232 276.287 217.491 280.101 215.585Z" fill="#E494C9"/>
<path d="M98.1111 221.284C100.059 221.399 106.21 224.291 108.323 225.105C104.588 231.405 101.957 237.572 100.109 244.671C99.9696 245.206 98.766 249.769 98.5917 249.971L98.273 249.849C94.4169 247.77 91.7245 247.565 87.3555 244.502C88.2276 242.442 88.7054 240.575 89.3761 238.496C91.0452 233.326 94.0051 224.928 98.1111 221.284Z" fill="#E494C9"/>
<path d="M86.8066 213.33C88.2051 213.603 95.3815 217.906 96.8933 218.81C91.3708 224.628 89.3085 232.166 86.8215 239.489C86.3608 240.596 85.3662 242.819 84.0358 242.834C81.9526 241.249 80.1621 236.511 80.6463 233.901C81.3061 230.344 83.7977 227.811 84.8646 224.275C85.9112 220.807 85.5572 216.595 86.8066 213.33Z" fill="#95B9B5"/>
<path d="M287.748 208.986C289.519 209.431 292.362 212.901 292.538 214.776C292.748 217.004 292.992 219.138 293.624 221.299C294.988 225.96 298.795 229.868 299.222 234.767C297.967 237.156 297.075 238.061 295.14 239.933L294.426 238.258C292.704 234.376 290.954 230.506 289.177 226.647C286.705 221.265 285.111 218.06 281.564 213.283C283.648 211.883 285.71 210.451 287.748 208.986Z" fill="#95B9B5"/>
<path d="M111.085 270.889C112.731 270.423 112.638 268.685 114.036 268.403L114.284 268.723C114.371 269.461 114.276 269.619 114.065 270.359C113.097 271.796 112.405 272.444 111.092 273.589C110.628 273.494 110.662 273.492 110.309 273.169C109.954 271.958 111.092 271.87 111.085 270.889Z" fill="#71552D"/>
<path d="M116.381 262.16L116.796 262.233C116.617 262.976 116.009 263.212 116.036 263.921C116.276 264.331 116.37 264.611 116.801 264.787C117.461 264.362 117.201 263.491 117.702 263.399L117.893 263.65C117.322 264.843 116.186 267.32 115.424 268.295C115.315 267.904 115.28 267.885 115.061 267.533C114.6 267.225 114.192 267.325 113.615 267.355C114.69 265.488 115.477 264.116 116.381 262.16Z" fill="#71552D" fill-opacity="0.988235"/>
<path d="M107.084 274.166C108.635 273.299 110.439 271.182 111.086 270.889C111.092 271.87 109.954 271.958 110.309 273.169C110.662 273.492 110.628 273.494 111.092 273.589C109.964 274.542 107.827 276.132 106.443 276.619C106.696 275.586 107.518 276.473 107.639 275.111C107.316 274.588 107.531 274.752 107.042 274.526L107.084 274.166Z" fill="#71552D" fill-opacity="0.980392"/>
<path d="M113.615 267.355C114.191 267.325 114.599 267.225 115.061 267.533C115.279 267.885 115.314 267.904 115.423 268.295C114.989 269.012 114.597 269.714 114.064 270.359C114.275 269.619 114.37 269.461 114.282 268.723L114.034 268.403C112.637 268.685 112.73 270.423 111.084 270.889C111.328 270.411 113.151 268.011 113.615 267.355Z" fill="#71552D" fill-opacity="0.980392"/>
</svg>
