<svg width="395" height="101" viewBox="0 0 395 101" fill="none" xmlns="http://www.w3.org/2000/svg">
<path d="M64.6605 80.7719C58.3005 80.7719 52.5765 80.1359 47.4885 78.8639C42.4005 77.5212 38.0545 75.6486 34.4505 73.2459C30.8465 70.7726 28.0905 67.8399 26.1825 64.4479C24.2745 61.0559 23.3205 57.3106 23.3205 53.2119C23.3205 49.1132 24.2745 45.4032 26.1825 42.0819C28.0905 38.6899 30.8465 35.7925 34.4505 33.3899C38.0545 30.9166 42.4005 29.0439 47.4885 27.7719C52.5765 26.4292 58.3005 25.7579 64.6605 25.7579C72.2925 25.7579 79.0765 26.8532 85.0125 29.0439C91.0191 31.1639 95.7185 34.2732 99.1105 38.3719C102.502 42.4705 104.198 47.4172 104.198 53.2119C104.198 59.2892 102.502 64.3772 99.1105 68.4759C95.7185 72.5746 91.0191 75.6486 85.0125 77.6979C79.0765 79.7472 72.2925 80.7719 64.6605 80.7719ZM55.1205 64.5539C59.9258 64.5539 64.0245 64.1299 67.4165 63.2819C70.8085 62.4339 73.3878 61.1972 75.1545 59.5719C76.9211 57.8759 77.8045 55.7559 77.8045 53.2119C77.8045 49.4666 75.8258 46.6399 71.8685 44.7319C67.9111 42.8239 62.3285 41.8699 55.1205 41.8699C49.7498 41.8699 44.8031 42.1879 40.2805 42.8239C35.8285 43.4599 32.2245 44.6259 29.4685 46.3219C26.7831 47.9472 25.4405 50.2439 25.4405 53.2119C25.4405 56.1799 26.7831 58.5119 29.4685 60.2079C32.2245 61.8332 35.8285 62.9639 40.2805 63.5999C44.8031 64.2359 49.7498 64.5539 55.1205 64.5539ZM0.00046894 27.2419H23.9565L25.4405 47.3819V100.382H0.00046894V27.2419ZM153.433 -0.000119328V15.8999H126.509V-0.000119328H153.433ZM127.251 27.2419H152.691V79.1819H127.251V27.2419ZM273.664 56.6039C273.664 61.6919 272.074 66.0379 268.894 69.6419C265.714 73.2459 260.697 76.0019 253.842 77.9099C246.988 79.8179 238.084 80.7719 227.13 80.7719C216.177 80.7719 206.849 79.8886 199.146 78.1219C191.514 76.3552 185.684 73.4579 181.656 69.4299C177.699 65.4019 175.72 60.0312 175.72 53.3179C175.72 46.6045 177.699 41.2339 181.656 37.2059C185.684 33.1072 191.514 30.1745 199.146 28.4079C206.849 26.5706 216.177 25.6519 227.13 25.6519C238.084 25.6519 246.952 26.6059 253.736 28.5139C260.52 30.4219 265.502 33.1779 268.682 36.7819C271.862 40.3859 273.488 44.6965 273.558 49.7139H250.238C249.108 46.9579 246.564 44.8379 242.606 43.3539C238.649 41.7992 233.49 41.0219 227.13 41.0219C221.972 41.0219 217.484 41.4106 213.668 42.1879C209.852 42.8946 206.884 44.1312 204.764 45.8979C202.715 47.6646 201.69 50.1379 201.69 53.3179C201.69 56.4272 202.715 58.8652 204.764 60.6319C206.814 62.3986 209.746 63.6352 213.562 64.3419C217.378 65.0486 221.901 65.4019 227.13 65.4019C233.49 65.4019 238.649 64.6599 242.606 63.1759C246.634 61.6212 249.214 59.4306 250.344 56.6039H273.664ZM344.169 80.7719C332.933 80.7719 323.57 79.8532 316.079 78.0159C308.659 76.1786 303.077 73.2459 299.331 69.2179C295.657 65.1899 293.819 59.8899 293.819 53.3179C293.819 46.7459 295.657 41.4459 299.331 37.4179C303.077 33.3192 308.659 30.3512 316.079 28.5139C323.57 26.6059 332.933 25.6519 344.169 25.6519C355.335 25.6519 364.592 26.6059 371.941 28.5139C379.361 30.3512 384.909 33.3192 388.583 37.4179C392.258 41.4459 394.095 46.7459 394.095 53.3179C394.095 59.8899 392.258 65.1899 388.583 69.2179C384.909 73.2459 379.361 76.1786 371.941 78.0159C364.592 79.8532 355.335 80.7719 344.169 80.7719ZM344.169 65.4019C349.399 65.4019 353.78 64.9779 357.313 64.1299C360.847 63.2112 363.532 61.8686 365.369 60.1019C367.207 58.2646 368.125 56.0032 368.125 53.3179C368.125 50.6326 367.207 48.3712 365.369 46.5339C363.603 44.6965 360.953 43.3185 357.419 42.3999C353.886 41.4812 349.469 41.0219 344.169 41.0219C338.94 41.0219 334.488 41.4812 330.813 42.3999C327.209 43.3185 324.453 44.6965 322.545 46.5339C320.708 48.3005 319.789 50.5619 319.789 53.3179C319.789 56.0032 320.708 58.2646 322.545 60.1019C324.383 61.8686 327.103 63.2112 330.707 64.1299C334.382 64.9779 338.869 65.4019 344.169 65.4019Z" fill="white"/>
</svg>
