<svg width="175" height="212" viewBox="0 0 175 212" fill="none" xmlns="http://www.w3.org/2000/svg">
<g filter="url(#filter0_d_105_1215)">
<path d="M45.2662 143.601C45.6363 138.553 46.9932 133.32 49.3369 127.902C51.6807 122.362 54.6412 116.944 58.2185 111.65C61.7957 106.232 65.8048 101.061 70.2456 96.1362C74.6863 91.0881 79.1271 86.5324 83.5679 82.4693C79.1271 75.6974 76.5983 68.8025 75.9816 61.7843C75.4881 54.7662 76.5367 48.4253 79.1271 42.7615C81.8409 36.9747 85.9733 32.2344 91.5243 28.5406C97.0752 24.8469 103.675 23 111.323 23C118.477 23 124.09 25.0931 128.161 29.2794C132.231 33.3425 134.575 38.5137 135.192 44.7931C135.932 51.0725 134.822 57.9675 131.861 65.4781C129.024 72.8656 124.152 79.8221 117.244 86.3477L130.566 110.542L149.994 88.0099C151.598 86.9018 153.448 86.8402 155.545 87.8252C157.766 88.8102 159.739 90.4109 161.466 92.6271C163.317 94.8434 164.612 97.4905 165.352 100.569C166.216 103.524 166.216 106.479 165.352 109.434L144.999 136.029L164.982 168.349C164.735 171.796 163.44 174.444 161.096 176.29C158.876 178.137 156.347 179.43 153.51 180.169C150.796 180.908 148.144 181.154 145.554 180.908C143.087 180.661 141.483 180.107 140.743 179.245L125.94 154.313C121.129 160.223 115.702 165.086 109.657 168.903C103.613 172.597 97.4453 175.244 91.1542 176.845C84.9865 178.445 78.9421 178.938 73.021 178.322C67.2234 177.706 62.1041 176.044 57.6634 173.335C53.3459 170.627 50.0154 166.81 47.6716 161.885C45.3279 156.837 44.5261 150.742 45.2662 143.601ZM96.1501 105.74C92.9428 108.695 89.9823 112.142 87.2685 116.082C84.5547 120.022 82.396 123.962 80.7924 127.902C79.1888 131.719 78.2019 135.228 77.8319 138.43C77.5852 141.508 78.2019 143.601 79.6822 144.709C81.6559 146.186 83.8763 146.802 86.3434 146.556C88.9338 146.186 91.5859 145.263 94.2997 143.786C97.1369 142.308 99.8507 140.4 102.441 138.06C105.155 135.721 107.622 133.197 109.842 130.488L96.1501 105.74ZM108.917 45.9012C106.697 45.7781 105.032 46.8247 103.921 49.0409C102.811 51.134 102.071 53.5965 101.701 56.4284C101.454 59.1371 101.578 61.6612 102.071 64.0006C102.688 66.34 103.675 67.5712 105.032 67.6943C106.635 67.8175 107.992 66.7709 109.102 64.5546C110.213 62.3384 111.014 59.8759 111.508 57.1672C112.001 54.4584 112.063 51.9343 111.693 49.595C111.323 47.2556 110.398 46.0244 108.917 45.9012Z" fill="#AE6FFB"/>
<path d="M111.323 19C119.275 19.0001 126.002 21.3493 130.985 26.4482H130.986C135.761 31.2139 138.455 37.252 139.165 44.3252L139.236 44.9912C139.918 51.8904 138.622 59.2349 135.583 66.9453C132.816 74.1347 128.317 80.8375 122.21 87.0732L131.294 103.571L146.966 85.3975L147.3 85.0098L147.72 84.7188C150.71 82.6531 154.089 82.7485 157.167 84.1689H157.168C160.045 85.4454 162.496 87.4692 164.55 90.0791C166.809 92.7899 168.35 95.978 169.221 99.5586C170.267 103.21 170.258 106.905 169.191 110.556L168.982 111.272L168.529 111.864L149.85 136.27L168.385 166.245L169.064 167.345L168.971 168.635C168.658 173.01 166.943 176.777 163.572 179.433L163.571 179.432C160.911 181.624 157.881 183.164 154.518 184.04L154.517 184.039C151.391 184.885 148.269 185.184 145.176 184.89L145.156 184.888C143.741 184.746 142.391 184.501 141.194 184.088C140.029 183.685 138.713 183.022 137.708 181.852L137.481 181.587L137.303 181.287L125.313 161.092C121.203 165.45 116.698 169.187 111.793 172.285L111.768 172.301L111.743 172.316C105.388 176.2 98.8526 179.013 92.1404 180.721L92.1394 180.72C85.5483 182.428 79.0299 182.969 72.6072 182.301L72.5984 182.3C66.2841 181.629 60.5846 179.802 55.5808 176.75L55.5593 176.737L55.5378 176.724C50.5309 173.582 46.7058 169.165 44.0593 163.604L44.0515 163.587L44.0437 163.569C41.3226 157.708 40.4965 150.857 41.2859 143.211C41.7038 137.68 43.1878 132.042 45.6658 126.314C48.1144 120.532 51.1971 114.896 54.9041 109.41C58.5792 103.848 62.6927 98.543 67.2419 93.4941C70.9655 89.2614 74.7 85.3559 78.446 81.7812C74.7743 75.4327 72.5895 68.8779 71.9968 62.1348L71.991 62.0645C71.4569 54.4669 72.5869 47.445 75.49 41.0977L75.4978 41.0801L75.5056 41.0635C78.5437 34.5852 83.1761 29.2915 89.3083 25.2109C95.6085 21.0187 103.006 19 111.323 19ZM95.2439 112.365C93.6143 114.193 92.0528 116.188 90.5623 118.352C87.9926 122.082 85.9789 125.769 84.4968 129.41L84.489 129.431L84.4802 129.452C82.9975 132.981 82.1377 136.093 81.8142 138.812C81.7234 140.013 81.823 140.76 81.946 141.178C82.0478 141.523 82.1351 141.555 82.0925 141.517C83.2363 142.369 84.4332 142.709 85.8718 142.581C87.8866 142.281 90.0546 141.543 92.3875 140.272L92.4519 140.237C94.9618 138.93 97.3994 137.224 99.7605 135.092L99.7947 135.061L99.8298 135.03C101.677 133.438 103.396 131.756 104.994 129.987L95.2439 112.365ZM107.764 50.375C107.684 50.4921 107.593 50.6413 107.498 50.832L107.477 50.874L107.455 50.915C106.618 52.492 106.002 54.4525 105.678 56.8691C105.508 58.7988 105.558 60.5642 105.804 62.1797C106.588 60.482 107.184 58.5793 107.572 56.4502C107.986 54.1798 108.028 52.1652 107.764 50.375Z" stroke="white" stroke-width="8"/>
</g>
<defs>
<filter id="filter0_d_105_1215" x="0" y="0" width="175" height="212" filterUnits="userSpaceOnUse" color-interpolation-filters="sRGB">
<feFlood flood-opacity="0" result="BackgroundImageFix"/>
<feColorMatrix in="SourceAlpha" type="matrix" values="0 0 0 0 0 0 0 0 0 0 0 0 0 0 0 0 0 0 127 0" result="hardAlpha"/>
<feOffset dx="-18" dy="4"/>
<feGaussianBlur stdDeviation="9.5"/>
<feComposite in2="hardAlpha" operator="out"/>
<feColorMatrix type="matrix" values="0 0 0 0 0 0 0 0 0 0 0 0 0 0 0 0 0 0 0.25 0"/>
<feBlend mode="normal" in2="BackgroundImageFix" result="effect1_dropShadow_105_1215"/>
<feBlend mode="normal" in="SourceGraphic" in2="effect1_dropShadow_105_1215" result="shape"/>
</filter>
</defs>
</svg>
