<svg width="271" height="218" viewBox="0 0 271 218" fill="none" xmlns="http://www.w3.org/2000/svg">
<g filter="url(#filter0_d_105_1216)">
<path d="M53.0723 110.253C53.3292 102.609 54.8707 95.3355 57.6967 88.4314C60.6512 81.5273 64.3765 75.4862 68.8725 70.3082C73.4969 65.1301 78.6352 61.0616 84.2873 58.1027C89.9394 55.0205 95.72 53.4795 101.629 53.4795C107.538 53.3562 113.319 55.0822 118.971 58.6575C124.623 62.1096 129.633 67.7191 134 75.4862C134.514 78.4451 134.129 81.3424 132.844 84.178C131.688 86.8903 129.954 89.2328 127.642 91.2054C125.329 93.178 122.696 94.5958 119.741 95.4588C116.915 96.1985 114.089 96.1369 111.263 95.2739C109.979 91.5753 108.501 88.9862 106.832 87.5068C105.29 86.0273 103.684 85.4109 102.014 85.6575C100.473 85.904 98.9314 86.8287 97.3899 88.4314C95.8484 90.0342 94.4354 92.0068 93.1508 94.3492C91.8663 96.6917 90.7744 99.2191 89.8752 101.931C89.1044 104.52 88.6548 107.048 88.5264 109.514C88.2695 112.349 88.6548 115.123 89.6825 117.835C90.8386 120.548 92.4443 122.582 94.4996 123.938C96.5549 125.294 98.8672 125.664 101.436 125.048C104.134 124.431 106.96 122.212 109.914 118.39C111.456 116.171 113.64 115.062 116.466 115.062C119.292 115.062 122.054 115.74 124.751 117.096C127.577 118.329 130.082 120.055 132.266 122.274C134.45 124.37 135.67 126.342 135.927 128.192C131.816 137.438 126.807 144.835 120.898 150.383C115.117 155.808 109.079 159.507 102.785 161.479C96.4907 163.452 90.2606 163.822 84.0946 162.589C78.0571 161.233 72.6619 158.335 67.909 153.897C63.1561 149.459 59.3666 143.603 56.5406 136.329C53.843 128.931 52.6869 120.24 53.0723 110.253Z" fill="#AE6FFB"/>
<path d="M169.801 164.993C161.451 164.5 154.515 162.465 148.991 158.89C143.596 155.315 139.485 150.815 136.659 145.39C133.833 139.842 132.099 133.678 131.457 126.897C130.943 120.116 131.328 113.212 132.613 106.185C133.897 99.1574 136.017 92.3766 138.971 85.8424C142.054 79.1849 145.715 73.3904 149.955 68.4589C154.322 63.4041 159.139 59.4589 164.406 56.6233C169.673 53.7877 175.261 52.6164 181.17 53.1096C187.849 53.3562 193.63 55.2055 198.511 58.6575C203.393 61.9863 207.311 66.363 210.265 71.7876C213.348 77.089 215.468 83.1301 216.624 89.9109C217.908 96.5684 218.294 103.349 217.78 110.253C217.266 117.157 215.853 123.938 213.541 130.596C211.228 137.13 208.017 142.986 203.906 148.164C199.924 153.342 195.043 157.472 189.262 160.555C183.61 163.637 177.123 165.116 169.801 164.993ZM177.894 87.1369C175.71 86.8903 173.848 87.7533 172.306 89.7259C170.765 91.6985 169.48 94.2259 168.452 97.3081C167.553 100.39 166.911 103.842 166.525 107.664C166.14 111.363 166.076 114.877 166.333 118.205C166.59 121.534 167.168 124.37 168.067 126.712C168.966 129.055 170.186 130.349 171.728 130.596C173.783 131.089 175.517 130.349 176.93 128.377C178.472 126.404 179.692 123.877 180.591 120.794C181.491 117.589 182.069 114.075 182.326 110.253C182.583 106.431 182.583 102.856 182.326 99.5273C182.197 96.0752 181.748 93.178 180.977 90.8355C180.206 88.4931 179.178 87.2602 177.894 87.1369Z" fill="#AE6FFB"/>
<path d="M162.51 53.1016C168.426 49.9164 174.757 48.5784 181.412 49.1172C188.71 49.4021 195.212 51.4428 200.765 55.3525C206.185 59.0486 210.519 63.9015 213.761 69.8428C217.077 75.5657 219.325 82.0192 220.551 89.1533L220.794 90.4697C221.951 97.0578 222.274 103.754 221.769 110.55C221.229 117.806 219.743 124.929 217.319 131.908L217.312 131.93C214.866 138.84 211.456 145.073 207.076 150.602L207.077 150.603C202.754 156.223 197.444 160.718 191.177 164.065C184.838 167.522 177.651 169.126 169.733 168.992L169.649 168.991L169.565 168.986C160.709 168.463 153.058 166.288 146.817 162.248L146.8 162.236L146.781 162.225C140.855 158.298 136.269 153.299 133.111 147.238L133.104 147.222L133.095 147.206C132.567 146.17 132.076 145.114 131.619 144.041C129.175 147.502 126.518 150.594 123.636 153.3H123.635C117.502 159.055 110.955 163.11 103.981 165.296C97.0788 167.459 90.1676 167.882 83.3105 166.511L83.2637 166.502L83.2178 166.491C76.4506 164.971 70.4237 161.718 65.1787 156.82C59.9073 151.898 55.8132 145.501 52.8125 137.777L52.7969 137.738L52.7822 137.699C49.8659 129.702 48.675 120.47 49.0752 110.099C49.3497 102 50.9873 94.2642 53.9951 86.916L54.0068 86.8867L54.0195 86.8574C57.1219 79.608 61.0599 73.2052 65.8525 67.6855L65.8701 67.665L65.8887 67.6436C70.8049 62.1387 76.3177 57.7593 82.4316 54.5586C88.5991 51.2067 95.0132 49.4795 101.629 49.4795V49.4805C108.394 49.3567 114.909 51.3553 121.109 55.2773H121.108C127.488 59.1899 132.908 65.3829 137.486 73.5254L137.823 74.125L137.941 74.8018C138.157 76.0423 138.244 77.2753 138.211 78.4971C140.782 73.8414 143.681 69.6209 146.921 65.8516L146.928 65.8438C151.577 60.4633 156.767 56.1935 162.51 53.1016ZM176.803 91.1377C176.411 91.2334 175.987 91.5119 175.458 92.1885C174.278 93.6983 173.191 95.7636 172.272 98.4971C171.464 101.288 170.867 104.471 170.505 108.065L170.504 108.079C170.141 111.564 170.085 114.835 170.321 117.897C170.558 120.959 171.077 123.394 171.801 125.278C172.124 126.119 172.41 126.521 172.554 126.68L172.661 126.706C172.828 126.746 172.918 126.745 172.949 126.743C172.975 126.741 172.986 126.738 173.001 126.731C173.028 126.72 173.28 126.604 173.679 126.047L173.728 125.979L173.778 125.914C174.932 124.438 175.955 122.403 176.75 119.68C177.559 116.784 178.095 113.558 178.335 109.985C178.581 106.328 178.578 102.947 178.338 99.835L178.331 99.7559L178.328 99.6758C178.208 96.4611 177.795 93.9617 177.178 92.0859C177.044 91.6789 176.915 91.3684 176.803 91.1377ZM104.062 90.3926C103.227 89.5918 102.801 89.5896 102.637 89.6094C102.247 89.6746 101.45 89.9799 100.272 91.2041C99.019 92.5074 97.8059 94.1796 96.6582 96.2725C95.5073 98.3712 94.5166 100.654 93.6924 103.129C93.014 105.422 92.6301 107.618 92.5205 109.722L92.5166 109.798L92.5098 109.874C92.3111 112.067 92.5993 114.208 93.3936 116.338C94.2986 118.431 95.4365 119.764 96.7021 120.6C97.7605 121.298 98.9226 121.537 100.503 121.158L100.524 121.153L100.545 121.148C101.872 120.845 103.965 119.534 106.72 115.98C109.047 112.713 112.453 111.062 116.466 111.062C119.928 111.062 123.273 111.891 126.464 113.48C126.826 113.64 127.185 113.806 127.538 113.98C127.777 111.158 128.156 108.319 128.678 105.466C129.481 101.07 130.599 96.7658 132.027 92.5547C131.465 93.1434 130.869 93.7092 130.237 94.248C127.49 96.592 124.353 98.2795 120.863 99.2988L120.809 99.3145L120.754 99.3281C117.202 100.258 113.621 100.176 110.095 99.0996L108.151 98.5059L107.484 96.5859C106.278 93.1122 105.081 91.3001 104.179 90.501L104.119 90.4482L104.062 90.3926Z" stroke="white" stroke-width="8"/>
</g>
<defs>
<filter id="filter0_d_105_1216" x="0" y="0" width="271" height="218" filterUnits="userSpaceOnUse" color-interpolation-filters="sRGB">
<feFlood flood-opacity="0" result="BackgroundImageFix"/>
<feColorMatrix in="SourceAlpha" type="matrix" values="0 0 0 0 0 0 0 0 0 0 0 0 0 0 0 0 0 0 127 0" result="hardAlpha"/>
<feOffset/>
<feGaussianBlur stdDeviation="22.5"/>
<feComposite in2="hardAlpha" operator="out"/>
<feColorMatrix type="matrix" values="0 0 0 0 0 0 0 0 0 0 0 0 0 0 0 0 0 0 0.25 0"/>
<feBlend mode="normal" in2="BackgroundImageFix" result="effect1_dropShadow_105_1216"/>
<feBlend mode="normal" in="SourceGraphic" in2="effect1_dropShadow_105_1216" result="shape"/>
</filter>
</defs>
</svg>
