<svg width="387" height="336" viewBox="0 0 387 336" fill="none" xmlns="http://www.w3.org/2000/svg">
<path d="M236.132 67.2628C238.945 64.9753 239.88 61.4962 242.294 58.7135C250.148 49.6573 260.73 46.0755 272.605 47.3141C281.76 48.1961 289.229 53.0954 295.002 60.0085C295.829 60.9965 299.009 65.8169 299.392 66.9263C303.856 79.8088 302.291 95.8189 291.64 105.363C289.813 107.001 287.018 109.253 285.757 110.947L285.813 111.15C286.292 112.849 287.981 116.154 288.774 117.848C290.05 120.596 291.192 123.404 292.2 126.261C293.59 130.294 294.719 134.725 295.574 138.918C296.406 143.206 297.703 147.769 298.174 152.1C298.992 159.629 299.122 167.235 298.834 174.81C298.52 183.067 297.103 191.784 293.518 199.305C292.451 201.544 290.71 204.077 290.113 206.45C289.968 207.473 293.225 210.888 294.086 212.335C296.229 215.931 295.547 219.552 297.251 223.122C298.48 225.699 300.625 227.399 301.706 230.155C303.11 233.732 300.579 236.711 300.847 239.745C301.033 241.853 302.955 245.898 303.67 248.089C305.314 253.137 305.531 261.06 302.914 265.794C299.948 270.972 292.917 276.153 287.262 277.815C283.043 279.056 276.081 278.969 272.184 276.739C265.887 273.135 264.025 267.528 262.728 260.859C259.446 261.799 256.791 262.799 253.608 263.819C248.076 265.624 242.48 267.225 236.83 268.616C235.673 268.893 220.494 271.733 220.381 271.807C217.902 272.016 214.824 272.391 212.372 272.816C211.104 272.698 208.999 273.279 207.595 273.253C201.425 273.141 194.436 274.509 188.397 274.308C169.344 273.674 150.615 271.784 132.216 266.626C127.744 265.371 123.322 263.44 118.986 262.264L118.765 262.205C118.472 262.733 118.224 263.145 117.894 263.65L117.703 263.399C117.202 263.491 117.462 264.362 116.802 264.787C116.371 264.611 116.277 264.331 116.036 263.921C116.01 263.212 116.618 262.976 116.797 262.233L116.382 262.16C115.477 264.116 114.691 265.488 113.616 267.355C113.152 268.011 111.329 270.411 111.086 270.888C110.439 271.182 108.635 273.299 107.084 274.166L107.042 274.526C107.531 274.752 107.316 274.588 107.639 275.111C107.518 276.473 106.696 275.586 106.443 276.619C101.63 279.641 92.0596 278.752 87.1059 276.39C82.0904 273.999 77.3535 270.134 75.4313 264.779C73.4837 259.352 75.0119 253.463 77.0482 248.3C77.542 247.044 78.9775 243.848 79.1189 242.688C79.4611 239.882 77.8652 237.279 78.2783 234.089C78.8213 229.897 81.3929 227.235 82.5773 223.245C83.4965 220.147 82.808 216.016 84.1749 213.324C84.7505 212.394 85.0741 211.936 85.7612 211.083C83.7965 208.149 81.8784 206.194 79.7262 202.771C71.3349 188.826 72.6744 168.386 75.191 152.935C76.109 147.298 77.2108 141.019 78.8699 135.551C80.1826 131.197 81.6383 126.886 83.2343 122.627C84.2831 119.867 85.8794 116.881 86.426 114.138C86.5238 113.972 86.5817 113.725 86.6434 113.528C86.5055 113.091 86.0949 112.651 85.7505 112.345C81.9721 108.987 78.4643 106.072 75.2092 102.138C72.0422 98.184 69.2475 92.1719 68.5033 87.2026C68.1521 84.9583 68.0412 82.6829 68.1727 80.4152C68.4143 76.5629 70.113 68.8969 72.4023 65.8122C73.8461 63.3437 76.8759 59.6277 79.0685 57.9116C80.6489 55.376 89.885 50.7813 93.3001 49.8532C101.507 47.1465 108.81 48.4191 116.624 52.1514C123.798 55.5783 128.88 61.8829 131.914 69.206C131.944 69.3001 131.975 69.3943 132.005 69.4885C133.556 68.3734 136.474 67.3207 138.467 66.5521C155.796 59.8675 175.69 56.7254 194.227 58.0599C201.372 59.1083 208.609 59.8395 215.65 61.5014C216.824 61.7784 218.034 62.1821 219.174 62.4282C224.802 63.6405 230.612 66.0675 236.132 67.2628Z" fill="#71552D"/>
<path d="M95.6964 51.7365C103.965 50.4346 110.575 50.967 117.596 56.0792C121.905 59.2172 127.575 65.194 128.996 70.3198C127.384 71.8727 124.053 73.9359 122.131 75.1864C116.84 65.0628 110.522 61.9695 99.0134 63.3931C96.9591 63.6937 95.1095 64.4884 93.2753 65.382C83.3039 70.2406 82.4053 81.5952 84.2558 91.2263C85.1483 95.8717 89.9162 99.6585 93.4555 102.329C92.4048 104.495 89.603 109.143 87.8423 110.683C79.0314 104.51 73.1124 97.6241 71.0823 86.773C70.2386 82.2629 71.7255 74.3589 73.3066 69.9046C73.8779 68.2954 75.7781 65.7408 76.3232 64.3297C77.9808 61.9767 78.9231 60.8987 80.9164 58.9404C81.4223 58.6912 82.6973 57.6143 83.2198 57.2084C87.1519 54.1541 90.9628 52.9316 95.6964 51.7365Z" fill="#E4C594"/>
<path d="M81.4279 244.442C86.5781 248.832 90.6369 250.297 96.5667 253.247C98.9486 254.433 101.09 255.545 103.573 256.586C106.919 257.988 113.686 259.737 116.346 261.808L116.38 262.16C115.476 264.116 114.689 265.488 113.614 267.355C113.151 268.011 111.328 270.411 111.084 270.889C110.438 271.182 108.633 273.299 107.082 274.166C106.68 274.355 106.275 274.536 105.868 274.711C100.511 276.974 94.1166 276.682 88.8909 274.354C84.3074 272.311 79.8547 269.519 77.9817 264.636C75.355 257.788 78.8313 250.599 81.4279 244.442Z" fill="#E4C594"/>
<path d="M79.0679 57.9116C80.6483 55.376 89.8845 50.7813 93.2995 49.8532C92.0923 51.4277 88.4573 50.6509 88.7643 53.2429C90.3639 53.1207 94.7548 51.0666 95.6968 51.7365C90.9632 52.9316 87.1523 54.1541 83.2202 57.2084C82.6976 57.6143 81.4227 58.6912 80.9168 58.9404C79.0627 59.5453 80.7479 59.0146 78.666 58.9091C78.8606 58.5401 78.9345 58.2991 79.0679 57.9116Z" fill="#71552D"/>
<path d="M72.4023 65.8122C73.8461 63.3437 76.8759 59.6277 79.0686 57.9116C78.9351 58.2991 78.8612 58.5401 78.6666 58.9091C80.7485 59.0146 79.0633 59.5453 80.9174 58.9404C78.9241 60.8987 77.9818 61.9767 76.3242 64.3297C76.1798 63.3109 77.6644 62.0632 78.1658 61.0434C75.6757 59.6825 74.3103 65.0401 72.4023 65.8122Z" fill="#71552D"/>
<path d="M180.053 61.1041C180.146 61.0993 180.239 61.0946 180.332 61.0898C199.831 60.333 219.25 64.0115 237.111 71.8461C239.44 72.8538 243.777 74.6342 245.902 75.8986C252.786 79.9979 259.546 84.7903 265.368 90.2846C271.37 95.9484 274.927 100.861 279.238 107.761C289.961 124.576 295.817 144.016 296.161 163.938C296.299 169.157 296.177 176.19 295.387 181.381C294.128 189.678 290.701 201.513 284.72 207.574C280.403 211.949 272.886 216.382 267.283 218.978C265.215 219.937 262.443 220.799 260.265 221.532C257.369 222.507 254.301 223.762 251.384 224.58C247.205 225.755 242.779 226.649 238.561 227.66C229.049 229.937 219.538 231.776 209.809 232.834C207.261 233.111 204.578 233.645 202.015 233.889C199.058 234.173 196.008 234.217 193.035 234.265C186.296 234.485 179.55 234.435 172.814 234.116C159.122 233.333 144.34 231.236 130.854 228.677C123.829 227.343 116.41 224.516 109.694 222.024C102.444 219.334 95.4421 215.624 89.5019 210.625C81.1286 203.336 76.9584 190.166 76.5069 179.315C75.721 161.298 78.9435 143.2 85.4239 126.391C91.7674 109.937 102.725 93.4623 116.861 82.6842C119.157 80.9332 121.627 78.6747 124.052 77.2021C133.827 71.2666 144.373 66.9009 155.481 64.4802C163.559 62.6524 171.78 61.523 180.053 61.1041Z" fill="#E4C594"/>
<path d="M253.741 164.934C254.229 164.899 254.72 164.876 255.209 164.863C260.563 164.725 263.767 164.809 268.807 167.344C272.947 169.427 277.066 173.695 277.109 178.69C277.149 183.471 275.904 187.617 272.502 191.077C268.215 195.438 266.579 196.616 260.352 196.76C257.124 196.777 253.872 196.75 250.664 196.932C245.791 197.21 241.273 190.974 238.045 187.947L237.914 187.825C237.443 185.558 236.669 182.429 236.761 180.111C236.783 179.566 237.456 178.087 237.566 177.273C237.607 176.966 237.892 174.822 237.93 174.699C238.661 172.328 242.619 168.956 244.629 167.501C244.902 167.303 245.182 167.153 245.468 167.075C246.548 166.783 247.721 166.638 248.793 166.345C250.52 165.87 251.945 165.185 253.741 164.934Z" fill="#DC9F8A"/>
<path d="M113.943 168.387C118.074 167.884 129.943 169.928 132.797 172.892C143.572 184.086 135.971 198.268 121.219 199.845C114.686 200.63 107.085 200.33 102.069 195.348C96.1639 189.481 97.4185 185.884 97.4462 178.379C97.7322 177.941 98.0326 177.512 98.3472 177.096C102.916 171.147 106.619 169.365 113.943 168.387Z" fill="#DC9F8A"/>
<path d="M185.261 153.308C189.479 153.091 197.371 153.521 201.107 155.584C204.141 157.616 205.872 160.966 204.251 164.412C201.074 171.168 196.55 174.418 189.138 175.611C189.045 181.092 189.154 186.769 189.146 192.265C189.146 192.727 189.321 194.186 189.665 194.373C191.054 195.131 195.518 195.128 197.004 195.026C200.36 194.864 202.154 192.509 203.449 189.719C203.871 188.811 204.621 186.939 205.821 187.012C207.492 187.126 207.548 188.327 207.248 189.668C206.249 194.166 202.794 198.045 198.095 198.719C195.902 199.034 192.774 198.837 190.584 198.399C188.983 198.078 188.227 197.121 187.442 195.802L187.309 195.617C186.879 195.779 185.907 197.512 185.272 198.25L185.119 198.425C180.012 200.01 171.68 198.845 169.077 193.507C168.407 192.134 166.67 188.71 168.554 187.732C170.069 187.679 171.266 190.248 172.246 191.492C172.884 192.309 173.632 193.036 174.468 193.653C177.089 195.577 180.357 196.204 183.544 195.676L183.774 195.638C183.956 195.484 184.136 195.326 184.313 195.165C184.778 194.741 185.02 194.493 185.114 193.845C185.428 191.679 185.311 189.154 185.306 186.943C185.27 183.573 185.315 180.203 185.443 176.835C181.445 175.818 175.808 173.444 172.67 170.832C169.25 167.985 165.512 162.049 169.51 158.099C173.823 153.839 179.562 153.528 185.261 153.308Z" fill="#71552D"/>
<path d="M238.348 142.477C242.613 142.491 244.577 143.967 245.036 148.382C245.628 154.08 245.804 161.956 238.309 162.78C229.714 161.94 230.05 149.22 234.476 144.203C235.733 142.777 236.591 142.599 238.348 142.477Z" fill="#71552D"/>
<path d="M240.159 145.661C243.082 146.419 242.276 148.825 240.143 150.123C237.266 149.878 238.113 147.054 240.159 145.661Z" fill="#E4C594"/>
<path d="M134.8 143.603C138.327 143.39 141.348 145.477 142.011 149.025C142.967 154.139 143.078 162.704 136.577 164.166C132.494 164.14 130.005 161.202 129.264 157.482C128.274 152.519 128.675 144.776 134.8 143.603Z" fill="#71552D"/>
<path d="M137.522 146.652C139.897 147.343 140.2 150.482 137.773 150.849C136.625 150.756 135.418 150.829 135.632 149.026C135.752 148.019 136.682 147.176 137.522 146.652Z" fill="#E4C594"/>
<path d="M265.01 50.108C266.088 49.9772 268.954 49.9764 270.106 50.0207C278.646 50.349 284.784 52.9806 290.576 59.1844C296.733 65.7791 299.136 73.2067 298.868 82.113C298.611 89.8129 295.514 97.1478 290.168 102.713C288.486 104.477 285.898 106.66 284.025 108.409C282.674 106.106 279.937 102.499 278.307 100.227C281.4 97.1729 283.612 94.029 285.23 89.9502C286.527 86.5495 286.616 80.5426 285.865 77.006C284.883 72.3742 281.599 66.969 277.521 64.4559C273.536 62.0015 267.632 60.4992 263.001 61.634C257.056 63.0901 251.079 68.0458 247.914 73.1197C245.735 72.1841 240.822 70.079 238.969 68.9281C240.317 66.0189 242.524 63.0189 244.56 60.555C249.888 54.1108 256.549 50.7288 265.01 50.108Z" fill="#E4C594"/>
<path d="M155.332 235.761C157.267 235.994 159.464 235.958 161.39 236.158C165.531 236.59 169.369 236.796 173.513 236.931C176.683 237.033 182.141 237.023 185.155 237.512C186.054 241.423 185.861 249.759 185.685 253.898C185.447 259.491 184.422 265.616 183.988 271.24L182.374 271.182C171.05 271.236 162.86 269.834 151.805 268.198C152.233 266.344 152.669 262.198 152.966 260.11C154.066 252.364 155.218 243.597 155.332 235.761Z" fill="#95B9B5"/>
<path d="M232.634 232.37C232.932 232.326 233.118 232.316 233.37 232.504C235.399 234.02 238.179 251.386 238.622 254.668C239.094 258.159 239.287 261.68 239.787 265.169C236.345 265.35 231.187 266.485 227.716 267.235C222.439 268.377 217.783 269.195 212.455 269.978C210.947 270.208 209.371 270.391 207.853 270.59C208.056 269.115 207.945 266.67 208.01 265.097C208.294 258.249 207.774 251.465 207.159 244.648C206.927 242.084 206.716 238.647 206.303 236.138C209.247 236.061 213.606 235.443 216.571 235.011C221.944 234.237 227.298 233.356 232.634 232.37Z" fill="#95B9B5"/>
<path d="M110.644 225.886C113.02 225.784 118.065 227.753 120.45 228.5C124.316 229.709 131.106 232.255 134.965 232.565C131.572 238.877 130.252 247.629 129.268 254.641C129.047 256.211 128.538 261.071 128.036 262.311C127.239 262.725 125.947 262.259 125.065 262.029C122.344 260.8 119.388 259.457 116.603 258.367C111.2 256.254 104.914 254.184 100.119 250.829C100.605 249.511 100.979 248.099 101.35 246.742C103.283 239.667 106.524 231.956 110.644 225.886Z" fill="#959FB9"/>
<path d="M297.597 242.288C299.292 243.867 301.124 248.632 301.795 250.768C305.507 262.685 297.254 272.314 285.922 275.216C280.27 276.664 277.303 276.711 272.177 273.824C267.389 270.454 266.158 265.922 264.684 260.561C272.011 256.454 280.818 253.226 288.233 249.004C291.299 247.26 294.641 244.389 297.597 242.288Z" fill="#E4C594"/>
<path d="M267 222.649C268.394 222.528 269.912 226.058 270.478 227.161C272.097 230.212 273.934 232.887 275.208 236.122C277.033 240.757 277.279 245.692 278.766 250.369C275.499 252.564 270.065 254.344 266.404 255.81C264.179 256.7 262.038 257.657 259.832 258.581L256.781 259.642C256.55 258.577 256.17 257.396 255.865 256.341C253.26 247.306 252.034 237.671 248.322 228.985C255 226.103 260.026 224.538 267 222.649Z" fill="#95B9B5"/>
<path d="M100.92 65.3631C101.127 65.3436 101.335 65.3289 101.542 65.3185C107.478 65.0061 111.934 66.7194 115.888 71.1818C117.152 72.6081 118.517 74.6376 119.921 75.8472C118.884 76.4794 117.44 77.6713 116.395 78.4292C111.865 81.7149 107.59 85.5041 103.836 89.6529C102.304 91.3459 100.567 93.6874 98.9997 95.5367C97.2811 97.3182 95.7422 98.9303 94.1927 100.859C89.0835 95.4522 86.3592 93.9945 85.5205 85.8783C84.9889 80.7342 85.945 76.1168 89.3006 72.0169C92.5129 68.0923 95.8414 65.8852 100.92 65.3631Z" fill="#DC9F8A"/>
<path d="M265.875 64.732C272.299 64.1304 277.278 65.9272 280.797 71.6167C283.402 75.8285 284.065 83.0607 282.841 87.8279C281.727 92.1703 280.069 94.8426 276.219 97.1406C275.24 95.5731 274.08 94.3505 272.863 92.9678C269.549 88.7741 266.201 86.8255 262.335 83.5254C258.452 80.2115 254.834 77.5425 250.744 74.5093C251.467 73.0815 252.115 71.5964 253.315 70.4671C257.859 66.193 259.927 64.9758 265.875 64.732Z" fill="#DC9F8A"/>
<path d="M137.457 233.107C138.688 233.092 141.998 233.935 143.521 234.166C146.573 234.631 149.89 234.734 152.822 235.523C152.829 237.971 152.472 243.064 152.246 245.541C151.644 252.157 151.146 261.506 149.365 267.773C148.447 267.586 147.278 267.443 146.332 267.304C139.646 266.552 136.367 264.869 130.203 263.061C130.36 255.849 133.725 239.119 137.457 233.107Z" fill="#FFC973"/>
<path d="M203.373 236.657L203.638 236.652L203.89 236.895C204.048 237.574 204.328 242.063 204.436 243.147C205.379 252.505 205.947 261.274 205.271 270.683C201.326 271.12 193.11 271.302 189.074 271.335L186.623 271.318C186.813 268.5 186.708 265.225 187.044 262.48C188.066 254.131 187.5 245.524 188.153 237.234C193.535 237.22 198.011 237.013 203.373 236.657Z" fill="#E494C9"/>
<path d="M245.028 229.581C245.581 229.499 245.935 229.384 246.45 229.582C246.936 230.231 247.153 230.985 247.392 231.745C249.718 239.16 251.849 246.528 253.276 254.174C253.645 256.152 254.176 258.558 254.955 260.393C251.964 261.376 248.957 262.31 245.935 263.192C244.619 263.538 243.758 263.819 242.477 264.292C241.587 261.401 240.8 255.488 240.282 252.343L237.179 234.237C237.069 233.572 236.723 231.953 237.169 231.564C238.626 230.296 243.215 229.784 245.028 229.581Z" fill="#959FB9"/>
<path d="M280.101 215.585L280.343 215.588C283.282 218.136 290.282 235.759 293.439 240.708C289.726 243.894 286.908 246.269 282.489 248.453L280.67 249.286C279.564 244.935 278.428 240.537 277.041 236.266C275.283 230.857 272.281 226.083 269.35 221.263C273.083 219.232 276.287 217.491 280.101 215.585Z" fill="#E494C9"/>
<path d="M98.1111 221.284C100.059 221.399 106.21 224.291 108.323 225.105C104.588 231.405 101.957 237.572 100.109 244.671C99.9696 245.206 98.766 249.769 98.5917 249.971L98.273 249.849C94.4169 247.77 91.7245 247.565 87.3555 244.502C88.2276 242.442 88.7054 240.575 89.3761 238.496C91.0452 233.326 94.0051 224.928 98.1111 221.284Z" fill="#E494C9"/>
<path d="M86.8066 213.33C88.2051 213.603 95.3815 217.906 96.8933 218.81C91.3708 224.628 89.3085 232.166 86.8215 239.489C86.3608 240.596 85.3662 242.819 84.0358 242.834C81.9526 241.249 80.1621 236.511 80.6463 233.901C81.3061 230.344 83.7977 227.811 84.8646 224.275C85.9112 220.807 85.5572 216.595 86.8066 213.33Z" fill="#95B9B5"/>
<path d="M287.748 208.986C289.519 209.431 292.362 212.901 292.538 214.776C292.748 217.004 292.992 219.138 293.624 221.299C294.988 225.96 298.795 229.868 299.222 234.767C297.967 237.156 297.075 238.061 295.14 239.933L294.426 238.258C292.704 234.376 290.954 230.506 289.177 226.647C286.705 221.265 285.111 218.06 281.564 213.283C283.648 211.883 285.71 210.451 287.748 208.986Z" fill="#95B9B5"/>
<path d="M111.085 270.889C112.731 270.423 112.638 268.685 114.036 268.403L114.284 268.723C114.371 269.461 114.276 269.619 114.065 270.359C113.097 271.796 112.405 272.444 111.092 273.589C110.628 273.494 110.662 273.492 110.309 273.169C109.954 271.958 111.092 271.87 111.085 270.889Z" fill="#71552D"/>
<path d="M116.381 262.16L116.796 262.233C116.617 262.976 116.009 263.212 116.036 263.921C116.276 264.331 116.37 264.611 116.801 264.787C117.461 264.362 117.201 263.491 117.702 263.399L117.893 263.65C117.322 264.843 116.186 267.32 115.424 268.295C115.315 267.904 115.28 267.885 115.061 267.533C114.6 267.225 114.192 267.325 113.615 267.355C114.69 265.488 115.477 264.116 116.381 262.16Z" fill="#71552D" fill-opacity="0.988235"/>
<path d="M107.084 274.166C108.635 273.299 110.439 271.182 111.086 270.889C111.092 271.87 109.954 271.958 110.309 273.169C110.662 273.492 110.628 273.494 111.092 273.589C109.964 274.542 107.827 276.132 106.443 276.619C106.696 275.586 107.518 276.473 107.639 275.111C107.316 274.588 107.531 274.752 107.042 274.526L107.084 274.166Z" fill="#71552D" fill-opacity="0.980392"/>
<path d="M113.615 267.355C114.191 267.325 114.599 267.225 115.061 267.533C115.279 267.885 115.314 267.904 115.423 268.295C114.989 269.012 114.597 269.714 114.064 270.359C114.275 269.619 114.37 269.461 114.282 268.723L114.034 268.403C112.637 268.685 112.73 270.423 111.084 270.889C111.328 270.411 113.151 268.011 113.615 267.355Z" fill="#71552D" fill-opacity="0.980392"/>
</svg>
