<svg width="395" height="101" viewBox="0 0 395 101" fill="none" xmlns="http://www.w3.org/2000/svg">
<path d="M64.6605 80.7721C58.3005 80.7721 52.5765 80.1361 47.4885 78.8641C42.4005 77.5215 38.0545 75.6488 34.4505 73.2461C30.8465 70.7728 28.0905 67.8401 26.1825 64.4481C24.2745 61.0561 23.3205 57.3108 23.3205 53.2121C23.3205 49.1135 24.2745 45.4035 26.1825 42.0821C28.0905 38.6901 30.8465 35.7928 34.4505 33.3901C38.0545 30.9168 42.4005 29.0441 47.4885 27.7721C52.5765 26.4295 58.3005 25.7581 64.6605 25.7581C72.2925 25.7581 79.0765 26.8535 85.0125 29.0441C91.0191 31.1641 95.7185 34.2735 99.1105 38.3721C102.502 42.4708 104.198 47.4175 104.198 53.2121C104.198 59.2895 102.502 64.3775 99.1105 68.4761C95.7185 72.5748 91.0191 75.6488 85.0125 77.6981C79.0765 79.7475 72.2925 80.7721 64.6605 80.7721ZM55.1205 64.5541C59.9258 64.5541 64.0245 64.1301 67.4165 63.2821C70.8085 62.4341 73.3878 61.1975 75.1545 59.5721C76.9211 57.8761 77.8045 55.7561 77.8045 53.2121C77.8045 49.4668 75.8258 46.6401 71.8685 44.7321C67.9111 42.8241 62.3285 41.8701 55.1205 41.8701C49.7498 41.8701 44.8031 42.1881 40.2805 42.8241C35.8285 43.4601 32.2245 44.6261 29.4685 46.3221C26.7831 47.9475 25.4405 50.2441 25.4405 53.2121C25.4405 56.1801 26.7831 58.5121 29.4685 60.2081C32.2245 61.8335 35.8285 62.9641 40.2805 63.6001C44.8031 64.2361 49.7498 64.5541 55.1205 64.5541ZM0.00046894 27.2421H23.9565L25.4405 47.3821V100.382H0.00046894V27.2421ZM153.433 0.000124812V15.9001H126.509V0.000124812H153.433ZM127.251 27.2421H152.691V79.1821H127.251V27.2421ZM273.664 56.6041C273.664 61.6921 272.074 66.0381 268.894 69.6421C265.714 73.2461 260.697 76.0021 253.842 77.9101C246.988 79.8181 238.084 80.7721 227.13 80.7721C216.177 80.7721 206.849 79.8888 199.146 78.1221C191.514 76.3555 185.684 73.4581 181.656 69.4301C177.699 65.4021 175.72 60.0315 175.72 53.3181C175.72 46.6048 177.699 41.2341 181.656 37.2061C185.684 33.1075 191.514 30.1748 199.146 28.4081C206.849 26.5708 216.177 25.6521 227.13 25.6521C238.084 25.6521 246.952 26.6061 253.736 28.5141C260.52 30.4221 265.502 33.1781 268.682 36.7821C271.862 40.3861 273.488 44.6968 273.558 49.7141H250.238C249.108 46.9581 246.564 44.8381 242.606 43.3541C238.649 41.7995 233.49 41.0221 227.13 41.0221C221.972 41.0221 217.484 41.4108 213.668 42.1881C209.852 42.8948 206.884 44.1315 204.764 45.8981C202.715 47.6648 201.69 50.1381 201.69 53.3181C201.69 56.4275 202.715 58.8655 204.764 60.6321C206.814 62.3988 209.746 63.6355 213.562 64.3421C217.378 65.0488 221.901 65.4021 227.13 65.4021C233.49 65.4021 238.649 64.6601 242.606 63.1761C246.634 61.6215 249.214 59.4308 250.344 56.6041H273.664ZM344.169 80.7721C332.933 80.7721 323.57 79.8535 316.079 78.0161C308.659 76.1788 303.077 73.2461 299.331 69.2181C295.657 65.1901 293.819 59.8901 293.819 53.3181C293.819 46.7461 295.657 41.4461 299.331 37.4181C303.077 33.3195 308.659 30.3515 316.079 28.5141C323.57 26.6061 332.933 25.6521 344.169 25.6521C355.335 25.6521 364.592 26.6061 371.941 28.5141C379.361 30.3515 384.909 33.3195 388.583 37.4181C392.258 41.4461 394.095 46.7461 394.095 53.3181C394.095 59.8901 392.258 65.1901 388.583 69.2181C384.909 73.2461 379.361 76.1788 371.941 78.0161C364.592 79.8535 355.335 80.7721 344.169 80.7721ZM344.169 65.4021C349.399 65.4021 353.78 64.9781 357.313 64.1301C360.847 63.2115 363.532 61.8688 365.369 60.1021C367.207 58.2648 368.125 56.0035 368.125 53.3181C368.125 50.6328 367.207 48.3715 365.369 46.5341C363.603 44.6968 360.953 43.3188 357.419 42.4001C353.886 41.4815 349.469 41.0221 344.169 41.0221C338.94 41.0221 334.488 41.4815 330.813 42.4001C327.209 43.3188 324.453 44.6968 322.545 46.5341C320.708 48.3008 319.789 50.5621 319.789 53.3181C319.789 56.0035 320.708 58.2648 322.545 60.1021C324.383 61.8688 327.103 63.2115 330.707 64.1301C334.382 64.9781 338.869 65.4021 344.169 65.4021Z" fill="black"/>
</svg>
