<svg width="395" height="216" viewBox="0 0 395 216" fill="none" xmlns="http://www.w3.org/2000/svg">
<g filter="url(#filter0_d_105_1214)">
<mask id="path-1-outside-1_105_1214" maskUnits="userSpaceOnUse" x="29" y="12" width="363" height="184" fill="black">
<rect fill="white" x="29" y="12" width="363" height="184"/>
<path d="M101.433 180.583C101.31 169.637 101.064 159.613 100.695 150.511C100.449 141.286 99.464 133.845 97.7408 128.187C96.1407 122.406 93.4945 118.778 89.802 117.302C86.2327 115.826 81.0017 117.302 74.1091 121.73L74.663 180.583C73.6783 182.305 72.1398 183.72 70.0474 184.827C67.955 185.934 65.6165 186.795 63.0318 187.41C60.4471 187.902 57.7393 188.086 54.9084 187.963C52.2006 187.963 49.6159 187.656 47.1542 187.041C44.6926 186.426 42.5387 185.503 40.6925 184.273C38.8462 183.043 37.6154 181.506 37 179.661V86.676C37.3692 85.0771 38.6001 83.6626 40.6925 82.4327C42.7848 81.0797 45.2465 80.0343 48.0774 79.2963C51.0313 78.4353 54.1084 77.8818 57.3085 77.6358C60.6317 77.3899 63.6472 77.4514 66.355 77.8203C69.1859 78.0663 71.4629 78.6813 73.186 79.6653C75.0322 80.6492 76.0169 82.0022 76.14 83.7241L75.7707 89.0745C83.5249 83.9086 90.2944 80.7107 96.0792 79.4808C101.864 78.2508 106.849 78.4968 111.034 80.2188C115.341 81.8177 118.911 84.7081 121.742 88.89C124.573 92.9488 126.85 97.8687 128.573 103.649C130.419 109.307 131.773 115.519 132.634 122.283C133.619 129.048 134.296 135.936 134.665 142.947C135.158 149.834 135.404 156.599 135.404 163.241C135.404 169.883 135.404 175.91 135.404 181.321C133.188 183.781 130.296 185.503 126.727 186.487C123.157 187.471 119.588 187.902 116.018 187.779C112.572 187.656 109.434 186.979 106.603 185.749C103.772 184.519 102.049 182.797 101.433 180.583Z"/>
<path d="M141.637 79.4808C143.852 77.6358 146.806 76.1599 150.499 75.0529C154.314 73.946 158.13 73.454 161.945 73.577C165.884 73.577 169.453 74.2535 172.653 75.6064C175.976 76.9594 178.377 79.1118 179.854 82.0637L180.592 177.262C179.484 180.337 177.146 182.613 173.576 184.089C170.13 185.442 166.376 186.118 162.314 186.118C158.253 186.118 154.314 185.503 150.499 184.273C146.806 182.92 144.098 181.137 142.375 178.923L141.637 79.4808ZM163.791 65.8282C158.868 65.7052 154.868 64.7828 151.791 63.0608C148.837 61.3389 146.683 59.248 145.329 56.7881C143.975 54.2051 143.421 51.4377 143.668 48.4858C144.037 45.5339 145.144 42.828 146.991 40.3681C148.837 37.7852 151.36 35.6328 154.56 33.9108C157.883 32.0659 161.822 31.0204 166.376 30.7744C169.453 30.8974 171.976 31.8199 173.946 33.5418C175.915 35.1408 177.33 37.2317 178.192 39.8146C179.177 42.2745 179.546 44.9805 179.3 47.9324C179.177 50.8843 178.5 53.6517 177.269 56.2346C176.161 58.8175 174.438 61.0314 172.099 62.8763C169.884 64.5983 167.115 65.5823 163.791 65.8282Z"/>
<path d="M253.474 180.583C253.351 169.637 253.104 159.613 252.735 150.511C252.489 141.286 251.504 133.845 249.781 128.187C248.181 122.406 245.535 118.778 241.842 117.302C238.273 115.826 233.042 117.302 226.149 121.73L226.703 180.583C225.719 182.305 224.18 183.72 222.088 184.827C219.995 185.934 217.657 186.795 215.072 187.41C212.487 187.902 209.78 188.086 206.949 187.963C204.241 187.963 201.656 187.656 199.195 187.041C196.733 186.426 194.579 185.503 192.733 184.273C190.887 183.043 189.656 181.506 189.04 179.661V86.676C189.41 85.0771 190.64 83.6626 192.733 82.4327C194.825 81.0797 197.287 80.0343 200.118 79.2963C203.072 78.4353 206.149 77.8818 209.349 77.6358C212.672 77.3899 215.688 77.4514 218.395 77.8203C221.226 78.0663 223.503 78.6813 225.226 79.6653C227.073 80.6492 228.057 82.0022 228.18 83.7241L227.811 89.0745C235.565 83.9086 242.335 80.7107 248.12 79.4808C253.904 78.2508 258.889 78.4968 263.074 80.2188C267.382 81.8177 270.951 84.7081 273.782 88.89C276.613 92.9488 278.89 97.8687 280.613 103.649C282.459 109.307 283.813 115.519 284.675 122.283C285.659 129.048 286.336 135.936 286.706 142.947C287.198 149.834 287.444 156.599 287.444 163.241C287.444 169.883 287.444 175.91 287.444 181.321C285.229 183.781 282.336 185.503 278.767 186.487C275.197 187.471 271.628 187.902 268.059 187.779C264.612 187.656 261.474 186.979 258.643 185.749C255.812 184.519 254.089 182.797 253.474 180.583Z"/>
<path d="M370.295 142.393C373.003 142.024 375.465 142.762 377.68 144.607C380.019 146.329 381.742 148.666 382.85 151.618C383.957 154.447 384.265 157.522 383.773 160.843C383.28 164.163 381.557 167.238 378.603 170.067C372.326 176.094 365.987 180.522 359.587 183.351C353.31 186.057 347.217 187.533 341.31 187.779C335.402 187.902 329.801 186.979 324.509 185.011C319.216 183.043 314.416 180.337 310.108 176.893C305.801 173.45 302.108 169.452 299.031 164.901C296.077 160.351 293.923 155.554 292.569 150.511C291.954 148.297 291.4 145.161 290.908 141.102C290.538 136.92 290.477 132.307 290.723 127.265C290.969 122.222 291.646 116.995 292.754 111.583C293.985 106.048 295.954 100.882 298.662 96.0852C301.37 91.1654 304.939 86.8605 309.37 83.1707C313.801 79.3578 319.401 76.6519 326.171 75.0529C333.679 73.331 340.633 73.208 347.033 74.6839C353.433 76.1599 358.91 78.7428 363.464 82.4327C368.141 85.9996 371.711 90.4889 374.172 95.9007C376.757 101.19 377.988 106.847 377.865 112.874C377.619 118.655 375.465 123.636 371.403 127.818C367.341 132 362.48 135.198 356.818 137.412C351.156 139.626 345.31 140.794 339.279 140.917C333.248 141.04 328.201 139.995 324.14 137.781C324.755 142.824 326.355 146.698 328.94 149.404C331.525 152.11 334.848 153.647 338.909 154.016C343.094 154.385 347.833 153.647 353.125 151.802C358.418 149.834 364.141 146.698 370.295 142.393ZM329.678 108.631C329.801 110.845 330.786 112.321 332.632 113.059C334.479 113.797 336.448 114.104 338.54 113.981C340.756 113.735 342.787 113.12 344.633 112.136C346.602 111.152 347.71 109.984 347.956 108.631C348.325 106.54 347.587 105.064 345.741 104.203C344.017 103.219 341.925 102.788 339.463 102.911C337.125 102.911 334.909 103.403 332.817 104.387C330.725 105.371 329.678 106.786 329.678 108.631ZM367.526 54.0206C368.018 54.5126 368.141 55.5581 367.895 57.157C367.649 58.756 367.034 60.4779 366.049 62.3229C365.187 64.0448 364.018 65.7667 362.541 67.4887C361.064 69.2106 359.403 70.5021 357.556 71.3631C355.71 72.101 353.679 72.2855 351.464 71.9165C349.248 71.4246 346.971 69.9486 344.633 67.4887L337.063 54.0206L328.201 69.1491C326.478 70.7481 324.263 71.5476 321.555 71.5476C318.97 71.5476 316.386 70.9326 313.801 69.7026C311.216 68.4727 308.816 66.6277 306.601 64.1678C304.508 61.7079 303.031 58.8175 302.17 55.4966L322.478 25.9776C324.078 23.6407 326.232 22.0417 328.94 21.1808C331.771 20.1968 334.602 19.8278 337.433 20.0738C340.386 20.1968 343.094 20.8118 345.556 21.9187C348.018 23.0257 349.802 24.3787 350.91 25.9776L367.526 54.0206Z"/>
</mask>
<path d="M101.433 180.583C101.31 169.637 101.064 159.613 100.695 150.511C100.449 141.286 99.464 133.845 97.7408 128.187C96.1407 122.406 93.4945 118.778 89.802 117.302C86.2327 115.826 81.0017 117.302 74.1091 121.73L74.663 180.583C73.6783 182.305 72.1398 183.72 70.0474 184.827C67.955 185.934 65.6165 186.795 63.0318 187.41C60.4471 187.902 57.7393 188.086 54.9084 187.963C52.2006 187.963 49.6159 187.656 47.1542 187.041C44.6926 186.426 42.5387 185.503 40.6925 184.273C38.8462 183.043 37.6154 181.506 37 179.661V86.676C37.3692 85.0771 38.6001 83.6626 40.6925 82.4327C42.7848 81.0797 45.2465 80.0343 48.0774 79.2963C51.0313 78.4353 54.1084 77.8818 57.3085 77.6358C60.6317 77.3899 63.6472 77.4514 66.355 77.8203C69.1859 78.0663 71.4629 78.6813 73.186 79.6653C75.0322 80.6492 76.0169 82.0022 76.14 83.7241L75.7707 89.0745C83.5249 83.9086 90.2944 80.7107 96.0792 79.4808C101.864 78.2508 106.849 78.4968 111.034 80.2188C115.341 81.8177 118.911 84.7081 121.742 88.89C124.573 92.9488 126.85 97.8687 128.573 103.649C130.419 109.307 131.773 115.519 132.634 122.283C133.619 129.048 134.296 135.936 134.665 142.947C135.158 149.834 135.404 156.599 135.404 163.241C135.404 169.883 135.404 175.91 135.404 181.321C133.188 183.781 130.296 185.503 126.727 186.487C123.157 187.471 119.588 187.902 116.018 187.779C112.572 187.656 109.434 186.979 106.603 185.749C103.772 184.519 102.049 182.797 101.433 180.583Z" fill="#AE6FFB"/>
<path d="M141.637 79.4808C143.852 77.6358 146.806 76.1599 150.499 75.0529C154.314 73.946 158.13 73.454 161.945 73.577C165.884 73.577 169.453 74.2535 172.653 75.6064C175.976 76.9594 178.377 79.1118 179.854 82.0637L180.592 177.262C179.484 180.337 177.146 182.613 173.576 184.089C170.13 185.442 166.376 186.118 162.314 186.118C158.253 186.118 154.314 185.503 150.499 184.273C146.806 182.92 144.098 181.137 142.375 178.923L141.637 79.4808ZM163.791 65.8282C158.868 65.7052 154.868 64.7828 151.791 63.0608C148.837 61.3389 146.683 59.248 145.329 56.7881C143.975 54.2051 143.421 51.4377 143.668 48.4858C144.037 45.5339 145.144 42.828 146.991 40.3681C148.837 37.7852 151.36 35.6328 154.56 33.9108C157.883 32.0659 161.822 31.0204 166.376 30.7744C169.453 30.8974 171.976 31.8199 173.946 33.5418C175.915 35.1408 177.33 37.2317 178.192 39.8146C179.177 42.2745 179.546 44.9805 179.3 47.9324C179.177 50.8843 178.5 53.6517 177.269 56.2346C176.161 58.8175 174.438 61.0314 172.099 62.8763C169.884 64.5983 167.115 65.5823 163.791 65.8282Z" fill="#AE6FFB"/>
<path d="M253.474 180.583C253.351 169.637 253.104 159.613 252.735 150.511C252.489 141.286 251.504 133.845 249.781 128.187C248.181 122.406 245.535 118.778 241.842 117.302C238.273 115.826 233.042 117.302 226.149 121.73L226.703 180.583C225.719 182.305 224.18 183.72 222.088 184.827C219.995 185.934 217.657 186.795 215.072 187.41C212.487 187.902 209.78 188.086 206.949 187.963C204.241 187.963 201.656 187.656 199.195 187.041C196.733 186.426 194.579 185.503 192.733 184.273C190.887 183.043 189.656 181.506 189.04 179.661V86.676C189.41 85.0771 190.64 83.6626 192.733 82.4327C194.825 81.0797 197.287 80.0343 200.118 79.2963C203.072 78.4353 206.149 77.8818 209.349 77.6358C212.672 77.3899 215.688 77.4514 218.395 77.8203C221.226 78.0663 223.503 78.6813 225.226 79.6653C227.073 80.6492 228.057 82.0022 228.18 83.7241L227.811 89.0745C235.565 83.9086 242.335 80.7107 248.12 79.4808C253.904 78.2508 258.889 78.4968 263.074 80.2188C267.382 81.8177 270.951 84.7081 273.782 88.89C276.613 92.9488 278.89 97.8687 280.613 103.649C282.459 109.307 283.813 115.519 284.675 122.283C285.659 129.048 286.336 135.936 286.706 142.947C287.198 149.834 287.444 156.599 287.444 163.241C287.444 169.883 287.444 175.91 287.444 181.321C285.229 183.781 282.336 185.503 278.767 186.487C275.197 187.471 271.628 187.902 268.059 187.779C264.612 187.656 261.474 186.979 258.643 185.749C255.812 184.519 254.089 182.797 253.474 180.583Z" fill="#AE6FFB"/>
<path d="M370.295 142.393C373.003 142.024 375.465 142.762 377.68 144.607C380.019 146.329 381.742 148.666 382.85 151.618C383.957 154.447 384.265 157.522 383.773 160.843C383.28 164.163 381.557 167.238 378.603 170.067C372.326 176.094 365.987 180.522 359.587 183.351C353.31 186.057 347.217 187.533 341.31 187.779C335.402 187.902 329.801 186.979 324.509 185.011C319.216 183.043 314.416 180.337 310.108 176.893C305.801 173.45 302.108 169.452 299.031 164.901C296.077 160.351 293.923 155.554 292.569 150.511C291.954 148.297 291.4 145.161 290.908 141.102C290.538 136.92 290.477 132.307 290.723 127.265C290.969 122.222 291.646 116.995 292.754 111.583C293.985 106.048 295.954 100.882 298.662 96.0852C301.37 91.1654 304.939 86.8605 309.37 83.1707C313.801 79.3578 319.401 76.6519 326.171 75.0529C333.679 73.331 340.633 73.208 347.033 74.6839C353.433 76.1599 358.91 78.7428 363.464 82.4327C368.141 85.9996 371.711 90.4889 374.172 95.9007C376.757 101.19 377.988 106.847 377.865 112.874C377.619 118.655 375.465 123.636 371.403 127.818C367.341 132 362.48 135.198 356.818 137.412C351.156 139.626 345.31 140.794 339.279 140.917C333.248 141.04 328.201 139.995 324.14 137.781C324.755 142.824 326.355 146.698 328.94 149.404C331.525 152.11 334.848 153.647 338.909 154.016C343.094 154.385 347.833 153.647 353.125 151.802C358.418 149.834 364.141 146.698 370.295 142.393ZM329.678 108.631C329.801 110.845 330.786 112.321 332.632 113.059C334.479 113.797 336.448 114.104 338.54 113.981C340.756 113.735 342.787 113.12 344.633 112.136C346.602 111.152 347.71 109.984 347.956 108.631C348.325 106.54 347.587 105.064 345.741 104.203C344.017 103.219 341.925 102.788 339.463 102.911C337.125 102.911 334.909 103.403 332.817 104.387C330.725 105.371 329.678 106.786 329.678 108.631ZM367.526 54.0206C368.018 54.5126 368.141 55.5581 367.895 57.157C367.649 58.756 367.034 60.4779 366.049 62.3229C365.187 64.0448 364.018 65.7667 362.541 67.4887C361.064 69.2106 359.403 70.5021 357.556 71.3631C355.71 72.101 353.679 72.2855 351.464 71.9165C349.248 71.4246 346.971 69.9486 344.633 67.4887L337.063 54.0206L328.201 69.1491C326.478 70.7481 324.263 71.5476 321.555 71.5476C318.97 71.5476 316.386 70.9326 313.801 69.7026C311.216 68.4727 308.816 66.6277 306.601 64.1678C304.508 61.7079 303.031 58.8175 302.17 55.4966L322.478 25.9776C324.078 23.6407 326.232 22.0417 328.94 21.1808C331.771 20.1968 334.602 19.8278 337.433 20.0738C340.386 20.1968 343.094 20.8118 345.556 21.9187C348.018 23.0257 349.802 24.3787 350.91 25.9776L367.526 54.0206Z" fill="#AE6FFB"/>
<path d="M101.433 180.583C101.31 169.637 101.064 159.613 100.695 150.511C100.449 141.286 99.464 133.845 97.7408 128.187C96.1407 122.406 93.4945 118.778 89.802 117.302C86.2327 115.826 81.0017 117.302 74.1091 121.73L74.663 180.583C73.6783 182.305 72.1398 183.72 70.0474 184.827C67.955 185.934 65.6165 186.795 63.0318 187.41C60.4471 187.902 57.7393 188.086 54.9084 187.963C52.2006 187.963 49.6159 187.656 47.1542 187.041C44.6926 186.426 42.5387 185.503 40.6925 184.273C38.8462 183.043 37.6154 181.506 37 179.661V86.676C37.3692 85.0771 38.6001 83.6626 40.6925 82.4327C42.7848 81.0797 45.2465 80.0343 48.0774 79.2963C51.0313 78.4353 54.1084 77.8818 57.3085 77.6358C60.6317 77.3899 63.6472 77.4514 66.355 77.8203C69.1859 78.0663 71.4629 78.6813 73.186 79.6653C75.0322 80.6492 76.0169 82.0022 76.14 83.7241L75.7707 89.0745C83.5249 83.9086 90.2944 80.7107 96.0792 79.4808C101.864 78.2508 106.849 78.4968 111.034 80.2188C115.341 81.8177 118.911 84.7081 121.742 88.89C124.573 92.9488 126.85 97.8687 128.573 103.649C130.419 109.307 131.773 115.519 132.634 122.283C133.619 129.048 134.296 135.936 134.665 142.947C135.158 149.834 135.404 156.599 135.404 163.241C135.404 169.883 135.404 175.91 135.404 181.321C133.188 183.781 130.296 185.503 126.727 186.487C123.157 187.471 119.588 187.902 116.018 187.779C112.572 187.656 109.434 186.979 106.603 185.749C103.772 184.519 102.049 182.797 101.433 180.583Z" stroke="white" stroke-width="16" mask="url(#path-1-outside-1_105_1214)"/>
<path d="M141.637 79.4808C143.852 77.6358 146.806 76.1599 150.499 75.0529C154.314 73.946 158.13 73.454 161.945 73.577C165.884 73.577 169.453 74.2535 172.653 75.6064C175.976 76.9594 178.377 79.1118 179.854 82.0637L180.592 177.262C179.484 180.337 177.146 182.613 173.576 184.089C170.13 185.442 166.376 186.118 162.314 186.118C158.253 186.118 154.314 185.503 150.499 184.273C146.806 182.92 144.098 181.137 142.375 178.923L141.637 79.4808ZM163.791 65.8282C158.868 65.7052 154.868 64.7828 151.791 63.0608C148.837 61.3389 146.683 59.248 145.329 56.7881C143.975 54.2051 143.421 51.4377 143.668 48.4858C144.037 45.5339 145.144 42.828 146.991 40.3681C148.837 37.7852 151.36 35.6328 154.56 33.9108C157.883 32.0659 161.822 31.0204 166.376 30.7744C169.453 30.8974 171.976 31.8199 173.946 33.5418C175.915 35.1408 177.33 37.2317 178.192 39.8146C179.177 42.2745 179.546 44.9805 179.3 47.9324C179.177 50.8843 178.5 53.6517 177.269 56.2346C176.161 58.8175 174.438 61.0314 172.099 62.8763C169.884 64.5983 167.115 65.5823 163.791 65.8282Z" stroke="white" stroke-width="16" mask="url(#path-1-outside-1_105_1214)"/>
<path d="M253.474 180.583C253.351 169.637 253.104 159.613 252.735 150.511C252.489 141.286 251.504 133.845 249.781 128.187C248.181 122.406 245.535 118.778 241.842 117.302C238.273 115.826 233.042 117.302 226.149 121.73L226.703 180.583C225.719 182.305 224.18 183.72 222.088 184.827C219.995 185.934 217.657 186.795 215.072 187.41C212.487 187.902 209.78 188.086 206.949 187.963C204.241 187.963 201.656 187.656 199.195 187.041C196.733 186.426 194.579 185.503 192.733 184.273C190.887 183.043 189.656 181.506 189.04 179.661V86.676C189.41 85.0771 190.64 83.6626 192.733 82.4327C194.825 81.0797 197.287 80.0343 200.118 79.2963C203.072 78.4353 206.149 77.8818 209.349 77.6358C212.672 77.3899 215.688 77.4514 218.395 77.8203C221.226 78.0663 223.503 78.6813 225.226 79.6653C227.073 80.6492 228.057 82.0022 228.18 83.7241L227.811 89.0745C235.565 83.9086 242.335 80.7107 248.12 79.4808C253.904 78.2508 258.889 78.4968 263.074 80.2188C267.382 81.8177 270.951 84.7081 273.782 88.89C276.613 92.9488 278.89 97.8687 280.613 103.649C282.459 109.307 283.813 115.519 284.675 122.283C285.659 129.048 286.336 135.936 286.706 142.947C287.198 149.834 287.444 156.599 287.444 163.241C287.444 169.883 287.444 175.91 287.444 181.321C285.229 183.781 282.336 185.503 278.767 186.487C275.197 187.471 271.628 187.902 268.059 187.779C264.612 187.656 261.474 186.979 258.643 185.749C255.812 184.519 254.089 182.797 253.474 180.583Z" stroke="white" stroke-width="16" mask="url(#path-1-outside-1_105_1214)"/>
<path d="M370.295 142.393C373.003 142.024 375.465 142.762 377.68 144.607C380.019 146.329 381.742 148.666 382.85 151.618C383.957 154.447 384.265 157.522 383.773 160.843C383.28 164.163 381.557 167.238 378.603 170.067C372.326 176.094 365.987 180.522 359.587 183.351C353.31 186.057 347.217 187.533 341.31 187.779C335.402 187.902 329.801 186.979 324.509 185.011C319.216 183.043 314.416 180.337 310.108 176.893C305.801 173.45 302.108 169.452 299.031 164.901C296.077 160.351 293.923 155.554 292.569 150.511C291.954 148.297 291.4 145.161 290.908 141.102C290.538 136.92 290.477 132.307 290.723 127.265C290.969 122.222 291.646 116.995 292.754 111.583C293.985 106.048 295.954 100.882 298.662 96.0852C301.37 91.1654 304.939 86.8605 309.37 83.1707C313.801 79.3578 319.401 76.6519 326.171 75.0529C333.679 73.331 340.633 73.208 347.033 74.6839C353.433 76.1599 358.91 78.7428 363.464 82.4327C368.141 85.9996 371.711 90.4889 374.172 95.9007C376.757 101.19 377.988 106.847 377.865 112.874C377.619 118.655 375.465 123.636 371.403 127.818C367.341 132 362.48 135.198 356.818 137.412C351.156 139.626 345.31 140.794 339.279 140.917C333.248 141.04 328.201 139.995 324.14 137.781C324.755 142.824 326.355 146.698 328.94 149.404C331.525 152.11 334.848 153.647 338.909 154.016C343.094 154.385 347.833 153.647 353.125 151.802C358.418 149.834 364.141 146.698 370.295 142.393ZM329.678 108.631C329.801 110.845 330.786 112.321 332.632 113.059C334.479 113.797 336.448 114.104 338.54 113.981C340.756 113.735 342.787 113.12 344.633 112.136C346.602 111.152 347.71 109.984 347.956 108.631C348.325 106.54 347.587 105.064 345.741 104.203C344.017 103.219 341.925 102.788 339.463 102.911C337.125 102.911 334.909 103.403 332.817 104.387C330.725 105.371 329.678 106.786 329.678 108.631ZM367.526 54.0206C368.018 54.5126 368.141 55.5581 367.895 57.157C367.649 58.756 367.034 60.4779 366.049 62.3229C365.187 64.0448 364.018 65.7667 362.541 67.4887C361.064 69.2106 359.403 70.5021 357.556 71.3631C355.71 72.101 353.679 72.2855 351.464 71.9165C349.248 71.4246 346.971 69.9486 344.633 67.4887L337.063 54.0206L328.201 69.1491C326.478 70.7481 324.263 71.5476 321.555 71.5476C318.97 71.5476 316.386 70.9326 313.801 69.7026C311.216 68.4727 308.816 66.6277 306.601 64.1678C304.508 61.7079 303.031 58.8175 302.17 55.4966L322.478 25.9776C324.078 23.6407 326.232 22.0417 328.94 21.1808C331.771 20.1968 334.602 19.8278 337.433 20.0738C340.386 20.1968 343.094 20.8118 345.556 21.9187C348.018 23.0257 349.802 24.3787 350.91 25.9776L367.526 54.0206Z" stroke="white" stroke-width="16" mask="url(#path-1-outside-1_105_1214)"/>
</g>
<defs>
<filter id="filter0_d_105_1214" x="0" y="0" width="395" height="216" filterUnits="userSpaceOnUse" color-interpolation-filters="sRGB">
<feFlood flood-opacity="0" result="BackgroundImageFix"/>
<feColorMatrix in="SourceAlpha" type="matrix" values="0 0 0 0 0 0 0 0 0 0 0 0 0 0 0 0 0 0 127 0" result="hardAlpha"/>
<feOffset dx="-13" dy="4"/>
<feGaussianBlur stdDeviation="8"/>
<feComposite in2="hardAlpha" operator="out"/>
<feColorMatrix type="matrix" values="0 0 0 0 0 0 0 0 0 0 0 0 0 0 0 0 0 0 0.25 0"/>
<feBlend mode="normal" in2="BackgroundImageFix" result="effect1_dropShadow_105_1214"/>
<feBlend mode="normal" in="SourceGraphic" in2="effect1_dropShadow_105_1214" result="shape"/>
</filter>
</defs>
</svg>
