<svg width="226" height="167" viewBox="0 0 226 167" fill="none" xmlns="http://www.w3.org/2000/svg">
<g filter="url(#filter0_d_3_54)">
<rect x="21.3229" y="21.3229" width="182.562" height="124.354" rx="14.5521" fill="white" stroke="#D9D9D9" stroke-width="2.64583"/>
<path d="M120.78 123.187C141.404 123.287 160.229 106.212 160.229 85.4419C160.229 62.7299 141.404 47.029 120.78 47.0375H103.03C82.1594 47.029 64.9792 62.7341 64.9792 85.4419C64.9792 106.217 82.1594 123.287 103.03 123.187H120.78Z" fill="#0079BE"/>
<path d="M103.114 50.1849C84.0414 50.1912 68.5886 65.7903 68.5822 85.0434C68.5886 104.294 84.0414 119.893 103.114 119.9C122.189 119.893 137.649 104.294 137.651 85.0434C137.649 65.7903 122.191 50.1912 103.114 50.1849ZM81.2268 85.0434C81.2228 80.5919 82.5618 76.2428 85.0688 72.5644C87.5757 68.886 91.1341 66.0494 95.2787 64.4254V105.659C91.1337 104.036 87.575 101.2 85.0679 97.5222C82.5608 93.844 81.2221 89.4948 81.2268 85.0434V85.0434ZM110.948 105.668V64.4233C115.096 66.045 118.657 68.8813 121.166 72.5609C123.675 76.2406 125.014 80.592 125.008 85.0455C125.013 89.4988 123.673 93.8499 121.165 97.5293C118.656 101.209 115.095 104.045 110.948 105.668V105.668Z" fill="white"/>
<path d="M120.78 123.187C141.404 123.287 160.229 106.212 160.229 85.4419C160.229 62.7299 141.404 47.029 120.78 47.0375H103.03C82.1594 47.029 64.9792 62.7341 64.9792 85.4419C64.9792 106.217 82.1594 123.287 103.03 123.187H120.78Z" fill="#0079BE"/>
<path d="M103.114 50.1849C84.0414 50.1912 68.5886 65.7903 68.5822 85.0434C68.5886 104.294 84.0414 119.893 103.114 119.9C122.189 119.893 137.649 104.294 137.651 85.0434C137.649 65.7903 122.191 50.1912 103.114 50.1849ZM81.2268 85.0434C81.2228 80.5919 82.5618 76.2428 85.0688 72.5644C87.5757 68.886 91.1341 66.0494 95.2787 64.4254V105.659C91.1337 104.036 87.575 101.2 85.0679 97.5222C82.5608 93.844 81.2221 89.4948 81.2268 85.0434V85.0434ZM110.948 105.668V64.4233C115.096 66.045 118.657 68.8813 121.166 72.5609C123.675 76.2406 125.014 80.592 125.008 85.0455C125.013 89.4988 123.673 93.8499 121.165 97.5293C118.656 101.209 115.095 104.045 110.948 105.668V105.668Z" fill="white"/>
</g>
<defs>
<filter id="filter0_d_3_54" x="0" y="0" width="225.208" height="167" filterUnits="userSpaceOnUse" color-interpolation-filters="sRGB">
<feFlood flood-opacity="0" result="BackgroundImageFix"/>
<feColorMatrix in="SourceAlpha" type="matrix" values="0 0 0 0 0 0 0 0 0 0 0 0 0 0 0 0 0 0 127 0" result="hardAlpha"/>
<feOffset/>
<feGaussianBlur stdDeviation="10"/>
<feComposite in2="hardAlpha" operator="out"/>
<feColorMatrix type="matrix" values="0 0 0 0 0 0 0 0 0 0 0 0 0 0 0 0 0 0 0.07 0"/>
<feBlend mode="normal" in2="BackgroundImageFix" result="effect1_dropShadow_3_54"/>
<feBlend mode="normal" in="SourceGraphic" in2="effect1_dropShadow_3_54" result="shape"/>
</filter>
</defs>
</svg>
