<svg width="226" height="167" viewBox="0 0 226 167" fill="none" xmlns="http://www.w3.org/2000/svg">
<g filter="url(#filter0_d_3_20)">
<rect x="21.3229" y="21.3229" width="182.562" height="124.354" rx="14.5521" fill="white" stroke="#D9D9D9" stroke-width="2.64583"/>
<path d="M97.9685 144.354L202.479 113.927V131.125C202.479 138.431 196.556 144.354 189.25 144.354H97.9685Z" fill="#FD6020"/>
<path d="M85.7603 83.651C85.7604 76.2592 91.5095 70.2886 98.984 70.857C100.996 70.857 103.296 71.1418 105.021 72.2789V77.9654C103.584 76.2596 101.284 75.1217 98.984 75.1217C94.3844 75.4061 90.6469 79.3865 90.9342 83.9352V84.5045C90.9344 89.0531 94.6725 92.4645 99.2721 92.4645C101.572 92.4643 103.584 91.3273 105.021 89.6217V95.3072C103.009 96.1601 100.997 96.7291 98.6969 96.7291C91.5098 96.7291 85.7603 90.7586 85.7603 83.651ZM144.12 87.9156L151.019 70.857H156.194L145.556 96.7291H142.969L132.333 70.857H137.507L144.12 87.9156ZM75.985 70.2887C78.5722 70.2887 81.1601 71.4257 83.1725 73.1314L80.5855 76.5436C79.4356 75.4063 77.9976 74.5533 76.5602 74.5533C74.8355 74.2692 73.3985 75.6905 73.1109 77.3961C73.1109 78.8176 73.9734 79.3868 76.8482 80.524C82.5976 82.7984 84.0354 84.5041 84.3228 87.9156V88.7682C84.0354 93.317 80.2976 96.7292 75.6978 96.4449C72.2482 96.4449 68.7988 94.739 67.0738 91.6119L70.2359 88.484C71.0984 90.4741 73.1109 91.8961 75.4107 91.8961H75.6978C77.4228 91.8961 79.148 90.1899 79.148 88.1998C79.148 87.0627 78.5729 86.2098 77.7105 85.6412C76.5606 85.0726 75.4103 84.5036 74.2603 84.2193C69.6608 82.7978 68.2232 80.8077 68.2232 77.3961V77.1119C68.5108 73.1319 71.9604 70.0047 75.985 70.2887ZM46.0875 70.857C52.9868 71.1416 58.449 76.828 58.1617 83.651C58.1616 87.3466 56.4366 90.7584 53.5621 93.317C50.9748 95.3071 47.8122 96.444 44.65 96.1598H37.4625V70.857H46.0875ZM65.0611 96.1607H60.1734V70.857H65.0611V96.1607ZM172.293 75.1217H163.38V80.8082H172.005V85.0729H163.38V91.8961H172.293V96.1607H158.494V70.857H172.293V75.1217ZM182.642 70.857C188.391 70.8571 191.554 73.416 191.554 78.2486C191.842 81.9446 189.254 85.0726 185.804 85.6412L193.566 96.1598H187.529L180.917 85.9254H180.342V96.1598H175.455V70.857H182.642ZM50.399 77.1119C48.6741 75.6905 46.0865 74.8374 43.7867 75.1217H42.3502V91.8951H43.7867C46.0864 92.1794 48.6741 91.3272 50.399 89.9059C52.1237 88.2001 52.9868 85.9253 52.9869 83.3668C52.9868 81.0925 52.1238 78.8177 50.399 77.1119ZM180.342 82.5133H181.779C184.941 82.5133 186.379 81.0916 186.379 78.5328C186.379 76.2588 184.941 74.8375 181.779 74.8375H180.342V82.5133Z" fill="black"/>
<path fill-rule="evenodd" clip-rule="evenodd" d="M119.683 70.2708C112.496 70.2708 106.459 75.9569 106.459 83.3488C106.459 90.4565 112.209 96.4269 119.683 96.7112C127.158 96.9955 132.907 91.0251 133.195 83.6332C132.907 76.2412 127.158 70.2708 119.683 70.2708V70.2708Z" fill="#FD6020"/>
</g>
<defs>
<filter id="filter0_d_3_20" x="0" y="0" width="225.208" height="167" filterUnits="userSpaceOnUse" color-interpolation-filters="sRGB">
<feFlood flood-opacity="0" result="BackgroundImageFix"/>
<feColorMatrix in="SourceAlpha" type="matrix" values="0 0 0 0 0 0 0 0 0 0 0 0 0 0 0 0 0 0 127 0" result="hardAlpha"/>
<feOffset/>
<feGaussianBlur stdDeviation="10"/>
<feComposite in2="hardAlpha" operator="out"/>
<feColorMatrix type="matrix" values="0 0 0 0 0 0 0 0 0 0 0 0 0 0 0 0 0 0 0.07 0"/>
<feBlend mode="normal" in2="BackgroundImageFix" result="effect1_dropShadow_3_20"/>
<feBlend mode="normal" in="SourceGraphic" in2="effect1_dropShadow_3_20" result="shape"/>
</filter>
</defs>
</svg>
