<svg width="226" height="167" viewBox="0 0 226 167" fill="none" xmlns="http://www.w3.org/2000/svg">
<g filter="url(#filter0_d_3_37)">
<rect x="21.3229" y="21.3229" width="182.562" height="124.354" rx="14.5521" fill="white" stroke="#D9D9D9" stroke-width="2.64583"/>
<path d="M165.505 95.7708H165.599L173.322 76.387H178.751L162.063 115.25H156.914L163.118 101.656L152.169 76.387H157.596L165.505 95.7708ZM139.389 75.5052C143.08 75.5052 145.996 76.513 148.136 78.4954C150.276 80.4779 151.331 83.2469 151.331 86.7396V103.386H146.554V99.6419H146.337C144.258 102.726 141.529 104.268 138.087 104.268C135.171 104.268 132.689 103.387 130.735 101.624C128.812 99.988 127.727 97.5648 127.789 95.0159C127.789 92.2153 128.843 90.0128 130.922 88.345C133 86.6772 135.791 85.8587 139.265 85.8587C142.243 85.8587 144.662 86.4256 146.585 87.4954V86.3304C146.585 84.5997 145.84 82.9632 144.538 81.8304C143.204 80.6347 141.498 79.9739 139.73 79.9739C136.939 79.9739 134.737 81.1702 133.124 83.5618L128.719 80.761C131.077 77.2681 134.644 75.5052 139.389 75.5052ZM115.722 63.9251C118.917 63.8622 122.02 65.0891 124.284 67.3548C128.812 71.6345 129.091 78.8413 124.841 83.4671L124.284 84.0335C121.958 86.2677 119.103 87.4007 115.722 87.4007H107.472V103.386H102.478V63.9251H115.722ZM140.042 89.9495C138.026 89.9496 136.32 90.4528 134.955 91.428C133.621 92.4035 132.938 93.6316 132.938 95.1106C132.938 96.4322 133.559 97.6592 134.583 98.4144C135.699 99.2953 137.064 99.767 138.46 99.7356C140.569 99.7356 142.586 98.8866 144.075 97.3763C145.719 95.8029 146.557 93.9458 146.557 91.806C145.006 90.5472 142.834 89.918 140.042 89.9495ZM107.472 82.554H115.848C117.71 82.6169 119.509 81.8621 120.781 80.5091C123.387 77.7713 123.325 73.3653 120.626 70.722C119.354 69.4635 117.647 68.7708 115.848 68.7708H107.472V82.554Z" fill="#3C4043"/>
<path d="M90.2316 83.939C90.2316 82.397 90.1075 80.8551 89.8593 79.3446H68.7985V88.0613H80.8643C80.368 90.862 78.7551 93.3795 76.3978 94.9529V100.617H83.5938C87.8122 96.6836 90.2316 90.862 90.2316 83.939Z" fill="#4285F4"/>
<path d="M68.7995 106.093C74.8169 106.093 79.9037 104.079 83.5948 100.617L76.3987 94.9529C74.3826 96.3375 71.8082 97.1242 68.7995 97.1242C62.9682 97.1242 58.0364 93.1277 56.2684 87.7781H48.8553V93.6312C52.6394 101.278 60.3627 106.093 68.7995 106.093Z" fill="#34A853"/>
<path d="M56.2692 87.7782C55.3386 84.9775 55.3386 81.9251 56.2692 79.0929V73.2713H48.8549C45.6596 79.6594 45.6596 87.2117 48.8549 93.5998L56.2692 87.7782Z" fill="#FBBC04"/>
<path d="M68.7995 69.7468C71.9943 69.6839 75.065 70.9111 77.3603 73.1454L83.7499 66.6629C79.6866 62.8238 74.3516 60.7154 68.7995 60.7783C60.3627 60.7783 52.6394 65.6245 48.8553 73.2713L56.2684 79.1244C58.0364 73.7433 62.9682 69.7468 68.7995 69.7468Z" fill="#EA4335"/>
</g>
<defs>
<filter id="filter0_d_3_37" x="0" y="0" width="225.208" height="167" filterUnits="userSpaceOnUse" color-interpolation-filters="sRGB">
<feFlood flood-opacity="0" result="BackgroundImageFix"/>
<feColorMatrix in="SourceAlpha" type="matrix" values="0 0 0 0 0 0 0 0 0 0 0 0 0 0 0 0 0 0 127 0" result="hardAlpha"/>
<feOffset/>
<feGaussianBlur stdDeviation="10"/>
<feComposite in2="hardAlpha" operator="out"/>
<feColorMatrix type="matrix" values="0 0 0 0 0 0 0 0 0 0 0 0 0 0 0 0 0 0 0.07 0"/>
<feBlend mode="normal" in2="BackgroundImageFix" result="effect1_dropShadow_3_37"/>
<feBlend mode="normal" in="SourceGraphic" in2="effect1_dropShadow_3_37" result="shape"/>
</filter>
</defs>
</svg>
