<svg width="226" height="167" viewBox="0 0 226 167" fill="none" xmlns="http://www.w3.org/2000/svg">
<g filter="url(#filter0_d_3_61)">
<rect x="21.3229" y="21.3229" width="182.562" height="124.354" rx="14.5521" fill="white" stroke="#D9D9D9" stroke-width="2.64583"/>
<path d="M137.349 46.4583C157.291 46.4583 173.458 62.8126 173.458 82.9867C173.458 103.161 157.291 119.515 137.349 119.515C128.411 119.515 120.233 116.228 113.927 110.785C107.622 116.228 99.4434 119.515 90.5052 119.515C70.5627 119.515 54.3958 103.161 54.3958 82.9867C54.3958 62.8126 70.5627 46.4583 90.5052 46.4583C99.443 46.4584 107.622 49.7443 113.927 55.1859C120.233 49.7443 128.411 46.4584 137.349 46.4583Z" fill="#ED0006"/>
<path d="M137.349 46.4583C157.291 46.4583 173.458 62.8126 173.458 82.9867C173.458 103.161 157.291 119.515 137.349 119.515C128.411 119.515 120.233 116.228 113.927 110.785C121.69 104.086 126.614 94.1186 126.614 82.9867C126.614 71.8543 121.691 61.8858 113.927 55.1859C120.233 49.7443 128.411 46.4584 137.349 46.4583Z" fill="#F9A000"/>
<path d="M113.927 55.1876C121.69 61.8875 126.614 71.8545 126.614 82.9864C126.614 94.1183 121.69 104.085 113.927 110.785C106.164 104.085 101.24 94.1181 101.24 82.9864C101.24 71.8547 106.164 61.8875 113.927 55.1876Z" fill="#FF5E00"/>
</g>
<defs>
<filter id="filter0_d_3_61" x="0" y="0" width="225.208" height="167" filterUnits="userSpaceOnUse" color-interpolation-filters="sRGB">
<feFlood flood-opacity="0" result="BackgroundImageFix"/>
<feColorMatrix in="SourceAlpha" type="matrix" values="0 0 0 0 0 0 0 0 0 0 0 0 0 0 0 0 0 0 127 0" result="hardAlpha"/>
<feOffset/>
<feGaussianBlur stdDeviation="10"/>
<feComposite in2="hardAlpha" operator="out"/>
<feColorMatrix type="matrix" values="0 0 0 0 0 0 0 0 0 0 0 0 0 0 0 0 0 0 0.07 0"/>
<feBlend mode="normal" in2="BackgroundImageFix" result="effect1_dropShadow_3_61"/>
<feBlend mode="normal" in="SourceGraphic" in2="effect1_dropShadow_3_61" result="shape"/>
</filter>
</defs>
</svg>
