<svg width="984" height="206" viewBox="0 0 984 206" fill="none" xmlns="http://www.w3.org/2000/svg">
<mask id="path-1-outside-1_187_517" maskUnits="userSpaceOnUse" x="62" y="28" width="856" height="147" fill="black">
<rect fill="white" x="62" y="28" width="856" height="147"/>
<path d="M149.21 46.66C150.343 44.62 151.987 43.26 154.14 42.58C156.293 41.9 158.957 41.56 162.13 41.56C165.417 41.56 168.023 41.8433 169.95 42.41C171.99 42.9767 173.463 43.6567 174.37 44.45C175.39 45.2433 176.127 46.4333 176.58 48.02C177.26 49.8333 177.6 52.7233 177.6 56.69V151.04C177.6 153.76 177.487 155.743 177.26 156.99C177.147 158.237 176.637 159.71 175.73 161.41C174.143 164.47 169.723 166 162.47 166C158.05 166 154.99 165.66 153.29 164.98C151.59 164.3 150.173 163.223 149.04 161.75C123.54 127.75 106.767 105.537 98.72 95.11V151.04C98.72 153.76 98.6067 155.743 98.38 156.99C98.2667 158.237 97.7567 159.71 96.85 161.41C95.2633 164.47 90.8433 166 83.59 166C76.5633 166 72.2567 164.47 70.67 161.41C69.7633 159.71 69.1967 158.18 68.97 156.82C68.8567 155.46 68.8 153.477 68.8 150.87V56.01C68.8 51.7033 69.31 48.5867 70.33 46.66C71.4633 44.62 73.1067 43.26 75.26 42.58C77.4133 41.9 80.19 41.56 83.59 41.56C86.99 41.56 89.6533 41.9 91.58 42.58C93.62 43.1467 95.0367 43.8267 95.83 44.62C96.2833 44.96 97.5867 46.4333 99.74 49.04C123.653 81.5667 139.633 103.043 147.68 113.47V56.01C147.68 51.7033 148.19 48.5867 149.21 46.66ZM194.554 91.37C194.554 88.7633 194.61 86.8367 194.724 85.59C194.95 84.23 195.46 82.7 196.254 81C197.84 78.0533 202.26 76.58 209.514 76.58C214.954 76.58 218.807 77.5433 221.074 79.47C223 81.0567 224.02 83.4933 224.134 86.78C224.247 87.9133 224.304 89.5567 224.304 91.71V151.21C224.304 153.817 224.19 155.8 223.964 157.16C223.85 158.407 223.34 159.88 222.434 161.58C220.96 164.527 216.597 166 209.344 166C202.204 166 197.84 164.47 196.254 161.41C195.46 159.71 194.95 158.237 194.724 156.99C194.61 155.743 194.554 153.76 194.554 151.04V91.37ZM222.434 59.92C221.64 61.5067 220.167 62.64 218.014 63.32C215.86 64 212.97 64.34 209.344 64.34C205.83 64.34 202.997 64 200.844 63.32C198.69 62.64 197.16 61.45 196.254 59.75C195.46 58.05 194.95 56.5767 194.724 55.33C194.61 53.97 194.554 51.9867 194.554 49.38C194.554 46.7733 194.61 44.8467 194.724 43.6C194.95 42.24 195.46 40.7667 196.254 39.18C197.84 36.12 202.26 34.59 209.514 34.59C216.654 34.59 220.96 36.12 222.434 39.18C223.34 40.88 223.85 42.41 223.964 43.77C224.19 45.0167 224.304 46.9433 224.304 49.55C224.304 52.1567 224.19 54.14 223.964 55.5C223.85 56.7467 223.34 58.22 222.434 59.92ZM291.094 76.41C302.427 76.41 311.834 80.7733 319.314 89.5C326.907 98.1133 330.704 108.653 330.704 121.12V151.04C330.704 153.647 330.59 155.63 330.364 156.99C330.25 158.237 329.797 159.653 329.004 161.24C327.417 164.3 322.997 165.83 315.744 165.83C307.697 165.83 303.05 163.733 301.804 159.54C301.124 157.613 300.784 154.723 300.784 150.87V120.95C300.784 116.303 299.424 112.677 296.704 110.07C294.097 107.463 290.527 106.16 285.994 106.16C281.574 106.16 277.947 107.52 275.114 110.24C272.394 112.96 271.034 116.53 271.034 120.95V151.04C271.034 153.647 270.92 155.63 270.694 156.99C270.58 158.237 270.07 159.653 269.164 161.24C267.69 164.3 263.327 165.83 256.074 165.83C248.934 165.83 244.57 164.3 242.984 161.24C242.19 159.54 241.68 158.067 241.454 156.82C241.34 155.46 241.284 153.477 241.284 150.87V90.69C241.284 88.1967 241.34 86.3267 241.454 85.08C241.68 83.72 242.247 82.2467 243.154 80.66C244.74 77.8267 249.104 76.41 256.244 76.41C263.157 76.41 267.407 77.7133 268.994 80.32C270.127 82.2467 270.694 84.57 270.694 87.29C271.147 86.4967 272.167 85.3633 273.754 83.89C275.34 82.4167 276.87 81.2267 278.344 80.32C282.197 77.7133 286.447 76.41 291.094 76.41ZM391.469 34.42L395.379 35.27C405.919 38.67 413.513 41.1633 418.159 42.75C422.919 44.3367 425.299 47.1133 425.299 51.08C425.299 53.2333 424.676 55.5 423.429 57.88C420.369 63.8867 416.969 66.89 413.229 66.89C412.209 66.89 410.396 66.4933 407.789 65.7L391.469 58.56L375.659 65.36C374.073 66.1533 372.146 66.55 369.879 66.55C365.573 66.55 362.059 63.66 359.339 57.88C357.979 54.9333 357.299 52.5533 357.299 50.74C357.299 47.1133 359.453 44.5633 363.759 43.09L387.389 35.27L391.469 34.42ZM434.139 110.58C434.139 117.493 432.383 122.65 428.869 126.05C425.469 129.337 421.673 130.98 417.479 130.98H377.189C377.189 134.153 379.059 136.817 382.799 138.97C386.539 141.123 390.279 142.2 394.019 142.2C400.593 142.2 405.749 141.52 409.489 140.16L411.359 139.48C414.079 138.233 416.346 137.61 418.159 137.61C421.786 137.61 424.903 140.16 427.509 145.26C428.983 148.32 429.719 150.927 429.719 153.08C429.719 163.167 417.649 168.21 393.509 168.21C385.123 168.21 377.643 166.793 371.069 163.96C364.609 161.013 359.566 157.16 355.939 152.4C348.799 143.22 345.229 132.963 345.229 121.63C345.229 107.35 349.819 95.96 358.999 87.46C368.293 78.8467 379.853 74.54 393.679 74.54C409.433 74.54 420.993 80.0933 428.359 91.2C432.213 97.0933 434.139 103.553 434.139 110.58ZM398.269 115.51C402.576 115.51 404.729 113.697 404.729 110.07C404.729 107.463 403.709 105.367 401.669 103.78C399.743 102.193 396.909 101.4 393.169 101.4C389.543 101.4 385.916 102.93 382.289 105.99C378.663 108.937 376.849 112.11 376.849 115.51H398.269ZM598.049 166.17C588.189 166.17 578.442 163.62 568.809 158.52C558.042 164.413 547.162 167.36 536.169 167.36C507.042 167.36 492.479 155.233 492.479 130.98C492.479 118.4 498.995 106.727 512.029 95.96C507.495 85.8733 505.229 76.75 505.229 68.59C505.229 57.2567 508.629 48.87 515.429 43.43C522.229 37.99 531.352 35.27 542.799 35.27C554.245 35.27 562.915 37.99 568.809 43.43C574.702 48.87 577.649 56.2933 577.649 65.7C577.649 73.6333 574.419 80.7733 567.959 87.12C563.199 91.88 556.512 97.15 547.899 102.93C554.585 111.77 561.839 119.25 569.659 125.37C572.832 120.497 575.042 115.51 576.289 110.41C577.422 105.423 582.522 102.93 591.589 102.93C595.442 102.93 598.332 103.44 600.259 104.46C602.299 105.48 603.432 106.557 603.659 107.69C603.999 108.71 604.112 110.07 603.999 111.77C603.545 120.383 600.032 128.94 593.459 137.44C595.159 137.78 596.745 137.95 598.219 137.95C607.059 137.95 611.479 142.427 611.479 151.38C611.479 157.613 610.459 161.637 608.419 163.45C606.379 165.263 602.922 166.17 598.049 166.17ZM532.089 66.55C532.089 70.63 533.052 75.22 534.979 80.32C540.305 76.92 544.272 74.0867 546.879 71.82C549.599 69.5533 550.959 67.4 550.959 65.36C550.959 60.3733 548.182 57.88 542.629 57.88C535.602 57.88 532.089 60.77 532.089 66.55ZM537.359 142.2C540.192 142.2 542.742 141.973 545.009 141.52C538.435 135.627 532.202 128.6 526.309 120.44C523.702 123.727 522.399 127.127 522.399 130.64C522.399 138.347 527.385 142.2 537.359 142.2ZM749.855 133.36L752.915 131.15C756.768 128.883 759.488 127.75 761.075 127.75C764.588 127.75 768.385 130.923 772.465 137.27C774.958 141.237 776.205 144.41 776.205 146.79C776.205 149.17 775.411 151.153 773.825 152.74C772.351 154.327 770.595 155.743 768.555 156.99C766.515 158.237 764.531 159.427 762.605 160.56C760.791 161.693 756.995 163.167 751.215 164.98C745.435 166.793 739.825 167.7 734.385 167.7C729.058 167.7 723.618 167.02 718.065 165.66C712.625 164.187 706.958 161.807 701.065 158.52C695.285 155.12 690.071 151.04 685.425 146.28C680.778 141.407 676.925 135.23 673.865 127.75C670.918 120.157 669.445 111.94 669.445 103.1C669.445 94.26 670.918 86.27 673.865 79.13C676.811 71.8767 680.551 65.9267 685.085 61.28C689.731 56.52 695.001 52.5533 700.895 49.38C712.001 43.26 723.165 40.2 734.385 40.2C739.711 40.2 745.095 41.05 750.535 42.75C756.088 44.3367 760.281 45.98 763.115 47.68L767.195 50.06C769.235 51.3067 770.821 52.3267 771.955 53.12C774.901 55.5 776.375 58.22 776.375 61.28C776.375 64.2267 775.185 67.3433 772.805 70.63C768.385 76.75 764.418 79.81 760.905 79.81C758.865 79.81 755.975 78.5633 752.235 76.07C747.475 72.2167 741.128 70.29 733.195 70.29C725.828 70.29 718.575 72.84 711.435 77.94C708.035 80.4333 705.201 83.9467 702.935 88.48C700.668 93.0133 699.535 98.17 699.535 103.95C699.535 109.617 700.668 114.717 702.935 119.25C705.201 123.783 708.091 127.353 711.605 129.96C718.518 134.947 725.715 137.44 733.195 137.44C736.708 137.44 739.995 136.987 743.055 136.08C746.228 135.173 748.495 134.267 749.855 133.36ZM849.255 39.86C866.029 39.86 880.592 45.9233 892.945 58.05C905.299 70.1767 911.475 85.25 911.475 103.27C911.475 121.177 905.582 136.477 893.795 149.17C882.009 161.75 867.502 168.04 850.275 168.04C833.049 168.04 818.372 161.807 806.245 149.34C794.232 136.873 788.225 122.027 788.225 104.8C788.225 95.3933 789.925 86.61 793.325 78.45C796.725 70.1767 801.259 63.2633 806.925 57.71C812.592 52.1567 819.109 47.7933 826.475 44.62C833.842 41.4467 841.435 39.86 849.255 39.86ZM818.315 103.95C818.315 114.037 821.545 122.253 828.005 128.6C834.579 134.833 841.889 137.95 849.935 137.95C857.982 137.95 865.235 134.89 871.695 128.77C878.155 122.65 881.385 114.433 881.385 104.12C881.385 93.8067 878.099 85.5333 871.525 79.3C865.065 73.0667 857.812 69.95 849.765 69.95C841.719 69.95 834.465 73.1233 828.005 79.47C821.545 85.7033 818.315 93.8633 818.315 103.95Z"/>
</mask>
<path d="M149.21 46.66C150.343 44.62 151.987 43.26 154.14 42.58C156.293 41.9 158.957 41.56 162.13 41.56C165.417 41.56 168.023 41.8433 169.95 42.41C171.99 42.9767 173.463 43.6567 174.37 44.45C175.39 45.2433 176.127 46.4333 176.58 48.02C177.26 49.8333 177.6 52.7233 177.6 56.69V151.04C177.6 153.76 177.487 155.743 177.26 156.99C177.147 158.237 176.637 159.71 175.73 161.41C174.143 164.47 169.723 166 162.47 166C158.05 166 154.99 165.66 153.29 164.98C151.59 164.3 150.173 163.223 149.04 161.75C123.54 127.75 106.767 105.537 98.72 95.11V151.04C98.72 153.76 98.6067 155.743 98.38 156.99C98.2667 158.237 97.7567 159.71 96.85 161.41C95.2633 164.47 90.8433 166 83.59 166C76.5633 166 72.2567 164.47 70.67 161.41C69.7633 159.71 69.1967 158.18 68.97 156.82C68.8567 155.46 68.8 153.477 68.8 150.87V56.01C68.8 51.7033 69.31 48.5867 70.33 46.66C71.4633 44.62 73.1067 43.26 75.26 42.58C77.4133 41.9 80.19 41.56 83.59 41.56C86.99 41.56 89.6533 41.9 91.58 42.58C93.62 43.1467 95.0367 43.8267 95.83 44.62C96.2833 44.96 97.5867 46.4333 99.74 49.04C123.653 81.5667 139.633 103.043 147.68 113.47V56.01C147.68 51.7033 148.19 48.5867 149.21 46.66ZM194.554 91.37C194.554 88.7633 194.61 86.8367 194.724 85.59C194.95 84.23 195.46 82.7 196.254 81C197.84 78.0533 202.26 76.58 209.514 76.58C214.954 76.58 218.807 77.5433 221.074 79.47C223 81.0567 224.02 83.4933 224.134 86.78C224.247 87.9133 224.304 89.5567 224.304 91.71V151.21C224.304 153.817 224.19 155.8 223.964 157.16C223.85 158.407 223.34 159.88 222.434 161.58C220.96 164.527 216.597 166 209.344 166C202.204 166 197.84 164.47 196.254 161.41C195.46 159.71 194.95 158.237 194.724 156.99C194.61 155.743 194.554 153.76 194.554 151.04V91.37ZM222.434 59.92C221.64 61.5067 220.167 62.64 218.014 63.32C215.86 64 212.97 64.34 209.344 64.34C205.83 64.34 202.997 64 200.844 63.32C198.69 62.64 197.16 61.45 196.254 59.75C195.46 58.05 194.95 56.5767 194.724 55.33C194.61 53.97 194.554 51.9867 194.554 49.38C194.554 46.7733 194.61 44.8467 194.724 43.6C194.95 42.24 195.46 40.7667 196.254 39.18C197.84 36.12 202.26 34.59 209.514 34.59C216.654 34.59 220.96 36.12 222.434 39.18C223.34 40.88 223.85 42.41 223.964 43.77C224.19 45.0167 224.304 46.9433 224.304 49.55C224.304 52.1567 224.19 54.14 223.964 55.5C223.85 56.7467 223.34 58.22 222.434 59.92ZM291.094 76.41C302.427 76.41 311.834 80.7733 319.314 89.5C326.907 98.1133 330.704 108.653 330.704 121.12V151.04C330.704 153.647 330.59 155.63 330.364 156.99C330.25 158.237 329.797 159.653 329.004 161.24C327.417 164.3 322.997 165.83 315.744 165.83C307.697 165.83 303.05 163.733 301.804 159.54C301.124 157.613 300.784 154.723 300.784 150.87V120.95C300.784 116.303 299.424 112.677 296.704 110.07C294.097 107.463 290.527 106.16 285.994 106.16C281.574 106.16 277.947 107.52 275.114 110.24C272.394 112.96 271.034 116.53 271.034 120.95V151.04C271.034 153.647 270.92 155.63 270.694 156.99C270.58 158.237 270.07 159.653 269.164 161.24C267.69 164.3 263.327 165.83 256.074 165.83C248.934 165.83 244.57 164.3 242.984 161.24C242.19 159.54 241.68 158.067 241.454 156.82C241.34 155.46 241.284 153.477 241.284 150.87V90.69C241.284 88.1967 241.34 86.3267 241.454 85.08C241.68 83.72 242.247 82.2467 243.154 80.66C244.74 77.8267 249.104 76.41 256.244 76.41C263.157 76.41 267.407 77.7133 268.994 80.32C270.127 82.2467 270.694 84.57 270.694 87.29C271.147 86.4967 272.167 85.3633 273.754 83.89C275.34 82.4167 276.87 81.2267 278.344 80.32C282.197 77.7133 286.447 76.41 291.094 76.41ZM391.469 34.42L395.379 35.27C405.919 38.67 413.513 41.1633 418.159 42.75C422.919 44.3367 425.299 47.1133 425.299 51.08C425.299 53.2333 424.676 55.5 423.429 57.88C420.369 63.8867 416.969 66.89 413.229 66.89C412.209 66.89 410.396 66.4933 407.789 65.7L391.469 58.56L375.659 65.36C374.073 66.1533 372.146 66.55 369.879 66.55C365.573 66.55 362.059 63.66 359.339 57.88C357.979 54.9333 357.299 52.5533 357.299 50.74C357.299 47.1133 359.453 44.5633 363.759 43.09L387.389 35.27L391.469 34.42ZM434.139 110.58C434.139 117.493 432.383 122.65 428.869 126.05C425.469 129.337 421.673 130.98 417.479 130.98H377.189C377.189 134.153 379.059 136.817 382.799 138.97C386.539 141.123 390.279 142.2 394.019 142.2C400.593 142.2 405.749 141.52 409.489 140.16L411.359 139.48C414.079 138.233 416.346 137.61 418.159 137.61C421.786 137.61 424.903 140.16 427.509 145.26C428.983 148.32 429.719 150.927 429.719 153.08C429.719 163.167 417.649 168.21 393.509 168.21C385.123 168.21 377.643 166.793 371.069 163.96C364.609 161.013 359.566 157.16 355.939 152.4C348.799 143.22 345.229 132.963 345.229 121.63C345.229 107.35 349.819 95.96 358.999 87.46C368.293 78.8467 379.853 74.54 393.679 74.54C409.433 74.54 420.993 80.0933 428.359 91.2C432.213 97.0933 434.139 103.553 434.139 110.58ZM398.269 115.51C402.576 115.51 404.729 113.697 404.729 110.07C404.729 107.463 403.709 105.367 401.669 103.78C399.743 102.193 396.909 101.4 393.169 101.4C389.543 101.4 385.916 102.93 382.289 105.99C378.663 108.937 376.849 112.11 376.849 115.51H398.269ZM598.049 166.17C588.189 166.17 578.442 163.62 568.809 158.52C558.042 164.413 547.162 167.36 536.169 167.36C507.042 167.36 492.479 155.233 492.479 130.98C492.479 118.4 498.995 106.727 512.029 95.96C507.495 85.8733 505.229 76.75 505.229 68.59C505.229 57.2567 508.629 48.87 515.429 43.43C522.229 37.99 531.352 35.27 542.799 35.27C554.245 35.27 562.915 37.99 568.809 43.43C574.702 48.87 577.649 56.2933 577.649 65.7C577.649 73.6333 574.419 80.7733 567.959 87.12C563.199 91.88 556.512 97.15 547.899 102.93C554.585 111.77 561.839 119.25 569.659 125.37C572.832 120.497 575.042 115.51 576.289 110.41C577.422 105.423 582.522 102.93 591.589 102.93C595.442 102.93 598.332 103.44 600.259 104.46C602.299 105.48 603.432 106.557 603.659 107.69C603.999 108.71 604.112 110.07 603.999 111.77C603.545 120.383 600.032 128.94 593.459 137.44C595.159 137.78 596.745 137.95 598.219 137.95C607.059 137.95 611.479 142.427 611.479 151.38C611.479 157.613 610.459 161.637 608.419 163.45C606.379 165.263 602.922 166.17 598.049 166.17ZM532.089 66.55C532.089 70.63 533.052 75.22 534.979 80.32C540.305 76.92 544.272 74.0867 546.879 71.82C549.599 69.5533 550.959 67.4 550.959 65.36C550.959 60.3733 548.182 57.88 542.629 57.88C535.602 57.88 532.089 60.77 532.089 66.55ZM537.359 142.2C540.192 142.2 542.742 141.973 545.009 141.52C538.435 135.627 532.202 128.6 526.309 120.44C523.702 123.727 522.399 127.127 522.399 130.64C522.399 138.347 527.385 142.2 537.359 142.2ZM749.855 133.36L752.915 131.15C756.768 128.883 759.488 127.75 761.075 127.75C764.588 127.75 768.385 130.923 772.465 137.27C774.958 141.237 776.205 144.41 776.205 146.79C776.205 149.17 775.411 151.153 773.825 152.74C772.351 154.327 770.595 155.743 768.555 156.99C766.515 158.237 764.531 159.427 762.605 160.56C760.791 161.693 756.995 163.167 751.215 164.98C745.435 166.793 739.825 167.7 734.385 167.7C729.058 167.7 723.618 167.02 718.065 165.66C712.625 164.187 706.958 161.807 701.065 158.52C695.285 155.12 690.071 151.04 685.425 146.28C680.778 141.407 676.925 135.23 673.865 127.75C670.918 120.157 669.445 111.94 669.445 103.1C669.445 94.26 670.918 86.27 673.865 79.13C676.811 71.8767 680.551 65.9267 685.085 61.28C689.731 56.52 695.001 52.5533 700.895 49.38C712.001 43.26 723.165 40.2 734.385 40.2C739.711 40.2 745.095 41.05 750.535 42.75C756.088 44.3367 760.281 45.98 763.115 47.68L767.195 50.06C769.235 51.3067 770.821 52.3267 771.955 53.12C774.901 55.5 776.375 58.22 776.375 61.28C776.375 64.2267 775.185 67.3433 772.805 70.63C768.385 76.75 764.418 79.81 760.905 79.81C758.865 79.81 755.975 78.5633 752.235 76.07C747.475 72.2167 741.128 70.29 733.195 70.29C725.828 70.29 718.575 72.84 711.435 77.94C708.035 80.4333 705.201 83.9467 702.935 88.48C700.668 93.0133 699.535 98.17 699.535 103.95C699.535 109.617 700.668 114.717 702.935 119.25C705.201 123.783 708.091 127.353 711.605 129.96C718.518 134.947 725.715 137.44 733.195 137.44C736.708 137.44 739.995 136.987 743.055 136.08C746.228 135.173 748.495 134.267 749.855 133.36ZM849.255 39.86C866.029 39.86 880.592 45.9233 892.945 58.05C905.299 70.1767 911.475 85.25 911.475 103.27C911.475 121.177 905.582 136.477 893.795 149.17C882.009 161.75 867.502 168.04 850.275 168.04C833.049 168.04 818.372 161.807 806.245 149.34C794.232 136.873 788.225 122.027 788.225 104.8C788.225 95.3933 789.925 86.61 793.325 78.45C796.725 70.1767 801.259 63.2633 806.925 57.71C812.592 52.1567 819.109 47.7933 826.475 44.62C833.842 41.4467 841.435 39.86 849.255 39.86ZM818.315 103.95C818.315 114.037 821.545 122.253 828.005 128.6C834.579 134.833 841.889 137.95 849.935 137.95C857.982 137.95 865.235 134.89 871.695 128.77C878.155 122.65 881.385 114.433 881.385 104.12C881.385 93.8067 878.099 85.5333 871.525 79.3C865.065 73.0667 857.812 69.95 849.765 69.95C841.719 69.95 834.465 73.1233 828.005 79.47C821.545 85.7033 818.315 93.8633 818.315 103.95Z" fill="#709CB2"/>
<path d="M149.21 46.66L143.965 43.7461L143.936 43.7991L143.907 43.8527L149.21 46.66ZM154.14 42.58L155.947 48.3015L155.947 48.3015L154.14 42.58ZM169.95 42.41L168.257 48.1662L168.3 48.179L168.344 48.1911L169.95 42.41ZM174.37 44.45L170.419 48.9654L170.549 49.0796L170.686 49.1861L174.37 44.45ZM176.58 48.02L170.811 49.6683L170.877 49.9006L170.962 50.1267L176.58 48.02ZM177.26 156.99L171.357 155.917L171.309 156.18L171.285 156.447L177.26 156.99ZM175.73 161.41L170.436 158.586L170.42 158.617L170.403 158.648L175.73 161.41ZM153.29 164.98L151.062 170.551H151.062L153.29 164.98ZM149.04 161.75L144.24 165.35L144.262 165.379L144.284 165.408L149.04 161.75ZM98.72 95.11L103.47 91.4443L92.72 77.5147V95.11H98.72ZM98.38 156.99L92.4768 155.917L92.4289 156.18L92.4046 156.447L98.38 156.99ZM96.85 161.41L91.5559 158.586L91.5395 158.617L91.5235 158.648L96.85 161.41ZM70.67 161.41L75.9965 158.648L75.9805 158.617L75.9641 158.586L70.67 161.41ZM68.97 156.82L62.9907 157.318L63.0112 157.564L63.0516 157.806L68.97 156.82ZM70.33 46.66L65.0851 43.7461L65.0556 43.7991L65.0273 43.8527L70.33 46.66ZM75.26 42.58L77.0668 48.3015L77.0668 48.3015L75.26 42.58ZM91.58 42.58L89.5831 48.2379L89.7765 48.3062L89.9741 48.3611L91.58 42.58ZM95.83 44.62L91.5874 48.8626L91.8889 49.1641L92.23 49.42L95.83 44.62ZM99.74 49.04L104.574 45.486L104.474 45.3494L104.366 45.2187L99.74 49.04ZM147.68 113.47L142.93 117.136L153.68 131.065V113.47H147.68ZM149.21 46.66L154.455 49.5739C154.871 48.8251 155.31 48.5027 155.947 48.3015L154.14 42.58L152.333 36.8585C148.664 38.0173 145.816 40.4148 143.965 43.7461L149.21 46.66ZM154.14 42.58L155.947 48.3015C157.332 47.864 159.342 47.56 162.13 47.56V41.56V35.56C158.572 35.56 155.255 35.936 152.333 36.8585L154.14 42.58ZM162.13 41.56V47.56C165.158 47.56 167.117 47.8309 168.257 48.1662L169.95 42.41L171.643 36.6538C168.93 35.8557 165.675 35.56 162.13 35.56V41.56ZM169.95 42.41L168.344 48.1911C169.141 48.4125 169.7 48.6217 170.071 48.7927C170.454 48.9698 170.518 49.0517 170.419 48.9654L174.37 44.45L178.321 39.9346C176.405 38.2578 173.901 37.2804 171.556 36.6289L169.95 42.41ZM174.37 44.45L170.686 49.1861C170.589 49.1101 170.561 49.0562 170.586 49.0956C170.617 49.1454 170.71 49.3144 170.811 49.6683L176.58 48.02L182.349 46.3717C181.643 43.9014 180.327 41.4818 178.054 39.7139L174.37 44.45ZM176.58 48.02L170.962 50.1267C171.242 50.874 171.6 52.8499 171.6 56.69H177.6H183.6C183.6 52.5968 183.278 48.7927 182.198 45.9133L176.58 48.02ZM177.6 56.69H171.6V151.04H177.6H183.6V56.69H177.6ZM177.6 151.04H171.6C171.6 153.712 171.48 155.236 171.357 155.917L177.26 156.99L183.163 158.063C183.493 156.25 183.6 153.808 183.6 151.04H177.6ZM177.26 156.99L171.285 156.447C171.272 156.584 171.148 157.252 170.436 158.586L175.73 161.41L181.024 164.234C182.125 162.168 183.021 159.89 183.235 157.533L177.26 156.99ZM175.73 161.41L170.403 158.648C170.539 158.387 170.548 158.738 169.262 159.183C167.932 159.643 165.755 160 162.47 160V166V172C166.439 172 170.098 171.592 173.188 170.522C176.322 169.437 179.335 167.493 181.057 164.172L175.73 161.41ZM162.47 166V160C158.032 160 156.033 159.615 155.518 159.409L153.29 164.98L151.062 170.551C153.947 171.705 158.068 172 162.47 172V166ZM153.29 164.98L155.518 159.409C154.833 159.135 154.284 158.726 153.796 158.092L149.04 161.75L144.284 165.408C146.063 167.721 148.347 169.465 151.062 170.551L153.29 164.98ZM149.04 161.75L153.84 158.15C128.345 124.157 111.547 101.91 103.47 91.4443L98.72 95.11L93.97 98.7757C101.987 109.164 118.735 131.343 144.24 165.35L149.04 161.75ZM98.72 95.11H92.72V151.04H98.72H104.72V95.11H98.72ZM98.72 151.04H92.72C92.72 153.712 92.6005 155.236 92.4768 155.917L98.38 156.99L104.283 158.063C104.613 156.25 104.72 153.808 104.72 151.04H98.72ZM98.38 156.99L92.4046 156.447C92.3922 156.584 92.2678 157.252 91.5559 158.586L96.85 161.41L102.144 164.234C103.245 162.168 104.141 159.89 104.355 157.533L98.38 156.99ZM96.85 161.41L91.5235 158.648C91.6586 158.387 91.668 158.738 90.3823 159.183C89.0518 159.643 86.8748 160 83.59 160V166V172C87.5585 172 91.2182 171.592 94.3077 170.522C97.442 169.437 100.455 167.493 102.177 164.172L96.85 161.41ZM83.59 166V160C80.4335 160 78.3575 159.646 77.0986 159.199C75.8993 158.773 75.8871 158.437 75.9965 158.648L70.67 161.41L65.3435 164.172C67.0396 167.443 69.974 169.402 73.0814 170.506C76.1292 171.589 79.7198 172 83.59 172V166ZM70.67 161.41L75.9641 158.586C75.2517 157.251 74.9748 156.352 74.8884 155.834L68.97 156.82L63.0516 157.806C63.4185 160.008 64.275 162.169 65.3759 164.234L70.67 161.41ZM68.97 156.82L74.9493 156.322C74.857 155.215 74.8 153.431 74.8 150.87H68.8H62.8C62.8 153.523 62.8563 155.705 62.9907 157.318L68.97 156.82ZM68.8 150.87H74.8V56.01H68.8H62.8V150.87H68.8ZM68.8 56.01H74.8C74.8 51.9035 75.3324 50.0346 75.6327 49.4673L70.33 46.66L65.0273 43.8527C63.2876 47.1387 62.8 51.5032 62.8 56.01H68.8ZM70.33 46.66L75.5749 49.5739C75.9909 48.8251 76.4296 48.5027 77.0668 48.3015L75.26 42.58L73.4532 36.8585C69.7837 38.0173 66.9358 40.4148 65.0851 43.7461L70.33 46.66ZM75.26 42.58L77.0668 48.3015C78.4198 47.8742 80.5259 47.56 83.59 47.56V41.56V35.56C79.8541 35.56 76.4068 35.9258 73.4532 36.8585L75.26 42.58ZM83.59 41.56V47.56C86.6992 47.56 88.5837 47.8852 89.5831 48.2379L91.58 42.58L93.5769 36.9221C90.723 35.9148 87.2808 35.56 83.59 35.56V41.56ZM91.58 42.58L89.9741 48.3611C90.7625 48.5801 91.2742 48.7792 91.5761 48.9241C91.8993 49.0793 91.8193 49.0946 91.5874 48.8626L95.83 44.62L100.073 40.3773C98.1488 38.4535 95.4821 37.4367 93.1859 36.7989L91.58 42.58ZM95.83 44.62L92.23 49.42C91.9345 49.1984 91.8203 49.0562 92.0199 49.2623C92.152 49.3986 92.3586 49.6221 92.6535 49.9554C93.2398 50.6182 94.0548 51.5789 95.1142 52.8613L99.74 49.04L104.366 45.2187C103.272 43.8945 102.359 42.8151 101.641 42.0046C101.103 41.3955 100.244 40.4302 99.43 39.82L95.83 44.62ZM99.74 49.04L94.9059 52.594C118.812 85.1104 134.833 106.644 142.93 117.136L147.68 113.47L152.43 109.804C144.433 99.4425 128.495 78.0229 104.574 45.486L99.74 49.04ZM147.68 113.47H153.68V56.01H147.68H141.68V113.47H147.68ZM147.68 56.01H153.68C153.68 51.9035 154.212 50.0346 154.513 49.4673L149.21 46.66L143.907 43.8527C142.168 47.1387 141.68 51.5032 141.68 56.01H147.68ZM194.724 85.59L188.805 84.6036L188.768 84.8241L188.748 85.0468L194.724 85.59ZM196.254 81L190.971 78.1554L190.889 78.3068L190.816 78.4627L196.254 81ZM221.074 79.47L217.188 84.0416L217.223 84.0719L217.259 84.1016L221.074 79.47ZM224.134 86.78L218.137 86.9868L218.144 87.1823L218.163 87.377L224.134 86.78ZM223.964 157.16L218.045 156.174L218.008 156.394L217.988 156.617L223.964 157.16ZM222.434 161.58L217.139 158.756L217.102 158.826L217.067 158.897L222.434 161.58ZM196.254 161.41L190.816 163.947L190.869 164.061L190.927 164.172L196.254 161.41ZM194.724 156.99L188.748 157.533L188.772 157.8L188.82 158.063L194.724 156.99ZM222.434 59.92L217.139 57.0965L217.102 57.1661L217.067 57.2367L222.434 59.92ZM218.014 63.32L216.207 57.5985H216.207L218.014 63.32ZM200.844 63.32L202.65 57.5985V57.5985L200.844 63.32ZM196.254 59.75L190.816 62.2873L190.884 62.4323L190.959 62.5735L196.254 59.75ZM194.724 55.33L188.744 55.8283L188.768 56.1176L188.82 56.4033L194.724 55.33ZM194.724 43.6L188.805 42.6136L188.768 42.8341L188.748 43.0568L194.724 43.6ZM196.254 39.18L190.927 36.4181L190.907 36.4572L190.887 36.4967L196.254 39.18ZM222.434 39.18L217.028 41.7829L217.081 41.8944L217.139 42.0035L222.434 39.18ZM223.964 43.77L217.984 44.2683L218.008 44.5576L218.06 44.8433L223.964 43.77ZM223.964 55.5L218.045 54.5136L218.008 54.7341L217.988 54.9568L223.964 55.5ZM194.554 91.37H200.554C200.554 88.7948 200.611 87.0946 200.699 86.1332L194.724 85.59L188.748 85.0468C188.609 86.5788 188.554 88.7319 188.554 91.37H194.554ZM194.724 85.59L200.642 86.5764C200.754 85.9062 201.051 84.9088 201.691 83.5373L196.254 81L190.816 78.4627C189.87 80.4912 189.147 82.5537 188.805 84.6036L194.724 85.59ZM196.254 81L201.536 83.8446C201.362 84.1683 201.323 83.8214 202.656 83.3771C204.012 82.925 206.214 82.58 209.514 82.58V76.58V70.58C205.559 70.58 201.925 70.9716 198.861 71.9929C195.774 73.0219 192.732 74.885 190.971 78.1554L196.254 81ZM209.514 76.58V82.58C214.576 82.58 216.6 83.5417 217.188 84.0416L221.074 79.47L224.959 74.8984C221.014 71.5449 215.331 70.58 209.514 70.58V76.58ZM221.074 79.47L217.259 84.1016C217.468 84.2738 218.063 84.8416 218.137 86.9868L224.134 86.78L230.13 86.5732C229.977 82.1451 228.532 77.8395 224.888 74.8384L221.074 79.47ZM224.134 86.78L218.163 87.377C218.246 88.2084 218.304 89.614 218.304 91.71H224.304H230.304C230.304 89.4993 230.247 87.6183 230.104 86.183L224.134 86.78ZM224.304 91.71H218.304V151.21H224.304H230.304V91.71H224.304ZM224.304 151.21H218.304C218.304 153.722 218.189 155.31 218.045 156.174L223.964 157.16L229.882 158.146C230.191 156.29 230.304 153.911 230.304 151.21H224.304ZM223.964 157.16L217.988 156.617C217.976 156.754 217.851 157.422 217.139 158.756L222.434 161.58L227.728 164.404C228.829 162.338 229.725 160.06 229.939 157.703L223.964 157.16ZM222.434 161.58L217.067 158.897C217.28 158.47 217.424 158.776 216.137 159.21C214.823 159.654 212.648 160 209.344 160V166V172C213.293 172 216.925 171.61 219.976 170.58C223.052 169.541 226.113 167.637 227.8 164.263L222.434 161.58ZM209.344 166V160C206.123 160 203.996 159.645 202.701 159.19C201.459 158.755 201.458 158.412 201.58 158.648L196.254 161.41L190.927 164.172C192.636 167.468 195.61 169.42 198.731 170.514C201.799 171.59 205.424 172 209.344 172V166ZM196.254 161.41L201.691 158.873C201.021 157.438 200.729 156.478 200.627 155.917L194.724 156.99L188.82 158.063C189.172 159.995 189.899 161.982 190.816 163.947L196.254 161.41ZM194.724 156.99L200.699 156.447C200.612 155.49 200.554 153.738 200.554 151.04H194.554H188.554C188.554 153.782 188.608 155.997 188.748 157.533L194.724 156.99ZM194.554 151.04H200.554V91.37H194.554H188.554V151.04H194.554ZM222.434 59.92L217.067 57.2367C217.095 57.1801 217.129 57.1633 217.075 57.2043C217 57.2625 216.754 57.4258 216.207 57.5985L218.014 63.32L219.82 69.0415C223.076 68.0132 226.095 66.0138 227.8 62.6033L222.434 59.92ZM218.014 63.32L216.207 57.5985C214.882 58.0167 212.681 58.34 209.344 58.34V64.34V70.34C213.259 70.34 216.838 69.9832 219.82 69.0415L218.014 63.32ZM209.344 64.34V58.34C206.142 58.34 203.989 58.0211 202.65 57.5985L200.844 63.32L199.037 69.0415C202.005 69.9789 205.518 70.34 209.344 70.34V64.34ZM200.844 63.32L202.65 57.5985C201.717 57.3038 201.589 57.0049 201.548 56.9265L196.254 59.75L190.959 62.5735C192.731 65.8951 195.663 67.9762 199.037 69.0415L200.844 63.32ZM196.254 59.75L201.691 57.2127C201.021 55.7782 200.729 54.8182 200.627 54.2567L194.724 55.33L188.82 56.4033C189.172 58.3351 189.899 60.3217 190.816 62.2873L196.254 59.75ZM194.724 55.33L200.703 54.8317C200.611 53.725 200.554 51.9408 200.554 49.38H194.554H188.554C188.554 52.0325 188.61 54.215 188.744 55.8283L194.724 55.33ZM194.554 49.38H200.554C200.554 46.8047 200.611 45.1046 200.699 44.1432L194.724 43.6L188.748 43.0568C188.609 44.5888 188.554 46.7419 188.554 49.38H194.554ZM194.724 43.6L200.642 44.5864C200.747 43.9573 201.022 43.0599 201.62 41.8633L196.254 39.18L190.887 36.4967C189.899 38.4734 189.154 40.5227 188.805 42.6136L194.724 43.6ZM196.254 39.18L201.58 41.9419C201.445 42.2026 201.436 41.8524 202.721 41.4074C204.052 40.9468 206.229 40.59 209.514 40.59V34.59V28.59C205.545 28.59 201.885 28.9982 198.796 30.0676C195.662 31.1525 192.649 33.0974 190.927 36.4181L196.254 39.18ZM209.514 34.59V40.59C212.74 40.59 214.839 40.9468 216.09 41.3913C217.283 41.8151 217.187 42.115 217.028 41.7829L222.434 39.18L227.84 36.5771C226.206 33.185 223.221 31.1899 220.107 30.0837C217.051 28.9981 213.427 28.59 209.514 28.59V34.59ZM222.434 39.18L217.139 42.0035C217.809 43.2584 217.961 43.9839 217.984 44.2683L223.964 43.77L229.943 43.2717C229.74 40.8361 228.872 38.5016 227.728 36.3565L222.434 39.18ZM223.964 43.77L218.06 44.8433C218.186 45.5321 218.304 47.0097 218.304 49.55H224.304H230.304C230.304 46.877 230.195 44.5012 229.867 42.6967L223.964 43.77ZM224.304 49.55H218.304C218.304 52.0623 218.189 53.6503 218.045 54.5136L223.964 55.5L229.882 56.4864C230.191 54.6296 230.304 52.251 230.304 49.55H224.304ZM223.964 55.5L217.988 54.9568C217.976 55.0936 217.851 55.7615 217.139 57.0965L222.434 59.92L227.728 62.7435C228.829 60.6785 229.725 58.3997 229.939 56.0432L223.964 55.5ZM319.314 89.5L314.758 93.4047L314.785 93.4364L314.813 93.4678L319.314 89.5ZM330.364 156.99L324.445 156.004L324.408 156.224L324.388 156.447L330.364 156.99ZM329.004 161.24L334.33 164.002L334.35 163.963L334.37 163.923L329.004 161.24ZM301.804 159.54L307.555 157.83L307.512 157.685L307.462 157.543L301.804 159.54ZM296.704 110.07L292.461 114.313L292.506 114.358L292.552 114.402L296.704 110.07ZM275.114 110.24L270.958 105.912L270.914 105.954L270.871 105.997L275.114 110.24ZM270.694 156.99L264.775 156.004L264.738 156.224L264.718 156.447L270.694 156.99ZM269.164 161.24L263.954 158.263L263.849 158.447L263.758 158.637L269.164 161.24ZM242.984 161.24L237.546 163.777L237.599 163.891L237.657 164.002L242.984 161.24ZM241.454 156.82L235.474 157.318L235.498 157.608L235.55 157.893L241.454 156.82ZM241.454 85.08L235.535 84.0936L235.498 84.3141L235.478 84.5368L241.454 85.08ZM243.154 80.66L248.363 83.6368L248.376 83.6143L248.389 83.5916L243.154 80.66ZM268.994 80.32L274.165 77.2779L274.142 77.2389L274.119 77.2003L268.994 80.32ZM270.694 87.29H264.694V109.883L275.903 90.2668L270.694 87.29ZM273.754 83.89L277.836 88.2868V88.2868L273.754 83.89ZM278.344 80.32L281.488 85.43L281.598 85.3622L281.705 85.2897L278.344 80.32ZM291.094 76.41V82.41C300.647 82.41 308.399 85.9863 314.758 93.4047L319.314 89.5L323.869 85.5952C315.268 75.5604 304.207 70.41 291.094 70.41V76.41ZM319.314 89.5L314.813 93.4678C321.354 100.888 324.704 109.979 324.704 121.12H330.704H336.704C336.704 107.328 332.46 95.3391 323.814 85.5322L319.314 89.5ZM330.704 121.12H324.704V151.04H330.704H336.704V121.12H330.704ZM330.704 151.04H324.704C324.704 153.552 324.589 155.14 324.445 156.004L330.364 156.99L336.282 157.976C336.591 156.12 336.704 153.741 336.704 151.04H330.704ZM330.364 156.99L324.388 156.447C324.365 156.707 324.224 157.382 323.637 158.557L329.004 161.24L334.37 163.923C335.369 161.925 336.136 159.766 336.339 157.533L330.364 156.99ZM329.004 161.24L323.677 158.478C323.812 158.217 323.822 158.568 322.536 159.013C321.205 159.473 319.028 159.83 315.744 159.83V165.83V171.83C319.712 171.83 323.372 171.422 326.461 170.352C329.596 169.267 332.608 167.323 334.33 164.002L329.004 161.24ZM315.744 165.83V159.83C312.132 159.83 309.92 159.343 308.691 158.788C307.666 158.326 307.597 157.973 307.555 157.83L301.804 159.54L296.052 161.25C297.256 165.3 300.135 168.092 303.756 169.727C307.174 171.269 311.308 171.83 315.744 171.83V165.83ZM301.804 159.54L307.462 157.543C307.128 156.598 306.784 154.535 306.784 150.87H300.784H294.784C294.784 154.912 295.119 158.629 296.146 161.537L301.804 159.54ZM300.784 150.87H306.784V120.95H300.784H294.784V150.87H300.784ZM300.784 120.95H306.784C306.784 115.075 305.021 109.731 300.855 105.738L296.704 110.07L292.552 114.402C293.826 115.623 294.784 117.531 294.784 120.95H300.784ZM296.704 110.07L300.946 105.827C296.967 101.848 291.73 100.16 285.994 100.16V106.16V112.16C289.324 112.16 291.227 113.079 292.461 114.313L296.704 110.07ZM285.994 106.16V100.16C280.235 100.16 275.052 101.982 270.958 105.912L275.114 110.24L279.269 114.568C280.842 113.058 282.912 112.16 285.994 112.16V106.16ZM275.114 110.24L270.871 105.997C266.856 110.012 265.034 115.196 265.034 120.95H271.034H277.034C277.034 117.864 277.931 115.908 279.356 114.483L275.114 110.24ZM271.034 120.95H265.034V151.04H271.034H277.034V120.95H271.034ZM271.034 151.04H265.034C265.034 153.552 264.919 155.14 264.775 156.004L270.694 156.99L276.612 157.976C276.921 156.12 277.034 153.741 277.034 151.04H271.034ZM270.694 156.99L264.718 156.447C264.71 156.536 264.615 157.108 263.954 158.263L269.164 161.24L274.373 164.217C275.526 162.199 276.45 159.937 276.669 157.533L270.694 156.99ZM269.164 161.24L263.758 158.637C263.93 158.279 264.038 158.587 262.801 159.02C261.514 159.472 259.364 159.83 256.074 159.83V165.83V171.83C260.037 171.83 263.695 171.423 266.771 170.344C269.898 169.248 272.924 167.261 274.57 163.843L269.164 161.24ZM256.074 165.83V159.83C252.853 159.83 250.726 159.475 249.431 159.02C248.189 158.585 248.188 158.242 248.31 158.478L242.984 161.24L237.657 164.002C239.366 167.298 242.34 169.25 245.461 170.344C248.529 171.42 252.154 171.83 256.074 171.83V165.83ZM242.984 161.24L248.421 158.703C247.751 157.268 247.459 156.308 247.357 155.747L241.454 156.82L235.55 157.893C235.902 159.825 236.629 161.812 237.546 163.777L242.984 161.24ZM241.454 156.82L247.433 156.322C247.341 155.215 247.284 153.431 247.284 150.87H241.284H235.284C235.284 153.523 235.34 155.705 235.474 157.318L241.454 156.82ZM241.284 150.87H247.284V90.69H241.284H235.284V150.87H241.284ZM241.284 90.69H247.284C247.284 88.2376 247.341 86.5892 247.429 85.6232L241.454 85.08L235.478 84.5368C235.339 86.0641 235.284 88.1557 235.284 90.69H241.284ZM241.454 85.08L247.372 86.0664C247.451 85.5931 247.701 84.7961 248.363 83.6368L243.154 80.66L237.944 77.6832C236.793 79.6972 235.91 81.8468 235.535 84.0936L241.454 85.08ZM243.154 80.66L248.389 83.5916C248.187 83.9508 248.131 83.6136 249.469 83.1792C250.816 82.7419 252.994 82.41 256.244 82.41V76.41V70.41C252.354 70.41 248.78 70.7864 245.763 71.7657C242.738 72.748 239.706 74.5358 237.919 77.7284L243.154 80.66ZM256.244 76.41V82.41C259.396 82.41 261.526 82.7158 262.857 83.1238C264.208 83.5381 264.123 83.8587 263.868 83.4397L268.994 80.32L274.119 77.2003C272.277 74.1746 269.274 72.5403 266.375 71.6512C263.456 70.7559 260.005 70.41 256.244 70.41V76.41ZM268.994 80.32L263.822 83.3621C264.306 84.1857 264.694 85.4082 264.694 87.29H270.694H276.694C276.694 83.7318 275.947 80.3076 274.165 77.2779L268.994 80.32ZM270.694 87.29L275.903 90.2668C275.824 90.4057 275.872 90.2883 276.258 89.8588C276.61 89.4676 277.125 88.9475 277.836 88.2868L273.754 83.89L269.671 79.4932C268.081 80.9694 266.437 82.645 265.484 84.3132L270.694 87.29ZM273.754 83.89L277.836 88.2868C279.203 87.0177 280.421 86.0864 281.488 85.43L278.344 80.32L275.199 75.21C273.319 76.3669 271.478 77.8157 269.671 79.4932L273.754 83.89ZM278.344 80.32L281.705 85.2897C284.567 83.3536 287.647 82.41 291.094 82.41V76.41V70.41C285.247 70.41 279.826 72.073 274.982 75.3503L278.344 80.32ZM391.469 34.42L392.744 28.5569L391.496 28.2856L390.246 28.5461L391.469 34.42ZM395.379 35.27L397.221 29.5597L396.941 29.4694L396.654 29.4069L395.379 35.27ZM418.159 42.75L416.22 48.4281L416.241 48.4352L416.262 48.4421L418.159 42.75ZM423.429 57.88L418.114 55.0959L418.099 55.1261L418.083 55.1564L423.429 57.88ZM407.789 65.7L405.384 71.1969L405.706 71.3377L406.042 71.44L407.789 65.7ZM391.469 58.56L393.874 53.063L391.49 52.0198L389.099 53.0482L391.469 58.56ZM375.659 65.36L373.289 59.8482L373.13 59.9163L372.976 59.9934L375.659 65.36ZM359.339 57.88L353.892 60.3943L353.901 60.4146L353.91 60.4348L359.339 57.88ZM363.759 43.09L361.874 37.3938L361.846 37.4033L361.817 37.413L363.759 43.09ZM387.389 35.27L386.166 29.3961L385.83 29.466L385.504 29.5738L387.389 35.27ZM428.869 126.05L433.039 130.364L433.042 130.362L428.869 126.05ZM377.189 130.98V124.98H371.189V130.98H377.189ZM382.799 138.97L385.793 133.77V133.77L382.799 138.97ZM409.489 140.16L407.439 134.521V134.521L409.489 140.16ZM411.359 139.48L413.41 145.119L413.638 145.036L413.859 144.934L411.359 139.48ZM427.509 145.26L432.915 142.657L432.884 142.593L432.852 142.529L427.509 145.26ZM371.069 163.96L368.579 169.419L368.637 169.445L368.694 169.47L371.069 163.96ZM355.939 152.4L360.712 148.764L360.694 148.74L360.675 148.716L355.939 152.4ZM358.999 87.46L363.076 91.8626L363.078 91.8606L358.999 87.46ZM428.359 91.2L433.381 87.9165L433.37 87.9L433.359 87.8836L428.359 91.2ZM401.669 103.78L397.855 108.412L397.92 108.465L397.986 108.516L401.669 103.78ZM382.289 105.99L386.073 110.647L386.116 110.612L386.159 110.576L382.289 105.99ZM376.849 115.51H370.849V121.51H376.849V115.51ZM391.469 34.42L390.195 40.2831L394.105 41.133L395.379 35.27L396.654 29.4069L392.744 28.5569L391.469 34.42ZM395.379 35.27L393.537 40.9802C404.075 44.3794 411.626 46.8593 416.22 48.4281L418.159 42.75L420.098 37.0719C415.399 35.4674 407.764 32.9606 397.221 29.5597L395.379 35.27ZM418.159 42.75L416.262 48.4421C417.979 49.0144 418.693 49.6167 418.959 49.9272C419.135 50.1328 419.299 50.3982 419.299 51.08H425.299H431.299C431.299 47.7951 430.274 44.6888 428.07 42.1177C425.956 39.6517 423.1 38.0723 420.057 37.0579L418.159 42.75ZM425.299 51.08H419.299C419.299 52.0526 419.02 53.3663 418.114 55.0959L423.429 57.88L428.744 60.664C430.332 57.6337 431.299 54.4141 431.299 51.08H425.299ZM423.429 57.88L418.083 55.1564C415.207 60.8029 413.322 60.89 413.229 60.89V66.89V72.89C420.617 72.89 425.532 66.9704 428.776 60.6035L423.429 57.88ZM413.229 66.89V60.89C413.366 60.89 413.155 60.8992 412.387 60.7311C411.69 60.5788 410.75 60.3294 409.536 59.96L407.789 65.7L406.042 71.44C408.573 72.2104 411.195 72.89 413.229 72.89V66.89ZM407.789 65.7L410.194 60.203L393.874 53.063L391.469 58.56L389.064 64.0569L405.384 71.1969L407.789 65.7ZM391.469 58.56L389.099 53.0482L373.289 59.8482L375.659 65.36L378.03 70.8718L393.84 64.0718L391.469 58.56ZM375.659 65.36L372.976 59.9934C372.421 60.2709 371.465 60.55 369.879 60.55V66.55V72.55C372.827 72.55 375.724 72.0358 378.343 70.7266L375.659 65.36ZM369.879 66.55V60.55C368.946 60.55 367.041 60.155 364.768 55.3252L359.339 57.88L353.91 60.4348C357.078 67.165 362.2 72.55 369.879 72.55V66.55ZM359.339 57.88L364.787 55.3656C363.548 52.6805 363.299 51.2487 363.299 50.74H357.299H351.299C351.299 53.8579 352.411 57.1861 353.892 60.3943L359.339 57.88ZM357.299 50.74H363.299C363.299 50.4331 363.344 50.2689 363.369 50.197C363.391 50.132 363.424 50.0672 363.498 49.9786C363.664 49.7827 364.216 49.2751 365.701 48.767L363.759 43.09L361.817 37.413C358.996 38.3782 356.318 39.8823 354.33 42.2364C352.258 44.6908 351.299 47.6416 351.299 50.74H357.299ZM363.759 43.09L365.644 48.7862L389.274 40.9662L387.389 35.27L385.504 29.5738L361.874 37.3938L363.759 43.09ZM387.389 35.27L388.613 41.1439L392.693 40.2939L391.469 34.42L390.246 28.5461L386.166 29.3961L387.389 35.27ZM434.139 110.58H428.139C428.139 116.552 426.628 119.869 424.697 121.738L428.869 126.05L433.042 130.362C438.137 125.431 440.139 118.435 440.139 110.58H434.139ZM428.869 126.05L424.699 121.736C422.263 124.091 419.913 124.98 417.479 124.98V130.98V136.98C423.432 136.98 428.676 134.582 433.039 130.364L428.869 126.05ZM417.479 130.98V124.98H377.189V130.98V136.98H417.479V130.98ZM377.189 130.98H371.189C371.189 137.049 374.963 141.381 379.806 144.17L382.799 138.97L385.793 133.77C383.156 132.252 383.189 131.257 383.189 130.98H377.189ZM382.799 138.97L379.806 144.17C384.314 146.766 389.076 148.2 394.019 148.2V142.2V136.2C391.483 136.2 388.764 135.481 385.793 133.77L382.799 138.97ZM394.019 142.2V148.2C400.897 148.2 406.853 147.503 411.54 145.799L409.489 140.16L407.439 134.521C404.646 135.537 400.288 136.2 394.019 136.2V142.2ZM409.489 140.16L411.54 145.799L413.41 145.119L411.359 139.48L409.309 133.841L407.439 134.521L409.489 140.16ZM411.359 139.48L413.859 144.934C416.242 143.842 417.593 143.61 418.159 143.61V137.61V131.61C415.099 131.61 411.917 132.624 408.859 134.026L411.359 139.48ZM418.159 137.61V143.61C418.398 143.61 419.94 143.633 422.167 147.991L427.509 145.26L432.852 142.529C429.866 136.687 425.174 131.61 418.159 131.61V137.61ZM427.509 145.26L422.103 147.863C423.388 150.53 423.719 152.2 423.719 153.08H429.719H435.719C435.719 149.653 434.578 146.11 432.915 142.657L427.509 145.26ZM429.719 153.08H423.719C423.719 154.304 423.389 155.177 422.766 155.958C422.069 156.832 420.754 157.888 418.354 158.891C413.433 160.948 405.342 162.21 393.509 162.21V168.21V174.21C405.816 174.21 415.831 172.951 422.98 169.964C426.615 168.445 429.826 166.35 432.147 163.441C434.541 160.439 435.719 156.899 435.719 153.08H429.719ZM393.509 168.21V162.21C385.801 162.21 379.15 160.909 373.444 158.45L371.069 163.96L368.694 169.47C376.135 172.677 384.444 174.21 393.509 174.21V168.21ZM371.069 163.96L373.559 158.501C367.831 155.888 363.637 152.603 360.712 148.764L355.939 152.4L351.167 156.036C355.495 161.717 361.387 166.138 368.579 169.419L371.069 163.96ZM355.939 152.4L360.675 148.716C354.331 140.56 351.229 131.592 351.229 121.63H345.229H339.229C339.229 134.335 343.267 145.88 351.203 156.084L355.939 152.4ZM345.229 121.63H351.229C351.229 108.761 355.301 99.0616 363.076 91.8626L358.999 87.46L354.923 83.0574C344.338 92.8584 339.229 105.939 339.229 121.63H345.229ZM358.999 87.46L363.078 91.8606C371.156 84.3731 381.215 80.54 393.679 80.54V74.54V68.54C378.49 68.54 365.429 73.3202 354.921 83.0594L358.999 87.46ZM393.679 74.54V80.54C407.844 80.54 417.319 85.41 423.359 94.5164L428.359 91.2L433.359 87.8836C424.666 74.7766 411.021 68.54 393.679 68.54V74.54ZM428.359 91.2L423.337 94.4835C426.554 99.4028 428.139 104.722 428.139 110.58H434.139H440.139C440.139 102.384 437.871 94.7838 433.381 87.9165L428.359 91.2ZM398.269 115.51V121.51C401.12 121.51 404.376 120.931 406.979 118.739C409.78 116.381 410.729 113.104 410.729 110.07H404.729H398.729C398.729 110.396 398.68 110.411 398.747 110.242C398.781 110.154 398.841 110.035 398.934 109.903C399.029 109.771 399.137 109.655 399.25 109.561C399.479 109.367 399.613 109.354 399.474 109.393C399.319 109.437 398.944 109.51 398.269 109.51V115.51ZM404.729 110.07H410.729C410.729 105.631 408.869 101.779 405.353 99.0439L401.669 103.78L397.986 108.516C398.549 108.955 398.729 109.296 398.729 110.07H404.729ZM401.669 103.78L405.484 99.1484C402.061 96.3298 397.634 95.4 393.169 95.4V101.4V107.4C396.185 107.4 397.424 108.057 397.855 108.412L401.669 103.78ZM393.169 101.4V95.4C387.739 95.4 382.79 97.7168 378.42 101.404L382.289 105.99L386.159 110.576C389.042 108.143 391.347 107.4 393.169 107.4V101.4ZM382.289 105.99L378.506 101.333C374.032 104.968 370.849 109.692 370.849 115.51H376.849H382.849C382.849 114.528 383.293 112.905 386.073 110.647L382.289 105.99ZM376.849 115.51V121.51H398.269V115.51V109.51H376.849V115.51ZM568.809 158.52L571.616 153.217L568.761 151.706L565.928 153.257L568.809 158.52ZM512.029 95.96L515.85 100.586L519.376 97.6725L517.501 93.5004L512.029 95.96ZM515.429 43.43L519.177 48.1152V48.1152L515.429 43.43ZM568.809 43.43L564.739 47.8388V47.8388L568.809 43.43ZM567.959 87.12L563.754 82.84L563.735 82.8586L563.716 82.8774L567.959 87.12ZM547.899 102.93L544.555 97.9478L539.283 101.486L543.113 106.55L547.899 102.93ZM569.659 125.37L565.961 130.095L571.115 134.129L574.687 128.644L569.659 125.37ZM576.289 110.41L582.117 111.835L582.128 111.787L582.139 111.74L576.289 110.41ZM600.259 104.46L597.451 109.763L597.513 109.795L597.575 109.827L600.259 104.46ZM603.659 107.69L597.775 108.867L597.848 109.233L597.966 109.587L603.659 107.69ZM603.999 111.77L598.012 111.371L598.009 111.413L598.007 111.455L603.999 111.77ZM593.458 137.44L588.712 133.77L582.792 141.425L592.282 143.323L593.458 137.44ZM608.419 163.45L612.405 167.934L608.419 163.45ZM534.979 80.32L529.366 82.4404L531.977 89.3537L538.207 85.3775L534.979 80.32ZM546.879 71.82L543.037 67.2107L542.989 67.251L542.941 67.2924L546.879 71.82ZM545.009 141.52L546.185 147.403L557.937 145.053L549.014 137.053L545.009 141.52ZM526.309 120.44L531.173 116.927L526.532 110.502L521.608 116.712L526.309 120.44ZM598.049 166.17V160.17C589.267 160.17 580.477 157.909 571.616 153.217L568.809 158.52L566.001 163.823C576.406 169.331 587.11 172.17 598.049 172.17V166.17ZM568.809 158.52L565.928 153.257C555.939 158.724 546.042 161.36 536.169 161.36V167.36V173.36C548.282 173.36 560.144 170.103 571.689 163.783L568.809 158.52ZM536.169 167.36V161.36C522.29 161.36 512.998 158.448 507.24 153.654C501.694 149.035 498.479 141.864 498.479 130.98H492.479H486.479C486.479 144.35 490.545 155.368 499.562 162.876C508.368 170.209 520.921 173.36 536.169 173.36V167.36ZM492.479 130.98H498.479C498.479 120.755 503.692 110.629 515.85 100.586L512.029 95.96L508.207 91.3342C494.298 102.824 486.479 116.045 486.479 130.98H492.479ZM512.029 95.96L517.501 93.5004C513.199 83.9277 511.229 75.6576 511.229 68.59H505.229H499.229C499.229 77.8424 501.791 87.8189 506.556 98.4196L512.029 95.96ZM505.229 68.59H511.229C511.229 58.4852 514.207 52.091 519.177 48.1152L515.429 43.43L511.68 38.7448C503.05 45.649 499.229 56.0281 499.229 68.59H505.229ZM515.429 43.43L519.177 48.1152C524.619 43.7613 532.283 41.27 542.799 41.27V35.27V29.27C530.42 29.27 519.838 32.2187 511.68 38.7448L515.429 43.43ZM542.799 35.27V41.27C553.378 41.27 560.349 43.7867 564.739 47.8388L568.809 43.43L572.878 39.0212C565.481 32.1933 555.112 29.27 542.799 29.27V35.27ZM568.809 43.43L564.739 47.8388C569.187 51.945 571.649 57.6518 571.649 65.7H577.648H583.648C583.648 54.9348 580.217 45.795 572.878 39.0212L568.809 43.43ZM577.648 65.7H571.649C571.649 71.7912 569.242 77.4474 563.754 82.84L567.959 87.12L572.163 91.4C579.595 84.0992 583.648 75.4754 583.648 65.7H577.648ZM567.959 87.12L563.716 82.8774C559.336 87.2569 552.999 92.2818 544.555 97.9478L547.899 102.93L551.242 107.912C560.025 102.018 567.061 96.5031 572.201 91.3626L567.959 87.12ZM547.899 102.93L543.113 106.55C550.077 115.756 557.688 123.621 565.961 130.095L569.659 125.37L573.356 120.645C565.989 114.879 559.093 107.784 552.684 99.3104L547.899 102.93ZM569.659 125.37L574.687 128.644C578.189 123.264 580.693 117.659 582.117 111.835L576.289 110.41L570.46 108.985C569.39 113.361 567.474 117.729 564.631 122.096L569.659 125.37ZM576.289 110.41L582.139 111.74C582.256 111.227 582.476 110.739 583.599 110.19C584.981 109.514 587.482 108.93 591.589 108.93V102.93V96.93C586.628 96.93 582.046 97.5923 578.328 99.4097C574.351 101.354 571.454 104.606 570.438 109.08L576.289 110.41ZM591.589 102.93V108.93C595.108 108.93 596.821 109.429 597.451 109.763L600.259 104.46L603.066 99.1573C599.843 97.451 595.776 96.93 591.589 96.93V102.93ZM600.259 104.46L597.575 109.827C597.911 109.994 598.15 110.135 598.311 110.242C598.474 110.35 598.526 110.401 598.506 110.382C598.486 110.363 597.977 109.874 597.775 108.867L603.659 107.69L609.542 106.513C608.721 102.408 605.174 100.209 602.942 99.0934L600.259 104.46ZM603.659 107.69L597.966 109.587C597.951 109.542 597.992 109.648 598.019 109.973C598.046 110.292 598.053 110.75 598.012 111.371L603.999 111.77L609.985 112.169C610.124 110.094 610.039 107.857 609.351 105.793L603.659 107.69ZM603.999 111.77L598.007 111.455C597.632 118.579 594.724 125.996 588.712 133.77L593.458 137.44L598.205 141.11C605.34 131.884 609.458 122.188 609.99 112.085L603.999 111.77ZM593.458 137.44L592.282 143.323C594.303 143.728 596.288 143.95 598.219 143.95V137.95V131.95C597.202 131.95 596.014 131.832 594.635 131.557L593.458 137.44ZM598.219 137.95V143.95C601.694 143.95 603.203 144.823 603.894 145.523C604.599 146.237 605.479 147.809 605.479 151.38H611.479H617.479C617.479 145.998 616.148 140.855 612.433 137.092C608.704 133.315 603.583 131.95 598.219 131.95V137.95ZM611.479 151.38H605.479C605.479 154.221 605.241 156.244 604.898 157.598C604.539 159.012 604.2 159.172 604.432 158.966L608.419 163.45L612.405 167.934C614.677 165.914 615.868 163.156 616.53 160.547C617.206 157.877 617.479 154.772 617.479 151.38H611.479ZM608.419 163.45L604.432 158.966C604.077 159.282 602.493 160.17 598.049 160.17V166.17V172.17C603.351 172.17 608.68 171.245 612.405 167.934L608.419 163.45ZM532.089 66.55H526.089C526.089 71.5526 527.264 76.877 529.366 82.4404L534.979 80.32L540.591 78.1996C538.84 73.563 538.089 69.7074 538.089 66.55H532.089ZM534.979 80.32L538.207 85.3775C543.614 81.9258 547.874 78.9055 550.816 76.3476L546.879 71.82L542.941 67.2924C540.67 69.2678 536.996 71.9142 531.75 75.2625L534.979 80.32ZM546.879 71.82L550.72 76.4293C553.846 73.824 556.959 70.1367 556.959 65.36H550.959H544.959C544.959 64.9944 545.09 64.9458 544.866 65.301C544.622 65.686 544.089 66.3343 543.037 67.2107L546.879 71.82ZM550.959 65.36H556.959C556.959 61.7649 555.928 58.0184 552.885 55.2857C549.964 52.6633 546.18 51.88 542.629 51.88V57.88V63.88C544.63 63.88 545.011 64.3433 544.867 64.2143C544.789 64.1436 544.78 64.0872 544.813 64.1755C544.859 64.2987 544.959 64.6549 544.959 65.36H550.959ZM542.629 57.88V51.88C538.444 51.88 534.191 52.7166 530.912 55.4138C527.409 58.2955 526.089 62.3926 526.089 66.55H532.089H538.089C538.089 64.9274 538.525 64.6895 538.535 64.6812C538.77 64.4884 539.786 63.88 542.629 63.88V57.88ZM537.359 142.2V148.2C540.502 148.2 543.456 147.949 546.185 147.403L545.009 141.52L543.832 135.637C542.028 135.997 539.882 136.2 537.359 136.2V142.2ZM545.009 141.52L549.014 137.053C542.801 131.482 536.849 124.787 531.173 116.927L526.309 120.44L521.444 123.953C527.555 132.413 534.069 139.771 541.003 145.987L545.009 141.52ZM526.309 120.44L521.608 116.712C518.329 120.846 516.399 125.524 516.399 130.64H522.399H528.399C528.399 128.73 529.075 126.608 531.009 124.168L526.309 120.44ZM522.399 130.64H516.399C516.399 135.891 518.177 140.74 522.47 144.058C526.47 147.148 531.766 148.2 537.359 148.2V142.2V136.2C532.978 136.2 530.794 135.325 529.807 134.562C529.114 134.026 528.399 133.095 528.399 130.64H522.399ZM749.854 133.36L753.183 138.352L753.276 138.29L753.367 138.224L749.854 133.36ZM752.915 131.15L749.872 125.978L749.63 126.121L749.402 126.286L752.915 131.15ZM772.465 137.27L777.544 134.077L777.528 134.051L777.512 134.025L772.465 137.27ZM773.825 152.74L769.582 148.497L769.503 148.576L769.428 148.657L773.825 152.74ZM768.555 156.99L765.426 151.87L768.555 156.99ZM762.604 160.56L759.562 155.388L759.493 155.429L759.424 155.472L762.604 160.56ZM751.215 164.98L753.011 170.705V170.705L751.215 164.98ZM718.065 165.66L716.496 171.451L716.566 171.47L716.637 171.488L718.065 165.66ZM701.065 158.52L698.022 163.692L698.082 163.727L698.142 163.76L701.065 158.52ZM685.424 146.28L681.082 150.42L681.106 150.446L681.131 150.471L685.424 146.28ZM673.865 127.75L668.271 129.921L668.291 129.971L668.311 130.022L673.865 127.75ZM673.865 79.13L679.411 81.4189L679.417 81.4036L679.423 81.3883L673.865 79.13ZM685.085 61.28L680.791 57.0888L680.79 57.09L685.085 61.28ZM700.895 49.38L703.739 54.6628L703.765 54.649L703.79 54.635L700.895 49.38ZM750.535 42.75L748.745 48.4769L748.815 48.4989L748.886 48.5191L750.535 42.75ZM763.115 47.68L760.028 52.825L760.059 52.844L760.091 52.8627L763.115 47.68ZM767.195 50.06L770.323 44.9403L770.271 44.9083L770.218 44.8773L767.195 50.06ZM771.955 53.12L775.725 48.4523L775.564 48.3228L775.395 48.2046L771.955 53.12ZM772.805 70.63L767.945 67.1109L767.94 67.1171L772.805 70.63ZM752.234 76.07L748.459 80.7335L748.675 80.9082L748.906 81.0623L752.234 76.07ZM711.435 77.94L707.947 73.0576L707.917 73.0794L707.886 73.1016L711.435 77.94ZM702.935 119.25L708.301 116.567L702.935 119.25ZM711.604 129.96L708.029 134.779L708.062 134.803L708.094 134.826L711.604 129.96ZM743.055 136.08L741.406 130.311L741.378 130.319L741.35 130.327L743.055 136.08ZM749.854 133.36L753.367 138.224L756.427 136.014L752.915 131.15L749.402 126.286L746.342 128.496L749.854 133.36ZM752.915 131.15L755.957 136.322C757.755 135.264 759.139 134.561 760.152 134.138C761.3 133.66 761.489 133.75 761.075 133.75V127.75V121.75C759.074 121.75 757.109 122.406 755.537 123.062C753.83 123.773 751.928 124.769 749.872 125.978L752.915 131.15ZM761.075 127.75V133.75C760.946 133.75 761.455 133.686 762.709 134.734C763.965 135.783 765.553 137.614 767.417 140.515L772.465 137.27L777.512 134.025C775.296 130.58 772.946 127.65 770.405 125.526C767.862 123.401 764.716 121.75 761.075 121.75V127.75ZM772.465 137.27L767.385 140.463C769.759 144.24 770.205 146.192 770.205 146.79H776.205H782.205C782.205 142.628 780.157 138.233 777.544 134.077L772.465 137.27ZM776.205 146.79H770.205C770.205 147.686 769.97 148.109 769.582 148.497L773.825 152.74L778.067 156.983C780.853 154.197 782.205 150.654 782.205 146.79H776.205ZM773.825 152.74L769.428 148.657C768.364 149.803 767.046 150.88 765.426 151.87L768.555 156.99L771.683 162.11C774.143 160.606 776.338 158.851 778.221 156.823L773.825 152.74ZM768.555 156.99L765.426 151.87C763.413 153.101 761.458 154.273 759.562 155.388L762.604 160.56L765.647 165.732C767.604 164.58 769.616 163.373 771.683 162.11L768.555 156.99ZM762.604 160.56L759.424 155.472C758.362 156.136 755.294 157.412 749.418 159.255L751.215 164.98L753.011 170.705C758.695 168.922 763.221 167.25 765.785 165.648L762.604 160.56ZM751.215 164.98L749.418 159.255C744.154 160.907 739.151 161.7 734.385 161.7V167.7V173.7C740.499 173.7 746.715 172.68 753.011 170.705L751.215 164.98ZM734.385 167.7V161.7C729.573 161.7 724.612 161.086 719.492 159.832L718.065 165.66L716.637 171.488C722.624 172.954 728.543 173.7 734.385 173.7V167.7ZM718.065 165.66L719.633 159.869C714.747 158.545 709.534 156.373 703.987 153.28L701.065 158.52L698.142 163.76C704.382 167.24 710.502 169.828 716.496 171.451L718.065 165.66ZM701.065 158.52L704.107 153.348C698.782 150.216 693.99 146.465 689.718 142.089L685.424 146.28L681.131 150.471C686.153 155.615 691.787 160.024 698.022 163.692L701.065 158.52ZM685.424 146.28L689.767 142.14C685.729 137.905 682.25 132.401 679.418 125.478L673.865 127.75L668.311 130.022C671.599 138.059 675.827 144.909 681.082 150.42L685.424 146.28ZM673.865 127.75L679.458 125.579C676.802 118.735 675.445 111.261 675.445 103.1H669.445H663.445C663.445 112.619 665.034 121.578 668.271 129.921L673.865 127.75ZM669.445 103.1H675.445C675.445 94.9327 676.804 87.7357 679.411 81.4189L673.865 79.13L668.318 76.8411C665.032 84.8043 663.445 93.5873 663.445 103.1H669.445ZM673.865 79.13L679.423 81.3883C682.136 74.7099 685.488 69.4588 689.379 65.4699L685.085 61.28L680.79 57.09C675.615 62.3945 671.486 69.0434 668.306 76.8717L673.865 79.13ZM685.085 61.28L689.378 65.4712C693.597 61.1491 698.378 57.5496 703.739 54.6628L700.895 49.38L698.05 44.0972C691.625 47.557 685.865 51.8908 680.791 57.0888L685.085 61.28ZM700.895 49.38L703.79 54.635C714.127 48.9391 724.303 46.2 734.385 46.2V40.2V34.2C722.026 34.2 709.875 37.5809 697.999 44.125L700.895 49.38ZM734.385 40.2V46.2C739.063 46.2 743.844 46.9452 748.745 48.4769L750.535 42.75L752.324 37.0231C746.345 35.1548 740.359 34.2 734.385 34.2V40.2ZM750.535 42.75L748.886 48.5191C754.251 50.0519 757.859 51.5237 760.028 52.825L763.115 47.68L766.201 42.535C762.704 40.4363 757.925 38.6215 752.183 36.9809L750.535 42.75ZM763.115 47.68L760.091 52.8627L764.171 55.2427L767.195 50.06L770.218 44.8773L766.138 42.4973L763.115 47.68ZM767.195 50.06L764.066 55.1797C766.064 56.4008 767.529 57.3464 768.514 58.0354L771.955 53.12L775.395 48.2046C774.113 47.3069 772.405 46.2126 770.323 44.9403L767.195 50.06ZM771.955 53.12L768.185 57.7876C770.089 59.326 770.375 60.4586 770.375 61.28H776.375H782.375C782.375 55.9814 779.713 51.6739 775.725 48.4523L771.955 53.12ZM776.375 61.28H770.375C770.375 62.5653 769.857 64.4705 767.945 67.1109L772.805 70.63L777.664 74.1491C780.512 70.2162 782.375 65.888 782.375 61.28H776.375ZM772.805 70.63L767.94 67.1171C765.916 69.9206 764.207 71.7172 762.85 72.7643C762.187 73.2757 761.687 73.5462 761.353 73.683C761.19 73.7496 761.075 73.781 761.005 73.7957C760.937 73.8102 760.905 73.81 760.905 73.81V79.81V85.81C764.448 85.81 767.581 84.2702 770.179 82.2657C772.789 80.2528 775.273 77.4594 777.669 74.1429L772.805 70.63ZM760.905 79.81V73.81C761.023 73.81 760.644 73.823 759.584 73.3657C758.578 72.932 757.248 72.2012 755.563 71.0777L752.234 76.07L748.906 81.0623C750.961 82.4322 752.946 83.5713 754.83 84.3843C756.66 85.1736 758.746 85.81 760.905 85.81V79.81ZM752.234 76.07L756.01 71.4065C749.901 66.4611 742.091 64.29 733.195 64.29V70.29V76.29C740.165 76.29 745.048 77.9723 748.459 80.7335L752.234 76.07ZM733.195 70.29V64.29C724.353 64.29 715.905 67.3731 707.947 73.0576L711.435 77.94L714.922 82.8224C721.244 78.3069 727.303 76.29 733.195 76.29V70.29ZM711.435 77.94L707.886 73.1016C703.577 76.2617 700.176 80.5815 697.568 85.7967L702.935 88.48L708.301 91.1633C710.227 87.3118 712.492 84.605 714.983 82.7784L711.435 77.94ZM702.935 88.48L697.568 85.7967C694.83 91.2733 693.535 97.37 693.535 103.95H699.535H705.535C705.535 98.97 706.506 94.7534 708.301 91.1633L702.935 88.48ZM699.535 103.95H693.535C693.535 110.437 694.838 116.473 697.568 121.933L702.935 119.25L708.301 116.567C706.498 112.961 705.535 108.796 705.535 103.95H699.535ZM702.935 119.25L697.568 121.933C700.189 127.175 703.648 131.528 708.029 134.779L711.604 129.96L715.18 125.141C712.534 123.179 710.213 120.391 708.301 116.567L702.935 119.25ZM711.604 129.96L708.094 134.826C715.881 140.443 724.283 143.44 733.195 143.44V137.44V131.44C727.146 131.44 721.154 129.45 715.115 125.094L711.604 129.96ZM733.195 137.44V143.44C737.227 143.44 741.093 142.919 744.759 141.833L743.055 136.08L741.35 130.327C738.896 131.054 736.188 131.44 733.195 131.44V137.44ZM743.055 136.08L744.703 141.849C747.994 140.909 751.012 139.8 753.183 138.352L749.854 133.36L746.526 128.368C745.977 128.734 744.462 129.438 741.406 130.311L743.055 136.08ZM892.945 58.05L897.149 53.7682V53.7682L892.945 58.05ZM893.795 149.17L898.174 153.272L898.183 153.263L898.192 153.253L893.795 149.17ZM806.245 149.34L801.925 153.503L801.935 153.513L801.945 153.524L806.245 149.34ZM793.325 78.45L798.864 80.7577L798.87 80.7442L798.875 80.7307L793.325 78.45ZM806.925 57.71L811.125 61.9953V61.9953L806.925 57.71ZM826.475 44.62L824.102 39.1095V39.1095L826.475 44.62ZM828.005 128.6L823.8 132.88L823.838 132.917L823.877 132.954L828.005 128.6ZM871.695 128.77L875.822 133.126V133.126L871.695 128.77ZM871.525 79.3L867.359 83.6177L867.378 83.6358L867.397 83.6537L871.525 79.3ZM828.005 79.47L832.172 83.7877L832.191 83.769L832.21 83.75L828.005 79.47ZM849.255 39.86V45.86C864.401 45.86 877.471 51.267 888.742 62.3317L892.945 58.05L897.149 53.7682C883.713 40.5796 867.656 33.86 849.255 33.86V39.86ZM892.945 58.05L888.742 62.3317C899.895 73.2795 905.475 86.7867 905.475 103.27H911.475H917.475C917.475 83.7133 910.703 67.0739 897.149 53.7682L892.945 58.05ZM911.475 103.27H905.475C905.475 119.719 900.117 133.544 889.399 145.087L893.795 149.17L898.192 153.253C911.047 139.409 917.475 122.635 917.475 103.27H911.475ZM893.795 149.17L889.417 145.068C878.764 156.438 865.842 162.04 850.275 162.04V168.04V174.04C869.162 174.04 885.254 167.062 898.174 153.272L893.795 149.17ZM850.275 168.04V162.04C834.686 162.04 821.556 156.474 810.546 145.156L806.245 149.34L801.945 153.524C815.189 167.139 831.411 174.04 850.275 174.04V168.04ZM806.245 149.34L810.566 145.177C799.624 133.822 794.225 120.465 794.225 104.8H788.225H782.225C782.225 123.588 788.84 139.925 801.925 153.503L806.245 149.34ZM788.225 104.8H794.225C794.225 96.134 795.788 88.1404 798.864 80.7577L793.325 78.45L787.787 76.1423C784.063 85.0796 782.225 94.6526 782.225 104.8H788.225ZM793.325 78.45L798.875 80.7307C802.005 73.1144 806.109 66.9106 811.125 61.9953L806.925 57.71L802.726 53.4247C796.408 59.616 791.446 67.2389 787.776 76.1693L793.325 78.45ZM806.925 57.71L811.125 61.9953C816.258 56.9651 822.154 53.0146 828.849 50.1305L826.475 44.62L824.102 39.1095C816.064 42.572 808.926 47.3482 802.726 53.4247L806.925 57.71ZM826.475 44.62L828.849 50.1305C835.486 47.2716 842.273 45.86 849.255 45.86V39.86V33.86C840.598 33.86 832.198 35.6217 824.102 39.1095L826.475 44.62ZM818.315 103.95H812.315C812.315 115.445 816.056 125.272 823.8 132.88L828.005 128.6L832.21 124.32C827.035 119.235 824.315 112.628 824.315 103.95H818.315ZM828.005 128.6L823.877 132.954C831.413 140.1 840.155 143.95 849.935 143.95V137.95V131.95C843.622 131.95 837.744 129.566 832.134 124.246L828.005 128.6ZM849.935 137.95V143.95C859.685 143.95 868.376 140.18 875.822 133.126L871.695 128.77L867.569 124.414C862.095 129.6 856.279 131.95 849.935 131.95V137.95ZM871.695 128.77L875.822 133.126C883.671 125.69 887.385 115.795 887.385 104.12H881.385H875.385C875.385 113.072 872.64 119.61 867.569 124.414L871.695 128.77ZM881.385 104.12H887.385C887.385 92.4102 883.592 82.4739 875.654 74.9463L871.525 79.3L867.397 83.6537C872.605 88.5928 875.385 95.2031 875.385 104.12H881.385ZM871.525 79.3L875.692 74.9823C868.254 67.8055 859.551 63.95 849.765 63.95V69.95V75.95C856.073 75.95 861.877 78.3278 867.359 83.6177L871.525 79.3ZM849.765 69.95V63.95C839.943 63.95 831.229 67.8915 823.8 75.19L828.005 79.47L832.21 83.75C837.702 78.3552 843.494 75.95 849.765 75.95V69.95ZM828.005 79.47L823.839 75.1523C816.057 82.6612 812.315 92.4559 812.315 103.95H818.315H824.315C824.315 95.2707 827.034 88.7455 832.172 83.7877L828.005 79.47Z" fill="#E4C594" mask="url(#path-1-outside-1_187_517)"/>
</svg>
