<svg width="226" height="167" viewBox="0 0 226 167" fill="none" xmlns="http://www.w3.org/2000/svg">
<g filter="url(#filter0_d_3_3)">
<rect x="21.3229" y="21.3229" width="182.562" height="124.354" rx="14.5521" fill="white" stroke="#D9D9D9" stroke-width="2.64583"/>
<path fill-rule="evenodd" clip-rule="evenodd" d="M76.2253 106.033H65.0053L56.5916 73.9346C56.1923 72.4581 55.3444 71.1528 54.0971 70.5375C50.9844 68.9915 47.5543 67.761 43.8125 67.1404V65.9046H61.8871C64.3816 65.9046 66.2526 67.761 66.5644 69.917L70.9299 93.0707L82.1444 65.9046H93.0526L76.2253 106.033ZM99.289 106.033H88.6926L97.4181 65.9046H108.015L99.289 106.033ZM121.724 77.0215C122.035 74.8602 123.906 73.6244 126.089 73.6244C129.519 73.3141 133.255 73.9347 136.374 75.4754L138.245 66.8355C135.126 65.5997 131.696 64.9792 128.584 64.9792C118.299 64.9792 110.815 70.5376 110.815 78.2519C110.815 84.1206 116.116 87.2021 119.858 89.0584C123.906 90.9095 125.465 92.1453 125.154 93.9963C125.154 96.7728 122.035 98.0086 118.923 98.0086C115.181 98.0086 111.439 97.0831 108.015 95.537L106.144 104.182C109.885 105.723 113.934 106.344 117.675 106.344C129.207 106.648 136.374 101.095 136.374 92.7605C136.374 82.2642 121.724 81.649 121.724 77.0215V77.0215ZM173.458 106.033L165.045 65.9046H156.007C154.136 65.9046 152.266 67.1404 151.642 68.9915L136.062 106.033H146.97L149.147 100.17H162.55L163.797 106.033H173.458ZM157.566 76.7112L160.679 91.835H151.954L157.566 76.7112Z" fill="#172B85"/>
</g>
<defs>
<filter id="filter0_d_3_3" x="0" y="0" width="225.208" height="167" filterUnits="userSpaceOnUse" color-interpolation-filters="sRGB">
<feFlood flood-opacity="0" result="BackgroundImageFix"/>
<feColorMatrix in="SourceAlpha" type="matrix" values="0 0 0 0 0 0 0 0 0 0 0 0 0 0 0 0 0 0 127 0" result="hardAlpha"/>
<feOffset/>
<feGaussianBlur stdDeviation="10"/>
<feComposite in2="hardAlpha" operator="out"/>
<feColorMatrix type="matrix" values="0 0 0 0 0 0 0 0 0 0 0 0 0 0 0 0 0 0 0.07 0"/>
<feBlend mode="normal" in2="BackgroundImageFix" result="effect1_dropShadow_3_3"/>
<feBlend mode="normal" in="SourceGraphic" in2="effect1_dropShadow_3_3" result="shape"/>
</filter>
</defs>
</svg>
